0
SECTION
2
ENTITIES
0
3DFACE
8
0
10
-400.0
20
-250.0
30
-433.0127
11
-400.0
21
417.0
31
-433.0127
12
600.0
22
417.0
32
-433.0127
13
600.0001
23
417.0001
33
-433.0126
0
3DFACE
8
0
10
600.0
20
417.0
30
-433.0127
11
600.0
21
-250.0
31
-433.0127
12
-400.0
22
-250.0
32
-433.0127
13
-399.9999
23
-249.9999
33
-433.0126
0
3DFACE
8
0
10
350.01562
20
75.0
30
-433.0127
11
355.01562
21
75.0
31
-433.0127
12
354.77094
22
76.545074
32
-433.0127
13
354.77103
23
76.54517
33
-433.0126
0
3DFACE
8
0
10
350.01562
20
75.0
30
-433.0127
11
354.77094
21
76.545074
31
-433.0127
12
354.06073
22
77.938934
32
-433.0127
13
354.06082
23
77.93903
33
-433.0126
0
3DFACE
8
0
10
350.01562
20
75.0
30
-433.0127
11
354.06073
21
77.938934
31
-433.0127
12
352.95453
22
79.045074
32
-433.0127
13
352.95462
23
79.04517
33
-433.0126
0
3DFACE
8
0
10
350.01562
20
75.0
30
-433.0127
11
352.95453
21
79.045074
31
-433.0127
12
351.56073
22
79.75528
32
-433.0127
13
351.56082
23
79.75538
33
-433.0126
0
3DFACE
8
0
10
350.01562
20
75.0
30
-433.0127
11
351.56073
21
79.75528
31
-433.0127
12
350.01562
22
80.0
32
-433.0127
13
350.01572
23
80.0001
33
-433.0126
0
3DFACE
8
0
10
350.01562
20
75.0
30
-433.0127
11
350.01562
21
80.0
31
-433.0127
12
348.47052
22
79.75528
32
-433.0127
13
348.4706
23
79.75538
33
-433.0126
0
3DFACE
8
0
10
350.01562
20
75.0
30
-433.0127
11
348.47052
21
79.75528
31
-433.0127
12
347.07672
22
79.045074
32
-433.0127
13
347.0768
23
79.04517
33
-433.0126
0
3DFACE
8
0
10
350.01562
20
75.0
30
-433.0127
11
347.07672
21
79.045074
31
-433.0127
12
345.97052
22
77.938934
32
-433.0127
13
345.9706
23
77.93903
33
-433.0126
0
3DFACE
8
0
10
350.01562
20
75.0
30
-433.0127
11
345.97052
21
77.938934
31
-433.0127
12
345.2603
22
76.545074
32
-433.0127
13
345.2604
23
76.54517
33
-433.0126
0
3DFACE
8
0
10
350.01562
20
75.0
30
-433.0127
11
345.2603
21
76.545074
31
-433.0127
12
345.01562
22
75.0
32
-433.0127
13
345.01572
23
75.0001
33
-433.0126
0
3DFACE
8
0
10
350.01562
20
75.0
30
-433.0127
11
345.01562
21
75.0
31
-433.0127
12
345.2603
22
73.454926
32
-433.0127
13
345.2604
23
73.455025
33
-433.0126
0
3DFACE
8
0
10
350.01562
20
75.0
30
-433.0127
11
345.2603
21
73.454926
31
-433.0127
12
345.97052
22
72.061066
32
-433.0127
13
345.9706
23
72.061165
33
-433.0126
0
3DFACE
8
0
10
350.01562
20
75.0
30
-433.0127
11
345.97052
21
72.061066
31
-433.0127
12
347.07672
22
70.954926
32
-433.0127
13
347.0768
23
70.955025
33
-433.0126
0
3DFACE
8
0
10
350.01562
20
75.0
30
-433.0127
11
347.07672
21
70.954926
31
-433.0127
12
348.47052
22
70.24472
32
-433.0127
13
348.4706
23
70.24482
33
-433.0126
0
3DFACE
8
0
10
350.01562
20
75.0
30
-433.0127
11
348.47052
21
70.24472
31
-433.0127
12
350.01562
22
70.0
32
-433.0127
13
350.01572
23
70.0001
33
-433.0126
0
3DFACE
8
0
10
350.01562
20
75.0
30
-433.0127
11
350.01562
21
70.0
31
-433.0127
12
351.56073
22
70.24472
32
-433.0127
13
351.56082
23
70.24482
33
-433.0126
0
3DFACE
8
0
10
350.01562
20
75.0
30
-433.0127
11
351.56073
21
70.24472
31
-433.0127
12
352.95453
22
70.954926
32
-433.0127
13
352.95462
23
70.955025
33
-433.0126
0
3DFACE
8
0
10
350.01562
20
75.0
30
-433.0127
11
352.95453
21
70.954926
31
-433.0127
12
354.06073
22
72.061066
32
-433.0127
13
354.06082
23
72.061165
33
-433.0126
0
3DFACE
8
0
10
350.01562
20
75.0
30
-433.0127
11
354.06073
21
72.061066
31
-433.0127
12
354.77094
22
73.454926
32
-433.0127
13
354.77103
23
73.455025
33
-433.0126
0
3DFACE
8
0
10
350.01562
20
75.0
30
-433.0127
11
354.77094
21
73.454926
31
-433.0127
12
355.01562
22
75.0
32
-433.0127
13
355.01572
23
75.0001
33
-433.0126
0
3DFACE
8
0
10
380.0
20
104.984406
30
-433.0127
11
385.0
21
104.984406
31
-433.0127
12
384.7553
22
106.52948
32
-433.0127
13
384.7554
23
106.52958
33
-433.0126
0
3DFACE
8
0
10
380.0
20
104.984406
30
-433.0127
11
384.7553
21
106.52948
31
-433.0127
12
384.0451
22
107.92334
32
-433.0127
13
384.0452
23
107.92344
33
-433.0126
0
3DFACE
8
0
10
380.0
20
104.984406
30
-433.0127
11
384.0451
21
107.92334
31
-433.0127
12
382.9389
22
109.02948
32
-433.0127
13
382.939
23
109.02958
33
-433.0126
0
3DFACE
8
0
10
380.0
20
104.984406
30
-433.0127
11
382.9389
21
109.02948
31
-433.0127
12
381.5451
22
109.739685
32
-433.0127
13
381.5452
23
109.739784
33
-433.0126
0
3DFACE
8
0
10
380.0
20
104.984406
30
-433.0127
11
381.5451
21
109.739685
31
-433.0127
12
380.0
22
109.984406
32
-433.0127
13
380.0001
23
109.984505
33
-433.0126
0
3DFACE
8
0
10
380.0
20
104.984406
30
-433.0127
11
380.0
21
109.984406
31
-433.0127
12
378.4549
22
109.739685
32
-433.0127
13
378.455
23
109.739784
33
-433.0126
0
3DFACE
8
0
10
380.0
20
104.984406
30
-433.0127
11
378.4549
21
109.739685
31
-433.0127
12
377.0611
22
109.02948
32
-433.0127
13
377.0612
23
109.02958
33
-433.0126
0
3DFACE
8
0
10
380.0
20
104.984406
30
-433.0127
11
377.0611
21
109.02948
31
-433.0127
12
375.9549
22
107.92334
32
-433.0127
13
375.955
23
107.92344
33
-433.0126
0
3DFACE
8
0
10
380.0
20
104.984406
30
-433.0127
11
375.9549
21
107.92334
31
-433.0127
12
375.2447
22
106.52948
32
-433.0127
13
375.24478
23
106.52958
33
-433.0126
0
3DFACE
8
0
10
380.0
20
104.984406
30
-433.0127
11
375.2447
21
106.52948
31
-433.0127
12
375.0
22
104.984406
32
-433.0127
13
375.0001
23
104.984505
33
-433.0126
0
3DFACE
8
0
10
380.0
20
104.984406
30
-433.0127
11
375.0
21
104.984406
31
-433.0127
12
375.2447
22
103.43933
32
-433.0127
13
375.24478
23
103.43943
33
-433.0126
0
3DFACE
8
0
10
380.0
20
104.984406
30
-433.0127
11
375.2447
21
103.43933
31
-433.0127
12
375.9549
22
102.04547
32
-433.0127
13
375.955
23
102.04557
33
-433.0126
0
3DFACE
8
0
10
380.0
20
104.984406
30
-433.0127
11
375.9549
21
102.04547
31
-433.0127
12
377.0611
22
100.93933
32
-433.0127
13
377.0612
23
100.93943
33
-433.0126
0
3DFACE
8
0
10
380.0
20
104.984406
30
-433.0127
11
377.0611
21
100.93933
31
-433.0127
12
378.4549
22
100.229126
32
-433.0127
13
378.455
23
100.229225
33
-433.0126
0
3DFACE
8
0
10
380.0
20
104.984406
30
-433.0127
11
378.4549
21
100.229126
31
-433.0127
12
380.0
22
99.984406
32
-433.0127
13
380.0001
23
99.984505
33
-433.0126
0
3DFACE
8
0
10
380.0
20
104.984406
30
-433.0127
11
380.0
21
99.984406
31
-433.0127
12
381.5451
22
100.229126
32
-433.0127
13
381.5452
23
100.229225
33
-433.0126
0
3DFACE
8
0
10
380.0
20
104.984406
30
-433.0127
11
381.5451
21
100.229126
31
-433.0127
12
382.9389
22
100.93933
32
-433.0127
13
382.939
23
100.93943
33
-433.0126
0
3DFACE
8
0
10
380.0
20
104.984406
30
-433.0127
11
382.9389
21
100.93933
31
-433.0127
12
384.0451
22
102.04547
32
-433.0127
13
384.0452
23
102.04557
33
-433.0126
0
3DFACE
8
0
10
380.0
20
104.984406
30
-433.0127
11
384.0451
21
102.04547
31
-433.0127
12
384.7553
22
103.43933
32
-433.0127
13
384.7554
23
103.43943
33
-433.0126
0
3DFACE
8
0
10
380.0
20
104.984406
30
-433.0127
11
384.7553
21
103.43933
31
-433.0127
12
385.0
22
104.984406
32
-433.0127
13
385.0001
23
104.984505
33
-433.0126
0
3DFACE
8
0
10
120.0
20
175.0156
30
-433.0127
11
125.0
21
175.0156
31
-433.0127
12
124.75531
22
176.56067
32
-433.0127
13
124.75541
23
176.56078
33
-433.0126
0
3DFACE
8
0
10
120.0
20
175.0156
30
-433.0127
11
124.75531
21
176.56067
31
-433.0127
12
124.045105
22
177.95453
32
-433.0127
13
124.045204
23
177.95464
33
-433.0126
0
3DFACE
8
0
10
120.0
20
175.0156
30
-433.0127
11
124.045105
21
177.95453
31
-433.0127
12
122.9389
22
179.06067
32
-433.0127
13
122.939
23
179.06078
33
-433.0126
0
3DFACE
8
0
10
120.0
20
175.0156
30
-433.0127
11
122.9389
21
179.06067
31
-433.0127
12
121.545105
22
179.77087
32
-433.0127
13
121.545204
23
179.77098
33
-433.0126
0
3DFACE
8
0
10
120.0
20
175.0156
30
-433.0127
11
121.545105
21
179.77087
31
-433.0127
12
120.0
22
180.0156
32
-433.0127
13
120.0001
23
180.0157
33
-433.0126
0
3DFACE
8
0
10
120.0
20
175.0156
30
-433.0127
11
120.0
21
180.0156
31
-433.0127
12
118.454895
22
179.77087
32
-433.0127
13
118.454994
23
179.77098
33
-433.0126
0
3DFACE
8
0
10
120.0
20
175.0156
30
-433.0127
11
118.454895
21
179.77087
31
-433.0127
12
117.0611
22
179.06067
32
-433.0127
13
117.061195
23
179.06078
33
-433.0126
0
3DFACE
8
0
10
120.0
20
175.0156
30
-433.0127
11
117.0611
21
179.06067
31
-433.0127
12
115.954895
22
177.95453
32
-433.0127
13
115.954994
23
177.95464
33
-433.0126
0
3DFACE
8
0
10
120.0
20
175.0156
30
-433.0127
11
115.954895
21
177.95453
31
-433.0127
12
115.24469
22
176.56067
32
-433.0127
13
115.24479
23
176.56078
33
-433.0126
0
3DFACE
8
0
10
120.0
20
175.0156
30
-433.0127
11
115.24469
21
176.56067
31
-433.0127
12
115.0
22
175.0156
32
-433.0127
13
115.0001
23
175.0157
33
-433.0126
0
3DFACE
8
0
10
120.0
20
175.0156
30
-433.0127
11
115.0
21
175.0156
31
-433.0127
12
115.24469
22
173.47052
32
-433.0127
13
115.24479
23
173.47063
33
-433.0126
0
3DFACE
8
0
10
120.0
20
175.0156
30
-433.0127
11
115.24469
21
173.47052
31
-433.0127
12
115.954895
22
172.07666
32
-433.0127
13
115.954994
23
172.07677
33
-433.0126
0
3DFACE
8
0
10
120.0
20
175.0156
30
-433.0127
11
115.954895
21
172.07666
31
-433.0127
12
117.0611
22
170.97052
32
-433.0127
13
117.061195
23
170.97063
33
-433.0126
0
3DFACE
8
0
10
120.0
20
175.0156
30
-433.0127
11
117.0611
21
170.97052
31
-433.0127
12
118.454895
22
170.26031
32
-433.0127
13
118.454994
23
170.26042
33
-433.0126
0
3DFACE
8
0
10
120.0
20
175.0156
30
-433.0127
11
118.454895
21
170.26031
31
-433.0127
12
120.0
22
170.0156
32
-433.0127
13
120.0001
23
170.0157
33
-433.0126
0
3DFACE
8
0
10
120.0
20
175.0156
30
-433.0127
11
120.0
21
170.0156
31
-433.0127
12
121.545105
22
170.26031
32
-433.0127
13
121.545204
23
170.26042
33
-433.0126
0
3DFACE
8
0
10
120.0
20
175.0156
30
-433.0127
11
121.545105
21
170.26031
31
-433.0127
12
122.9389
22
170.97052
32
-433.0127
13
122.939
23
170.97063
33
-433.0126
0
3DFACE
8
0
10
120.0
20
175.0156
30
-433.0127
11
122.9389
21
170.97052
31
-433.0127
12
124.045105
22
172.07666
32
-433.0127
13
124.045204
23
172.07677
33
-433.0126
0
3DFACE
8
0
10
120.0
20
175.0156
30
-433.0127
11
124.045105
21
172.07666
31
-433.0127
12
124.75531
22
173.47052
32
-433.0127
13
124.75541
23
173.47063
33
-433.0126
0
3DFACE
8
0
10
120.0
20
175.0156
30
-433.0127
11
124.75531
21
173.47052
31
-433.0127
12
125.0
22
175.0156
32
-433.0127
13
125.0001
23
175.0157
33
-433.0126
0
3DFACE
8
0
10
149.98438
20
205.0
30
-433.0127
11
154.98438
21
205.0
31
-433.0127
12
154.73969
22
206.54507
32
-433.0127
13
154.73979
23
206.54518
33
-433.0126
0
3DFACE
8
0
10
149.98438
20
205.0
30
-433.0127
11
154.73969
21
206.54507
31
-433.0127
12
154.02948
22
207.93893
32
-433.0127
13
154.02959
23
207.93904
33
-433.0126
0
3DFACE
8
0
10
149.98438
20
205.0
30
-433.0127
11
154.02948
21
207.93893
31
-433.0127
12
152.92328
22
209.04507
32
-433.0127
13
152.92339
23
209.04518
33
-433.0126
0
3DFACE
8
0
10
149.98438
20
205.0
30
-433.0127
11
152.92328
21
209.04507
31
-433.0127
12
151.52948
22
209.75528
32
-433.0127
13
151.52959
23
209.75539
33
-433.0126
0
3DFACE
8
0
10
149.98438
20
205.0
30
-433.0127
11
151.52948
21
209.75528
31
-433.0127
12
149.98438
22
210.0
32
-433.0127
13
149.98448
23
210.0001
33
-433.0126
0
3DFACE
8
0
10
149.98438
20
205.0
30
-433.0127
11
149.98438
21
210.0
31
-433.0127
12
148.43927
22
209.75528
32
-433.0127
13
148.43938
23
209.75539
33
-433.0126
0
3DFACE
8
0
10
149.98438
20
205.0
30
-433.0127
11
148.43927
21
209.75528
31
-433.0127
12
147.04547
22
209.04507
32
-433.0127
13
147.04558
23
209.04518
33
-433.0126
0
3DFACE
8
0
10
149.98438
20
205.0
30
-433.0127
11
147.04547
21
209.04507
31
-433.0127
12
145.93927
22
207.93893
32
-433.0127
13
145.93938
23
207.93904
33
-433.0126
0
3DFACE
8
0
10
149.98438
20
205.0
30
-433.0127
11
145.93927
21
207.93893
31
-433.0127
12
145.22906
22
206.54507
32
-433.0127
13
145.22917
23
206.54518
33
-433.0126
0
3DFACE
8
0
10
149.98438
20
205.0
30
-433.0127
11
145.22906
21
206.54507
31
-433.0127
12
144.98438
22
205.0
32
-433.0127
13
144.98448
23
205.0001
33
-433.0126
0
3DFACE
8
0
10
149.98438
20
205.0
30
-433.0127
11
144.98438
21
205.0
31
-433.0127
12
145.22906
22
203.45493
32
-433.0127
13
145.22917
23
203.45503
33
-433.0126
0
3DFACE
8
0
10
149.98438
20
205.0
30
-433.0127
11
145.22906
21
203.45493
31
-433.0127
12
145.93927
22
202.06107
32
-433.0127
13
145.93938
23
202.06117
33
-433.0126
0
3DFACE
8
0
10
149.98438
20
205.0
30
-433.0127
11
145.93927
21
202.06107
31
-433.0127
12
147.04547
22
200.95493
32
-433.0127
13
147.04558
23
200.95503
33
-433.0126
0
3DFACE
8
0
10
149.98438
20
205.0
30
-433.0127
11
147.04547
21
200.95493
31
-433.0127
12
148.43927
22
200.24472
32
-433.0127
13
148.43938
23
200.24483
33
-433.0126
0
3DFACE
8
0
10
149.98438
20
205.0
30
-433.0127
11
148.43927
21
200.24472
31
-433.0127
12
149.98438
22
200.0
32
-433.0127
13
149.98448
23
200.0001
33
-433.0126
0
3DFACE
8
0
10
149.98438
20
205.0
30
-433.0127
11
149.98438
21
200.0
31
-433.0127
12
151.52948
22
200.24472
32
-433.0127
13
151.52959
23
200.24483
33
-433.0126
0
3DFACE
8
0
10
149.98438
20
205.0
30
-433.0127
11
151.52948
21
200.24472
31
-433.0127
12
152.92328
22
200.95493
32
-433.0127
13
152.92339
23
200.95503
33
-433.0126
0
3DFACE
8
0
10
149.98438
20
205.0
30
-433.0127
11
152.92328
21
200.95493
31
-433.0127
12
154.02948
22
202.06107
32
-433.0127
13
154.02959
23
202.06117
33
-433.0126
0
3DFACE
8
0
10
149.98438
20
205.0
30
-433.0127
11
154.02948
21
202.06107
31
-433.0127
12
154.73969
22
203.45493
32
-433.0127
13
154.73979
23
203.45503
33
-433.0126
0
3DFACE
8
0
10
149.98438
20
205.0
30
-433.0127
11
154.73969
21
203.45493
31
-433.0127
12
154.98438
22
205.0
32
-433.0127
13
154.98448
23
205.0001
33
-433.0126
0
3DFACE
8
0
10
149.98438
20
10.0
30
-433.0127
11
154.98438
21
10.0
31
-433.0127
12
154.73969
22
11.545074
32
-433.0127
13
154.73979
23
11.545175
33
-433.0126
0
3DFACE
8
0
10
149.98438
20
10.0
30
-433.0127
11
154.73969
21
11.545074
31
-433.0127
12
154.02948
22
12.938934
32
-433.0127
13
154.02959
23
12.939034
33
-433.0126
0
3DFACE
8
0
10
149.98438
20
10.0
30
-433.0127
11
154.02948
21
12.938934
31
-433.0127
12
152.92328
22
14.045074
32
-433.0127
13
152.92339
23
14.045175
33
-433.0126
0
3DFACE
8
0
10
149.98438
20
10.0
30
-433.0127
11
152.92328
21
14.045074
31
-433.0127
12
151.52948
22
14.75528
32
-433.0127
13
151.52959
23
14.75538
33
-433.0126
0
3DFACE
8
0
10
149.98438
20
10.0
30
-433.0127
11
151.52948
21
14.75528
31
-433.0127
12
149.98438
22
15.0
32
-433.0127
13
149.98448
23
15.0001
33
-433.0126
0
3DFACE
8
0
10
149.98438
20
10.0
30
-433.0127
11
149.98438
21
15.0
31
-433.0127
12
148.43927
22
14.75528
32
-433.0127
13
148.43938
23
14.75538
33
-433.0126
0
3DFACE
8
0
10
149.98438
20
10.0
30
-433.0127
11
148.43927
21
14.75528
31
-433.0127
12
147.04547
22
14.045074
32
-433.0127
13
147.04558
23
14.045175
33
-433.0126
0
3DFACE
8
0
10
149.98438
20
10.0
30
-433.0127
11
147.04547
21
14.045074
31
-433.0127
12
145.93927
22
12.938934
32
-433.0127
13
145.93938
23
12.939034
33
-433.0126
0
3DFACE
8
0
10
149.98438
20
10.0
30
-433.0127
11
145.93927
21
12.938934
31
-433.0127
12
145.22906
22
11.545074
32
-433.0127
13
145.22917
23
11.545175
33
-433.0126
0
3DFACE
8
0
10
149.98438
20
10.0
30
-433.0127
11
145.22906
21
11.545074
31
-433.0127
12
144.98438
22
10.0
32
-433.0127
13
144.98448
23
10.0001
33
-433.0126
0
3DFACE
8
0
10
149.98438
20
10.0
30
-433.0127
11
144.98438
21
10.0
31
-433.0127
12
145.22906
22
8.454926
32
-433.0127
13
145.22917
23
8.455026
33
-433.0126
0
3DFACE
8
0
10
149.98438
20
10.0
30
-433.0127
11
145.22906
21
8.454926
31
-433.0127
12
145.93927
22
7.0610657
32
-433.0127
13
145.93938
23
7.061166
33
-433.0126
0
3DFACE
8
0
10
149.98438
20
10.0
30
-433.0127
11
145.93927
21
7.0610657
31
-433.0127
12
147.04547
22
5.9549103
32
-433.0127
13
147.04558
23
5.9550104
33
-433.0126
0
3DFACE
8
0
10
149.98438
20
10.0
30
-433.0127
11
147.04547
21
5.9549103
31
-433.0127
12
148.43927
22
5.2447205
32
-433.0127
13
148.43938
23
5.2448206
33
-433.0126
0
3DFACE
8
0
10
149.98438
20
10.0
30
-433.0127
11
148.43927
21
5.2447205
31
-433.0127
12
149.98438
22
5.0
32
-433.0127
13
149.98448
23
5.0001
33
-433.0126
0
3DFACE
8
0
10
149.98438
20
10.0
30
-433.0127
11
149.98438
21
5.0
31
-433.0127
12
151.52948
22
5.2447205
32
-433.0127
13
151.52959
23
5.2448206
33
-433.0126
0
3DFACE
8
0
10
149.98438
20
10.0
30
-433.0127
11
151.52948
21
5.2447205
31
-433.0127
12
152.92328
22
5.9549103
32
-433.0127
13
152.92339
23
5.9550104
33
-433.0126
0
3DFACE
8
0
10
149.98438
20
10.0
30
-433.0127
11
152.92328
21
5.9549103
31
-433.0127
12
154.02948
22
7.0610657
32
-433.0127
13
154.02959
23
7.061166
33
-433.0126
0
3DFACE
8
0
10
149.98438
20
10.0
30
-433.0127
11
154.02948
21
7.0610657
31
-433.0127
12
154.73969
22
8.454926
32
-433.0127
13
154.73979
23
8.455026
33
-433.0126
0
3DFACE
8
0
10
149.98438
20
10.0
30
-433.0127
11
154.73969
21
8.454926
31
-433.0127
12
154.98438
22
10.0
32
-433.0127
13
154.98448
23
10.0001
33
-433.0126
0
3DFACE
8
0
10
120.0
20
39.984406
30
-433.0127
11
125.0
21
39.984406
31
-433.0127
12
124.75531
22
41.52948
32
-433.0127
13
124.75541
23
41.52958
33
-433.0126
0
3DFACE
8
0
10
120.0
20
39.984406
30
-433.0127
11
124.75531
21
41.52948
31
-433.0127
12
124.045105
22
42.92334
32
-433.0127
13
124.045204
23
42.92344
33
-433.0126
0
3DFACE
8
0
10
120.0
20
39.984406
30
-433.0127
11
124.045105
21
42.92334
31
-433.0127
12
122.9389
22
44.02948
32
-433.0127
13
122.939
23
44.02958
33
-433.0126
0
3DFACE
8
0
10
120.0
20
39.984406
30
-433.0127
11
122.9389
21
44.02948
31
-433.0127
12
121.545105
22
44.739685
32
-433.0127
13
121.545204
23
44.739784
33
-433.0126
0
3DFACE
8
0
10
120.0
20
39.984406
30
-433.0127
11
121.545105
21
44.739685
31
-433.0127
12
120.0
22
44.984406
32
-433.0127
13
120.0001
23
44.984505
33
-433.0126
0
3DFACE
8
0
10
120.0
20
39.984406
30
-433.0127
11
120.0
21
44.984406
31
-433.0127
12
118.454895
22
44.739685
32
-433.0127
13
118.454994
23
44.739784
33
-433.0126
0
3DFACE
8
0
10
120.0
20
39.984406
30
-433.0127
11
118.454895
21
44.739685
31
-433.0127
12
117.0611
22
44.02948
32
-433.0127
13
117.061195
23
44.02958
33
-433.0126
0
3DFACE
8
0
10
120.0
20
39.984406
30
-433.0127
11
117.0611
21
44.02948
31
-433.0127
12
115.954895
22
42.92334
32
-433.0127
13
115.954994
23
42.92344
33
-433.0126
0
3DFACE
8
0
10
120.0
20
39.984406
30
-433.0127
11
115.954895
21
42.92334
31
-433.0127
12
115.24469
22
41.52948
32
-433.0127
13
115.24479
23
41.52958
33
-433.0126
0
3DFACE
8
0
10
120.0
20
39.984406
30
-433.0127
11
115.24469
21
41.52948
31
-433.0127
12
115.0
22
39.984406
32
-433.0127
13
115.0001
23
39.984505
33
-433.0126
0
3DFACE
8
0
10
120.0
20
39.984406
30
-433.0127
11
115.0
21
39.984406
31
-433.0127
12
115.24469
22
38.43933
32
-433.0127
13
115.24479
23
38.43943
33
-433.0126
0
3DFACE
8
0
10
120.0
20
39.984406
30
-433.0127
11
115.24469
21
38.43933
31
-433.0127
12
115.954895
22
37.04547
32
-433.0127
13
115.954994
23
37.04557
33
-433.0126
0
3DFACE
8
0
10
120.0
20
39.984406
30
-433.0127
11
115.954895
21
37.04547
31
-433.0127
12
117.0611
22
35.93933
32
-433.0127
13
117.061195
23
35.93943
33
-433.0126
0
3DFACE
8
0
10
120.0
20
39.984406
30
-433.0127
11
117.0611
21
35.93933
31
-433.0127
12
118.454895
22
35.229126
32
-433.0127
13
118.454994
23
35.229225
33
-433.0126
0
3DFACE
8
0
10
120.0
20
39.984406
30
-433.0127
11
118.454895
21
35.229126
31
-433.0127
12
120.0
22
34.984406
32
-433.0127
13
120.0001
23
34.984505
33
-433.0126
0
3DFACE
8
0
10
120.0
20
39.984406
30
-433.0127
11
120.0
21
34.984406
31
-433.0127
12
121.545105
22
35.229126
32
-433.0127
13
121.545204
23
35.229225
33
-433.0126
0
3DFACE
8
0
10
120.0
20
39.984406
30
-433.0127
11
121.545105
21
35.229126
31
-433.0127
12
122.9389
22
35.93933
32
-433.0127
13
122.939
23
35.93943
33
-433.0126
0
3DFACE
8
0
10
120.0
20
39.984406
30
-433.0127
11
122.9389
21
35.93933
31
-433.0127
12
124.045105
22
37.04547
32
-433.0127
13
124.045204
23
37.04557
33
-433.0126
0
3DFACE
8
0
10
120.0
20
39.984406
30
-433.0127
11
124.045105
21
37.04547
31
-433.0127
12
124.75531
22
38.43933
32
-433.0127
13
124.75541
23
38.43943
33
-433.0126
0
3DFACE
8
0
10
120.0
20
39.984406
30
-433.0127
11
124.75531
21
38.43933
31
-433.0127
12
125.0
22
39.984406
32
-433.0127
13
125.0001
23
39.984505
33
-433.0126
0
3DFACE
8
0
10
-270.0
20
-25.01561
30
-433.0127
11
-265.0
21
-25.01561
31
-433.0127
12
-265.24472
22
-23.47052
32
-433.0127
13
-265.24463
23
-23.47042
33
-433.0126
0
3DFACE
8
0
10
-270.0
20
-25.01561
30
-433.0127
11
-265.24472
21
-23.47052
31
-433.0127
12
-265.9549
22
-22.07669
32
-433.0127
13
-265.9548
23
-22.076591
33
-433.0126
0
3DFACE
8
0
10
-270.0
20
-25.01561
30
-433.0127
11
-265.9549
21
-22.07669
31
-433.0127
12
-267.0611
22
-20.97052
32
-433.0127
13
-267.061
23
-20.97042
33
-433.0126
0
3DFACE
8
0
10
-270.0
20
-25.01561
30
-433.0127
11
-267.0611
21
-20.97052
31
-433.0127
12
-268.4549
22
-20.26033
32
-433.0127
13
-268.4548
23
-20.260231
33
-433.0126
0
3DFACE
8
0
10
-270.0
20
-25.01561
30
-433.0127
11
-268.4549
21
-20.26033
31
-433.0127
12
-270.0
22
-20.01561
32
-433.0127
13
-269.9999
23
-20.01551
33
-433.0126
0
3DFACE
8
0
10
-270.0
20
-25.01561
30
-433.0127
11
-270.0
21
-20.01561
31
-433.0127
12
-271.5451
22
-20.26033
32
-433.0127
13
-271.545
23
-20.260231
33
-433.0126
0
3DFACE
8
0
10
-270.0
20
-25.01561
30
-433.0127
11
-271.5451
21
-20.26033
31
-433.0127
12
-272.93893
22
-20.97052
32
-433.0127
13
-272.93884
23
-20.97042
33
-433.0126
0
3DFACE
8
0
10
-270.0
20
-25.01561
30
-433.0127
11
-272.93893
21
-20.97052
31
-433.0127
12
-274.04507
22
-22.07669
32
-433.0127
13
-274.04498
23
-22.076591
33
-433.0126
0
3DFACE
8
0
10
-270.0
20
-25.01561
30
-433.0127
11
-274.04507
21
-22.07669
31
-433.0127
12
-274.75528
22
-23.47052
32
-433.0127
13
-274.7552
23
-23.47042
33
-433.0126
0
3DFACE
8
0
10
-270.0
20
-25.01561
30
-433.0127
11
-274.75528
21
-23.47052
31
-433.0127
12
-275.0
22
-25.01561
32
-433.0127
13
-274.9999
23
-25.01551
33
-433.0126
0
3DFACE
8
0
10
-270.0
20
-25.01561
30
-433.0127
11
-275.0
21
-25.01561
31
-433.0127
12
-274.75528
22
-26.5607
32
-433.0127
13
-274.7552
23
-26.5606
33
-433.0126
0
3DFACE
8
0
10
-270.0
20
-25.01561
30
-433.0127
11
-274.75528
21
-26.5607
31
-433.0127
12
-274.04507
22
-27.954529
32
-433.0127
13
-274.04498
23
-27.95443
33
-433.0126
0
3DFACE
8
0
10
-270.0
20
-25.01561
30
-433.0127
11
-274.04507
21
-27.954529
31
-433.0127
12
-272.93893
22
-29.0607
32
-433.0127
13
-272.93884
23
-29.0606
33
-433.0126
0
3DFACE
8
0
10
-270.0
20
-25.01561
30
-433.0127
11
-272.93893
21
-29.0607
31
-433.0127
12
-271.5451
22
-29.77089
32
-433.0127
13
-271.545
23
-29.77079
33
-433.0126
0
3DFACE
8
0
10
-270.0
20
-25.01561
30
-433.0127
11
-271.5451
21
-29.77089
31
-433.0127
12
-270.0
22
-30.01561
32
-433.0127
13
-269.9999
23
-30.01551
33
-433.0126
0
3DFACE
8
0
10
-270.0
20
-25.01561
30
-433.0127
11
-270.0
21
-30.01561
31
-433.0127
12
-268.4549
22
-29.77089
32
-433.0127
13
-268.4548
23
-29.77079
33
-433.0126
0
3DFACE
8
0
10
-270.0
20
-25.01561
30
-433.0127
11
-268.4549
21
-29.77089
31
-433.0127
12
-267.0611
22
-29.0607
32
-433.0127
13
-267.061
23
-29.0606
33
-433.0126
0
3DFACE
8
0
10
-270.0
20
-25.01561
30
-433.0127
11
-267.0611
21
-29.0607
31
-433.0127
12
-265.9549
22
-27.954529
32
-433.0127
13
-265.9548
23
-27.95443
33
-433.0126
0
3DFACE
8
0
10
-270.0
20
-25.01561
30
-433.0127
11
-265.9549
21
-27.954529
31
-433.0127
12
-265.24472
22
-26.5607
32
-433.0127
13
-265.24463
23
-26.5606
33
-433.0126
0
3DFACE
8
0
10
-270.0
20
-25.01561
30
-433.0127
11
-265.24472
21
-26.5607
31
-433.0127
12
-265.0
22
-25.01561
32
-433.0127
13
-264.9999
23
-25.01551
33
-433.0126
0
3DFACE
8
0
10
-240.01561
20
-55.0
30
-433.0127
11
-235.01561
21
-55.0
31
-433.0127
12
-235.26033
22
-53.45491
32
-433.0127
13
-235.26022
23
-53.45481
33
-433.0126
0
3DFACE
8
0
10
-240.01561
20
-55.0
30
-433.0127
11
-235.26033
21
-53.45491
31
-433.0127
12
-235.97052
22
-52.06108
32
-433.0127
13
-235.97041
23
-52.06098
33
-433.0126
0
3DFACE
8
0
10
-240.01561
20
-55.0
30
-433.0127
11
-235.97052
21
-52.06108
31
-433.0127
12
-237.07669
22
-50.95491
32
-433.0127
13
-237.07658
23
-50.95481
33
-433.0126
0
3DFACE
8
0
10
-240.01561
20
-55.0
30
-433.0127
11
-237.07669
21
-50.95491
31
-433.0127
12
-238.47052
22
-50.24472
32
-433.0127
13
-238.47041
23
-50.24462
33
-433.0126
0
3DFACE
8
0
10
-240.01561
20
-55.0
30
-433.0127
11
-238.47052
21
-50.24472
31
-433.0127
12
-240.01561
22
-50.0
32
-433.0127
13
-240.0155
23
-49.9999
33
-433.0126
0
3DFACE
8
0
10
-240.01561
20
-55.0
30
-433.0127
11
-240.01561
21
-50.0
31
-433.0127
12
-241.5607
22
-50.24472
32
-433.0127
13
-241.5606
23
-50.24462
33
-433.0126
0
3DFACE
8
0
10
-240.01561
20
-55.0
30
-433.0127
11
-241.5607
21
-50.24472
31
-433.0127
12
-242.95453
22
-50.95491
32
-433.0127
13
-242.95442
23
-50.95481
33
-433.0126
0
3DFACE
8
0
10
-240.01561
20
-55.0
30
-433.0127
11
-242.95453
21
-50.95491
31
-433.0127
12
-244.0607
22
-52.06108
32
-433.0127
13
-244.0606
23
-52.06098
33
-433.0126
0
3DFACE
8
0
10
-240.01561
20
-55.0
30
-433.0127
11
-244.0607
21
-52.06108
31
-433.0127
12
-244.77089
22
-53.45491
32
-433.0127
13
-244.77078
23
-53.45481
33
-433.0126
0
3DFACE
8
0
10
-240.01561
20
-55.0
30
-433.0127
11
-244.77089
21
-53.45491
31
-433.0127
12
-245.01561
22
-55.0
32
-433.0127
13
-245.0155
23
-54.9999
33
-433.0126
0
3DFACE
8
0
10
-240.01561
20
-55.0
30
-433.0127
11
-245.01561
21
-55.0
31
-433.0127
12
-244.77089
22
-56.54509
32
-433.0127
13
-244.77078
23
-56.54499
33
-433.0126
0
3DFACE
8
0
10
-240.01561
20
-55.0
30
-433.0127
11
-244.77089
21
-56.54509
31
-433.0127
12
-244.0607
22
-57.93892
32
-433.0127
13
-244.0606
23
-57.93882
33
-433.0126
0
3DFACE
8
0
10
-240.01561
20
-55.0
30
-433.0127
11
-244.0607
21
-57.93892
31
-433.0127
12
-242.95454
22
-59.04509
32
-433.0127
13
-242.95444
23
-59.04499
33
-433.0126
0
3DFACE
8
0
10
-240.01561
20
-55.0
30
-433.0127
11
-242.95454
21
-59.04509
31
-433.0127
12
-241.5607
22
-59.75528
32
-433.0127
13
-241.5606
23
-59.75518
33
-433.0126
0
3DFACE
8
0
10
-240.01561
20
-55.0
30
-433.0127
11
-241.5607
21
-59.75528
31
-433.0127
12
-240.01561
22
-60.0
32
-433.0127
13
-240.0155
23
-59.9999
33
-433.0126
0
3DFACE
8
0
10
-240.01561
20
-55.0
30
-433.0127
11
-240.01561
21
-60.0
31
-433.0127
12
-238.47052
22
-59.75528
32
-433.0127
13
-238.47041
23
-59.75518
33
-433.0126
0
3DFACE
8
0
10
-240.01561
20
-55.0
30
-433.0127
11
-238.47052
21
-59.75528
31
-433.0127
12
-237.07669
22
-59.04509
32
-433.0127
13
-237.07658
23
-59.04499
33
-433.0126
0
3DFACE
8
0
10
-240.01561
20
-55.0
30
-433.0127
11
-237.07669
21
-59.04509
31
-433.0127
12
-235.97052
22
-57.93892
32
-433.0127
13
-235.97041
23
-57.93882
33
-433.0126
0
3DFACE
8
0
10
-240.01561
20
-55.0
30
-433.0127
11
-235.97052
21
-57.93892
31
-433.0127
12
-235.26033
22
-56.54509
32
-433.0127
13
-235.26022
23
-56.54499
33
-433.0126
0
3DFACE
8
0
10
-240.01561
20
-55.0
30
-433.0127
11
-235.26033
21
-56.54509
31
-433.0127
12
-235.01561
22
-55.0
32
-433.0127
13
-235.0155
23
-54.9999
33
-433.0126
0
3DFACE
8
0
10
-240.01561
20
75.0
30
-433.0127
11
-235.01561
21
75.0
31
-433.0127
12
-235.26033
22
76.545074
32
-433.0127
13
-235.26022
23
76.54517
33
-433.0126
0
3DFACE
8
0
10
-240.01561
20
75.0
30
-433.0127
11
-235.26033
21
76.545074
31
-433.0127
12
-235.97052
22
77.938934
32
-433.0127
13
-235.97041
23
77.93903
33
-433.0126
0
3DFACE
8
0
10
-240.01561
20
75.0
30
-433.0127
11
-235.97052
21
77.938934
31
-433.0127
12
-237.07669
22
79.045074
32
-433.0127
13
-237.07658
23
79.04517
33
-433.0126
0
3DFACE
8
0
10
-240.01561
20
75.0
30
-433.0127
11
-237.07669
21
79.045074
31
-433.0127
12
-238.47052
22
79.75528
32
-433.0127
13
-238.47041
23
79.75538
33
-433.0126
0
3DFACE
8
0
10
-240.01561
20
75.0
30
-433.0127
11
-238.47052
21
79.75528
31
-433.0127
12
-240.01561
22
80.0
32
-433.0127
13
-240.0155
23
80.0001
33
-433.0126
0
3DFACE
8
0
10
-240.01561
20
75.0
30
-433.0127
11
-240.01561
21
80.0
31
-433.0127
12
-241.5607
22
79.75528
32
-433.0127
13
-241.5606
23
79.75538
33
-433.0126
0
3DFACE
8
0
10
-240.01561
20
75.0
30
-433.0127
11
-241.5607
21
79.75528
31
-433.0127
12
-242.95453
22
79.045074
32
-433.0127
13
-242.95442
23
79.04517
33
-433.0126
0
3DFACE
8
0
10
-240.01561
20
75.0
30
-433.0127
11
-242.95453
21
79.045074
31
-433.0127
12
-244.0607
22
77.938934
32
-433.0127
13
-244.0606
23
77.93903
33
-433.0126
0
3DFACE
8
0
10
-240.01561
20
75.0
30
-433.0127
11
-244.0607
21
77.938934
31
-433.0127
12
-244.77089
22
76.545074
32
-433.0127
13
-244.77078
23
76.54517
33
-433.0126
0
3DFACE
8
0
10
-240.01561
20
75.0
30
-433.0127
11
-244.77089
21
76.545074
31
-433.0127
12
-245.01561
22
75.0
32
-433.0127
13
-245.0155
23
75.0001
33
-433.0126
0
3DFACE
8
0
10
-240.01561
20
75.0
30
-433.0127
11
-245.01561
21
75.0
31
-433.0127
12
-244.77089
22
73.454926
32
-433.0127
13
-244.77078
23
73.455025
33
-433.0126
0
3DFACE
8
0
10
-240.01561
20
75.0
30
-433.0127
11
-244.77089
21
73.454926
31
-433.0127
12
-244.0607
22
72.061066
32
-433.0127
13
-244.0606
23
72.061165
33
-433.0126
0
3DFACE
8
0
10
-240.01561
20
75.0
30
-433.0127
11
-244.0607
21
72.061066
31
-433.0127
12
-242.95454
22
70.954926
32
-433.0127
13
-242.95444
23
70.955025
33
-433.0126
0
3DFACE
8
0
10
-240.01561
20
75.0
30
-433.0127
11
-242.95454
21
70.954926
31
-433.0127
12
-241.5607
22
70.24472
32
-433.0127
13
-241.5606
23
70.24482
33
-433.0126
0
3DFACE
8
0
10
-240.01561
20
75.0
30
-433.0127
11
-241.5607
21
70.24472
31
-433.0127
12
-240.01561
22
70.0
32
-433.0127
13
-240.0155
23
70.0001
33
-433.0126
0
3DFACE
8
0
10
-240.01561
20
75.0
30
-433.0127
11
-240.01561
21
70.0
31
-433.0127
12
-238.47052
22
70.24472
32
-433.0127
13
-238.47041
23
70.24482
33
-433.0126
0
3DFACE
8
0
10
-240.01561
20
75.0
30
-433.0127
11
-238.47052
21
70.24472
31
-433.0127
12
-237.07669
22
70.954926
32
-433.0127
13
-237.07658
23
70.955025
33
-433.0126
0
3DFACE
8
0
10
-240.01561
20
75.0
30
-433.0127
11
-237.07669
21
70.954926
31
-433.0127
12
-235.97052
22
72.061066
32
-433.0127
13
-235.97041
23
72.061165
33
-433.0126
0
3DFACE
8
0
10
-240.01561
20
75.0
30
-433.0127
11
-235.97052
21
72.061066
31
-433.0127
12
-235.26033
22
73.454926
32
-433.0127
13
-235.26022
23
73.455025
33
-433.0126
0
3DFACE
8
0
10
-240.01561
20
75.0
30
-433.0127
11
-235.26033
21
73.454926
31
-433.0127
12
-235.01561
22
75.0
32
-433.0127
13
-235.0155
23
75.0001
33
-433.0126
0
3DFACE
8
0
10
-270.0
20
45.015594
30
-433.0127
11
-265.0
21
45.015594
31
-433.0127
12
-265.24472
22
46.56067
32
-433.0127
13
-265.24463
23
46.56077
33
-433.0126
0
3DFACE
8
0
10
-270.0
20
45.015594
30
-433.0127
11
-265.24472
21
46.56067
31
-433.0127
12
-265.9549
22
47.95453
32
-433.0127
13
-265.9548
23
47.954628
33
-433.0126
0
3DFACE
8
0
10
-270.0
20
45.015594
30
-433.0127
11
-265.9549
21
47.95453
31
-433.0127
12
-267.0611
22
49.06067
32
-433.0127
13
-267.061
23
49.06077
33
-433.0126
0
3DFACE
8
0
10
-270.0
20
45.015594
30
-433.0127
11
-267.0611
21
49.06067
31
-433.0127
12
-268.4549
22
49.770874
32
-433.0127
13
-268.4548
23
49.770973
33
-433.0126
0
3DFACE
8
0
10
-270.0
20
45.015594
30
-433.0127
11
-268.4549
21
49.770874
31
-433.0127
12
-270.0
22
50.015594
32
-433.0127
13
-269.9999
23
50.015694
33
-433.0126
0
3DFACE
8
0
10
-270.0
20
45.015594
30
-433.0127
11
-270.0
21
50.015594
31
-433.0127
12
-271.5451
22
49.770874
32
-433.0127
13
-271.545
23
49.770973
33
-433.0126
0
3DFACE
8
0
10
-270.0
20
45.015594
30
-433.0127
11
-271.5451
21
49.770874
31
-433.0127
12
-272.93893
22
49.06067
32
-433.0127
13
-272.93884
23
49.06077
33
-433.0126
0
3DFACE
8
0
10
-270.0
20
45.015594
30
-433.0127
11
-272.93893
21
49.06067
31
-433.0127
12
-274.04507
22
47.95453
32
-433.0127
13
-274.04498
23
47.954628
33
-433.0126
0
3DFACE
8
0
10
-270.0
20
45.015594
30
-433.0127
11
-274.04507
21
47.95453
31
-433.0127
12
-274.75528
22
46.56067
32
-433.0127
13
-274.7552
23
46.56077
33
-433.0126
0
3DFACE
8
0
10
-270.0
20
45.015594
30
-433.0127
11
-274.75528
21
46.56067
31
-433.0127
12
-275.0
22
45.015594
32
-433.0127
13
-274.9999
23
45.015694
33
-433.0126
0
3DFACE
8
0
10
-270.0
20
45.015594
30
-433.0127
11
-275.0
21
45.015594
31
-433.0127
12
-274.75528
22
43.47052
32
-433.0127
13
-274.7552
23
43.47062
33
-433.0126
0
3DFACE
8
0
10
-270.0
20
45.015594
30
-433.0127
11
-274.75528
21
43.47052
31
-433.0127
12
-274.04507
22
42.07666
32
-433.0127
13
-274.04498
23
42.07676
33
-433.0126
0
3DFACE
8
0
10
-270.0
20
45.015594
30
-433.0127
11
-274.04507
21
42.07666
31
-433.0127
12
-272.93893
22
40.97052
32
-433.0127
13
-272.93884
23
40.97062
33
-433.0126
0
3DFACE
8
0
10
-270.0
20
45.015594
30
-433.0127
11
-272.93893
21
40.97052
31
-433.0127
12
-271.5451
22
40.260315
32
-433.0127
13
-271.545
23
40.260414
33
-433.0126
0
3DFACE
8
0
10
-270.0
20
45.015594
30
-433.0127
11
-271.5451
21
40.260315
31
-433.0127
12
-270.0
22
40.015594
32
-433.0127
13
-269.9999
23
40.015694
33
-433.0126
0
3DFACE
8
0
10
-270.0
20
45.015594
30
-433.0127
11
-270.0
21
40.015594
31
-433.0127
12
-268.4549
22
40.260315
32
-433.0127
13
-268.4548
23
40.260414
33
-433.0126
0
3DFACE
8
0
10
-270.0
20
45.015594
30
-433.0127
11
-268.4549
21
40.260315
31
-433.0127
12
-267.0611
22
40.97052
32
-433.0127
13
-267.061
23
40.97062
33
-433.0126
0
3DFACE
8
0
10
-270.0
20
45.015594
30
-433.0127
11
-267.0611
21
40.97052
31
-433.0127
12
-265.9549
22
42.07666
32
-433.0127
13
-265.9548
23
42.07676
33
-433.0126
0
3DFACE
8
0
10
-270.0
20
45.015594
30
-433.0127
11
-265.9549
21
42.07666
31
-433.0127
12
-265.24472
22
43.47052
32
-433.0127
13
-265.24463
23
43.47062
33
-433.0126
0
3DFACE
8
0
10
-270.0
20
45.015594
30
-433.0127
11
-265.24472
21
43.47052
31
-433.0127
12
-265.0
22
45.015594
32
-433.0127
13
-264.9999
23
45.015694
33
-433.0126
0
3DFACE
8
0
10
-140.0
20
104.984406
30
-433.0127
11
-135.0
21
104.984406
31
-433.0127
12
-135.24472
22
106.52948
32
-433.0127
13
-135.24461
23
106.52958
33
-433.0126
0
3DFACE
8
0
10
-140.0
20
104.984406
30
-433.0127
11
-135.24472
21
106.52948
31
-433.0127
12
-135.95493
22
107.92334
32
-433.0127
13
-135.95482
23
107.92344
33
-433.0126
0
3DFACE
8
0
10
-140.0
20
104.984406
30
-433.0127
11
-135.95493
21
107.92334
31
-433.0127
12
-137.06107
22
109.02948
32
-433.0127
13
-137.06096
23
109.02958
33
-433.0126
0
3DFACE
8
0
10
-140.0
20
104.984406
30
-433.0127
11
-137.06107
21
109.02948
31
-433.0127
12
-138.45493
22
109.739685
32
-433.0127
13
-138.45482
23
109.739784
33
-433.0126
0
3DFACE
8
0
10
-140.0
20
104.984406
30
-433.0127
11
-138.45493
21
109.739685
31
-433.0127
12
-140.0
22
109.984406
32
-433.0127
13
-139.9999
23
109.984505
33
-433.0126
0
3DFACE
8
0
10
-140.0
20
104.984406
30
-433.0127
11
-140.0
21
109.984406
31
-433.0127
12
-141.54507
22
109.739685
32
-433.0127
13
-141.54497
23
109.739784
33
-433.0126
0
3DFACE
8
0
10
-140.0
20
104.984406
30
-433.0127
11
-141.54507
21
109.739685
31
-433.0127
12
-142.93893
22
109.02948
32
-433.0127
13
-142.93883
23
109.02958
33
-433.0126
0
3DFACE
8
0
10
-140.0
20
104.984406
30
-433.0127
11
-142.93893
21
109.02948
31
-433.0127
12
-144.04509
22
107.92334
32
-433.0127
13
-144.04498
23
107.92344
33
-433.0126
0
3DFACE
8
0
10
-140.0
20
104.984406
30
-433.0127
11
-144.04509
21
107.92334
31
-433.0127
12
-144.75528
22
106.52948
32
-433.0127
13
-144.75517
23
106.52958
33
-433.0126
0
3DFACE
8
0
10
-140.0
20
104.984406
30
-433.0127
11
-144.75528
21
106.52948
31
-433.0127
12
-145.0
22
104.984406
32
-433.0127
13
-144.9999
23
104.984505
33
-433.0126
0
3DFACE
8
0
10
-140.0
20
104.984406
30
-433.0127
11
-145.0
21
104.984406
31
-433.0127
12
-144.75528
22
103.43933
32
-433.0127
13
-144.75517
23
103.43943
33
-433.0126
0
3DFACE
8
0
10
-140.0
20
104.984406
30
-433.0127
11
-144.75528
21
103.43933
31
-433.0127
12
-144.04509
22
102.04547
32
-433.0127
13
-144.04498
23
102.04557
33
-433.0126
0
3DFACE
8
0
10
-140.0
20
104.984406
30
-433.0127
11
-144.04509
21
102.04547
31
-433.0127
12
-142.93893
22
100.93933
32
-433.0127
13
-142.93883
23
100.93943
33
-433.0126
0
3DFACE
8
0
10
-140.0
20
104.984406
30
-433.0127
11
-142.93893
21
100.93933
31
-433.0127
12
-141.54507
22
100.229126
32
-433.0127
13
-141.54497
23
100.229225
33
-433.0126
0
3DFACE
8
0
10
-140.0
20
104.984406
30
-433.0127
11
-141.54507
21
100.229126
31
-433.0127
12
-140.0
22
99.984406
32
-433.0127
13
-139.9999
23
99.984505
33
-433.0126
0
3DFACE
8
0
10
-140.0
20
104.984406
30
-433.0127
11
-140.0
21
99.984406
31
-433.0127
12
-138.45493
22
100.229126
32
-433.0127
13
-138.45482
23
100.229225
33
-433.0126
0
3DFACE
8
0
10
-140.0
20
104.984406
30
-433.0127
11
-138.45493
21
100.229126
31
-433.0127
12
-137.06107
22
100.93933
32
-433.0127
13
-137.06096
23
100.93943
33
-433.0126
0
3DFACE
8
0
10
-140.0
20
104.984406
30
-433.0127
11
-137.06107
21
100.93933
31
-433.0127
12
-135.95493
22
102.04547
32
-433.0127
13
-135.95482
23
102.04557
33
-433.0126
0
3DFACE
8
0
10
-140.0
20
104.984406
30
-433.0127
11
-135.95493
21
102.04547
31
-433.0127
12
-135.24472
22
103.43933
32
-433.0127
13
-135.24461
23
103.43943
33
-433.0126
0
3DFACE
8
0
10
-140.0
20
104.984406
30
-433.0127
11
-135.24472
21
103.43933
31
-433.0127
12
-135.0
22
104.984406
32
-433.0127
13
-134.9999
23
104.984505
33
-433.0126
0
3DFACE
8
0
10
-169.98439
20
75.0
30
-433.0127
11
-164.98439
21
75.0
31
-433.0127
12
-165.22911
22
76.545074
32
-433.0127
13
-165.229
23
76.54517
33
-433.0126
0
3DFACE
8
0
10
-169.98439
20
75.0
30
-433.0127
11
-165.22911
21
76.545074
31
-433.0127
12
-165.9393
22
77.938934
32
-433.0127
13
-165.9392
23
77.93903
33
-433.0126
0
3DFACE
8
0
10
-169.98439
20
75.0
30
-433.0127
11
-165.9393
21
77.938934
31
-433.0127
12
-167.04547
22
79.045074
32
-433.0127
13
-167.04536
23
79.04517
33
-433.0126
0
3DFACE
8
0
10
-169.98439
20
75.0
30
-433.0127
11
-167.04547
21
79.045074
31
-433.0127
12
-168.4393
22
79.75528
32
-433.0127
13
-168.4392
23
79.75538
33
-433.0126
0
3DFACE
8
0
10
-169.98439
20
75.0
30
-433.0127
11
-168.4393
21
79.75528
31
-433.0127
12
-169.98439
22
80.0
32
-433.0127
13
-169.98428
23
80.0001
33
-433.0126
0
3DFACE
8
0
10
-169.98439
20
75.0
30
-433.0127
11
-169.98439
21
80.0
31
-433.0127
12
-171.52948
22
79.75528
32
-433.0127
13
-171.52937
23
79.75538
33
-433.0126
0
3DFACE
8
0
10
-169.98439
20
75.0
30
-433.0127
11
-171.52948
21
79.75528
31
-433.0127
12
-172.92331
22
79.045074
32
-433.0127
13
-172.9232
23
79.04517
33
-433.0126
0
3DFACE
8
0
10
-169.98439
20
75.0
30
-433.0127
11
-172.92331
21
79.045074
31
-433.0127
12
-174.02948
22
77.938934
32
-433.0127
13
-174.02937
23
77.93903
33
-433.0126
0
3DFACE
8
0
10
-169.98439
20
75.0
30
-433.0127
11
-174.02948
21
77.938934
31
-433.0127
12
-174.73967
22
76.545074
32
-433.0127
13
-174.73956
23
76.54517
33
-433.0126
0
3DFACE
8
0
10
-169.98439
20
75.0
30
-433.0127
11
-174.73967
21
76.545074
31
-433.0127
12
-174.98439
22
75.0
32
-433.0127
13
-174.98428
23
75.0001
33
-433.0126
0
3DFACE
8
0
10
-169.98439
20
75.0
30
-433.0127
11
-174.98439
21
75.0
31
-433.0127
12
-174.73967
22
73.454926
32
-433.0127
13
-174.73956
23
73.455025
33
-433.0126
0
3DFACE
8
0
10
-169.98439
20
75.0
30
-433.0127
11
-174.73967
21
73.454926
31
-433.0127
12
-174.02948
22
72.061066
32
-433.0127
13
-174.02937
23
72.061165
33
-433.0126
0
3DFACE
8
0
10
-169.98439
20
75.0
30
-433.0127
11
-174.02948
21
72.061066
31
-433.0127
12
-172.92332
22
70.954926
32
-433.0127
13
-172.92322
23
70.955025
33
-433.0126
0
3DFACE
8
0
10
-169.98439
20
75.0
30
-433.0127
11
-172.92332
21
70.954926
31
-433.0127
12
-171.52948
22
70.24472
32
-433.0127
13
-171.52937
23
70.24482
33
-433.0126
0
3DFACE
8
0
10
-169.98439
20
75.0
30
-433.0127
11
-171.52948
21
70.24472
31
-433.0127
12
-169.98439
22
70.0
32
-433.0127
13
-169.98428
23
70.0001
33
-433.0126
0
3DFACE
8
0
10
-169.98439
20
75.0
30
-433.0127
11
-169.98439
21
70.0
31
-433.0127
12
-168.4393
22
70.24472
32
-433.0127
13
-168.4392
23
70.24482
33
-433.0126
0
3DFACE
8
0
10
-169.98439
20
75.0
30
-433.0127
11
-168.4393
21
70.24472
31
-433.0127
12
-167.04547
22
70.954926
32
-433.0127
13
-167.04536
23
70.955025
33
-433.0126
0
3DFACE
8
0
10
-169.98439
20
75.0
30
-433.0127
11
-167.04547
21
70.954926
31
-433.0127
12
-165.9393
22
72.061066
32
-433.0127
13
-165.9392
23
72.061165
33
-433.0126
0
3DFACE
8
0
10
-169.98439
20
75.0
30
-433.0127
11
-165.9393
21
72.061066
31
-433.0127
12
-165.22911
22
73.454926
32
-433.0127
13
-165.229
23
73.455025
33
-433.0126
0
3DFACE
8
0
10
-169.98439
20
75.0
30
-433.0127
11
-165.22911
21
73.454926
31
-433.0127
12
-164.98439
22
75.0
32
-433.0127
13
-164.98428
23
75.0001
33
-433.0126
0
3DFACE
8
0
10
-169.98439
20
205.0
30
-433.0127
11
-164.98439
21
205.0
31
-433.0127
12
-165.22911
22
206.54507
32
-433.0127
13
-165.229
23
206.54518
33
-433.0126
0
3DFACE
8
0
10
-169.98439
20
205.0
30
-433.0127
11
-165.22911
21
206.54507
31
-433.0127
12
-165.9393
22
207.93893
32
-433.0127
13
-165.9392
23
207.93904
33
-433.0126
0
3DFACE
8
0
10
-169.98439
20
205.0
30
-433.0127
11
-165.9393
21
207.93893
31
-433.0127
12
-167.04547
22
209.04507
32
-433.0127
13
-167.04536
23
209.04518
33
-433.0126
0
3DFACE
8
0
10
-169.98439
20
205.0
30
-433.0127
11
-167.04547
21
209.04507
31
-433.0127
12
-168.4393
22
209.75528
32
-433.0127
13
-168.4392
23
209.75539
33
-433.0126
0
3DFACE
8
0
10
-169.98439
20
205.0
30
-433.0127
11
-168.4393
21
209.75528
31
-433.0127
12
-169.98439
22
210.0
32
-433.0127
13
-169.98428
23
210.0001
33
-433.0126
0
3DFACE
8
0
10
-169.98439
20
205.0
30
-433.0127
11
-169.98439
21
210.0
31
-433.0127
12
-171.52948
22
209.75528
32
-433.0127
13
-171.52937
23
209.75539
33
-433.0126
0
3DFACE
8
0
10
-169.98439
20
205.0
30
-433.0127
11
-171.52948
21
209.75528
31
-433.0127
12
-172.92331
22
209.04507
32
-433.0127
13
-172.9232
23
209.04518
33
-433.0126
0
3DFACE
8
0
10
-169.98439
20
205.0
30
-433.0127
11
-172.92331
21
209.04507
31
-433.0127
12
-174.02948
22
207.93893
32
-433.0127
13
-174.02937
23
207.93904
33
-433.0126
0
3DFACE
8
0
10
-169.98439
20
205.0
30
-433.0127
11
-174.02948
21
207.93893
31
-433.0127
12
-174.73967
22
206.54507
32
-433.0127
13
-174.73956
23
206.54518
33
-433.0126
0
3DFACE
8
0
10
-169.98439
20
205.0
30
-433.0127
11
-174.73967
21
206.54507
31
-433.0127
12
-174.98439
22
205.0
32
-433.0127
13
-174.98428
23
205.0001
33
-433.0126
0
3DFACE
8
0
10
-169.98439
20
205.0
30
-433.0127
11
-174.98439
21
205.0
31
-433.0127
12
-174.73967
22
203.45493
32
-433.0127
13
-174.73956
23
203.45503
33
-433.0126
0
3DFACE
8
0
10
-169.98439
20
205.0
30
-433.0127
11
-174.73967
21
203.45493
31
-433.0127
12
-174.02948
22
202.06107
32
-433.0127
13
-174.02937
23
202.06117
33
-433.0126
0
3DFACE
8
0
10
-169.98439
20
205.0
30
-433.0127
11
-174.02948
21
202.06107
31
-433.0127
12
-172.92332
22
200.95493
32
-433.0127
13
-172.92322
23
200.95503
33
-433.0126
0
3DFACE
8
0
10
-169.98439
20
205.0
30
-433.0127
11
-172.92332
21
200.95493
31
-433.0127
12
-171.52948
22
200.24472
32
-433.0127
13
-171.52937
23
200.24483
33
-433.0126
0
3DFACE
8
0
10
-169.98439
20
205.0
30
-433.0127
11
-171.52948
21
200.24472
31
-433.0127
12
-169.98439
22
200.0
32
-433.0127
13
-169.98428
23
200.0001
33
-433.0126
0
3DFACE
8
0
10
-169.98439
20
205.0
30
-433.0127
11
-169.98439
21
200.0
31
-433.0127
12
-168.4393
22
200.24472
32
-433.0127
13
-168.4392
23
200.24483
33
-433.0126
0
3DFACE
8
0
10
-169.98439
20
205.0
30
-433.0127
11
-168.4393
21
200.24472
31
-433.0127
12
-167.04547
22
200.95493
32
-433.0127
13
-167.04536
23
200.95503
33
-433.0126
0
3DFACE
8
0
10
-169.98439
20
205.0
30
-433.0127
11
-167.04547
21
200.95493
31
-433.0127
12
-165.9393
22
202.06107
32
-433.0127
13
-165.9392
23
202.06117
33
-433.0126
0
3DFACE
8
0
10
-169.98439
20
205.0
30
-433.0127
11
-165.9393
21
202.06107
31
-433.0127
12
-165.22911
22
203.45493
32
-433.0127
13
-165.229
23
203.45503
33
-433.0126
0
3DFACE
8
0
10
-169.98439
20
205.0
30
-433.0127
11
-165.22911
21
203.45493
31
-433.0127
12
-164.98439
22
205.0
32
-433.0127
13
-164.98428
23
205.0001
33
-433.0126
0
3DFACE
8
0
10
-140.0
20
175.0156
30
-433.0127
11
-135.0
21
175.0156
31
-433.0127
12
-135.24472
22
176.56067
32
-433.0127
13
-135.24461
23
176.56078
33
-433.0126
0
3DFACE
8
0
10
-140.0
20
175.0156
30
-433.0127
11
-135.24472
21
176.56067
31
-433.0127
12
-135.95493
22
177.95453
32
-433.0127
13
-135.95482
23
177.95464
33
-433.0126
0
3DFACE
8
0
10
-140.0
20
175.0156
30
-433.0127
11
-135.95493
21
177.95453
31
-433.0127
12
-137.06107
22
179.06067
32
-433.0127
13
-137.06096
23
179.06078
33
-433.0126
0
3DFACE
8
0
10
-140.0
20
175.0156
30
-433.0127
11
-137.06107
21
179.06067
31
-433.0127
12
-138.45493
22
179.77087
32
-433.0127
13
-138.45482
23
179.77098
33
-433.0126
0
3DFACE
8
0
10
-140.0
20
175.0156
30
-433.0127
11
-138.45493
21
179.77087
31
-433.0127
12
-140.0
22
180.0156
32
-433.0127
13
-139.9999
23
180.0157
33
-433.0126
0
3DFACE
8
0
10
-140.0
20
175.0156
30
-433.0127
11
-140.0
21
180.0156
31
-433.0127
12
-141.54507
22
179.77087
32
-433.0127
13
-141.54497
23
179.77098
33
-433.0126
0
3DFACE
8
0
10
-140.0
20
175.0156
30
-433.0127
11
-141.54507
21
179.77087
31
-433.0127
12
-142.93893
22
179.06067
32
-433.0127
13
-142.93883
23
179.06078
33
-433.0126
0
3DFACE
8
0
10
-140.0
20
175.0156
30
-433.0127
11
-142.93893
21
179.06067
31
-433.0127
12
-144.04509
22
177.95453
32
-433.0127
13
-144.04498
23
177.95464
33
-433.0126
0
3DFACE
8
0
10
-140.0
20
175.0156
30
-433.0127
11
-144.04509
21
177.95453
31
-433.0127
12
-144.75528
22
176.56067
32
-433.0127
13
-144.75517
23
176.56078
33
-433.0126
0
3DFACE
8
0
10
-140.0
20
175.0156
30
-433.0127
11
-144.75528
21
176.56067
31
-433.0127
12
-145.0
22
175.0156
32
-433.0127
13
-144.9999
23
175.0157
33
-433.0126
0
3DFACE
8
0
10
-140.0
20
175.0156
30
-433.0127
11
-145.0
21
175.0156
31
-433.0127
12
-144.75528
22
173.47052
32
-433.0127
13
-144.75517
23
173.47063
33
-433.0126
0
3DFACE
8
0
10
-140.0
20
175.0156
30
-433.0127
11
-144.75528
21
173.47052
31
-433.0127
12
-144.04509
22
172.07666
32
-433.0127
13
-144.04498
23
172.07677
33
-433.0126
0
3DFACE
8
0
10
-140.0
20
175.0156
30
-433.0127
11
-144.04509
21
172.07666
31
-433.0127
12
-142.93893
22
170.97052
32
-433.0127
13
-142.93883
23
170.97063
33
-433.0126
0
3DFACE
8
0
10
-140.0
20
175.0156
30
-433.0127
11
-142.93893
21
170.97052
31
-433.0127
12
-141.54507
22
170.26031
32
-433.0127
13
-141.54497
23
170.26042
33
-433.0126
0
3DFACE
8
0
10
-140.0
20
175.0156
30
-433.0127
11
-141.54507
21
170.26031
31
-433.0127
12
-140.0
22
170.0156
32
-433.0127
13
-139.9999
23
170.0157
33
-433.0126
0
3DFACE
8
0
10
-140.0
20
175.0156
30
-433.0127
11
-140.0
21
170.0156
31
-433.0127
12
-138.45493
22
170.26031
32
-433.0127
13
-138.45482
23
170.26042
33
-433.0126
0
3DFACE
8
0
10
-140.0
20
175.0156
30
-433.0127
11
-138.45493
21
170.26031
31
-433.0127
12
-137.06107
22
170.97052
32
-433.0127
13
-137.06096
23
170.97063
33
-433.0126
0
3DFACE
8
0
10
-140.0
20
175.0156
30
-433.0127
11
-137.06107
21
170.97052
31
-433.0127
12
-135.95493
22
172.07666
32
-433.0127
13
-135.95482
23
172.07677
33
-433.0126
0
3DFACE
8
0
10
-140.0
20
175.0156
30
-433.0127
11
-135.95493
21
172.07666
31
-433.0127
12
-135.24472
22
173.47052
32
-433.0127
13
-135.24461
23
173.47063
33
-433.0126
0
3DFACE
8
0
10
-140.0
20
175.0156
30
-433.0127
11
-135.24472
21
173.47052
31
-433.0127
12
-135.0
22
175.0156
32
-433.0127
13
-134.9999
23
175.0157
33
-433.0126
0
LINE
8
0
10
380.0
20
140.0
30
-433.0127
11
380.0
21
205.0
31
-433.0127
0
LINE
8
0
10
370.0
20
140.0
30
-433.0127
11
370.0
21
205.0
31
-433.0127
0
LINE
8
0
10
390.0
20
140.0
30
-433.0127
11
390.0
21
205.0
31
-433.0127
0
LINE
8
0
10
315.0
20
75.0
30
-433.0127
11
320.2115
21
75.22177
31
-433.0127
0
LINE
8
0
10
320.2115
20
75.22177
30
-433.0127
11
325.3288
21
75.87457
31
-433.0127
0
LINE
8
0
10
325.3288
20
75.87457
30
-433.0127
11
330.3332
21
76.93973
31
-433.0127
0
LINE
8
0
10
330.3332
20
76.93973
30
-433.0127
11
335.206
21
78.3985
31
-433.0127
0
LINE
8
0
10
335.206
20
78.3985
30
-433.0127
11
339.92847
21
80.23218
31
-433.0127
0
LINE
8
0
10
339.92847
20
80.23218
30
-433.0127
11
344.48193
21
82.42206
31
-433.0127
0
LINE
8
0
10
344.48193
20
82.42206
30
-433.0127
11
348.8476
21
84.9494
31
-433.0127
0
LINE
8
0
10
348.8476
20
84.9494
30
-433.0127
11
353.00677
21
87.7955
31
-433.0127
0
LINE
8
0
10
353.00677
20
87.7955
30
-433.0127
11
356.9408
21
90.94165
31
-433.0127
0
LINE
8
0
10
356.9408
20
90.94165
30
-433.0127
11
360.63092
21
94.36914
31
-433.0127
0
LINE
8
0
10
360.63092
20
94.36914
30
-433.0127
11
364.0584
21
98.059265
31
-433.0127
0
LINE
8
0
10
364.0584
20
98.059265
30
-433.0127
11
367.2046
21
101.993286
31
-433.0127
0
LINE
8
0
10
367.2046
20
101.993286
30
-433.0127
11
370.05072
21
106.1525
31
-433.0127
0
LINE
8
0
10
370.05072
20
106.1525
30
-433.0127
11
372.57806
21
110.51816
31
-433.0127
0
LINE
8
0
10
372.57806
20
110.51816
30
-433.0127
11
374.76794
21
115.071594
31
-433.0127
0
LINE
8
0
10
374.76794
20
115.071594
30
-433.0127
11
376.60162
21
119.79407
31
-433.0127
0
LINE
8
0
10
376.60162
20
119.79407
30
-433.0127
11
378.06042
21
124.66687
31
-433.0127
0
LINE
8
0
10
378.06042
20
124.66687
30
-433.0127
11
379.1256
21
129.6713
31
-433.0127
0
LINE
8
0
10
379.1256
20
129.6713
30
-433.0127
11
379.77844
21
134.7886
31
-433.0127
0
LINE
8
0
10
379.77844
20
134.7886
30
-433.0127
11
380.00024
21
140.00009
31
-433.0127
0
LINE
8
0
10
185.0
20
75.0
30
-433.0127
11
315.0
21
75.0
31
-433.0127
0
LINE
8
0
10
185.0
20
65.0
30
-433.0127
11
315.0
21
65.0
31
-433.0127
0
LINE
8
0
10
185.0
20
85.0
30
-433.0127
11
315.0
21
85.0
31
-433.0127
0
LINE
8
0
10
185.0
20
140.0
30
-433.0127
11
178.91998
21
139.52875
31
-433.0127
0
LINE
8
0
10
178.91998
20
139.52875
30
-433.0127
11
173.47998
21
138.18
31
-433.0127
0
LINE
8
0
10
173.47998
20
138.18
30
-433.0127
11
168.68
21
136.05124
31
-433.0127
0
LINE
8
0
10
168.68
20
136.05124
30
-433.0127
11
164.52002
21
133.23999
31
-433.0127
0
LINE
8
0
10
164.52002
20
133.23999
30
-433.0127
11
161.0
21
129.84375
31
-433.0127
0
LINE
8
0
10
161.0
20
129.84375
30
-433.0127
11
158.12
21
125.95999
31
-433.0127
0
LINE
8
0
10
158.12
20
125.95999
30
-433.0127
11
155.88
21
121.68625
31
-433.0127
0
LINE
8
0
10
155.88
20
121.68625
30
-433.0127
11
154.28003
21
117.119995
31
-433.0127
0
LINE
8
0
10
154.28003
20
117.119995
30
-433.0127
11
153.32
21
112.358734
31
-433.0127
0
LINE
8
0
10
153.32
20
112.358734
30
-433.0127
11
153.0
21
107.5
31
-433.0127
0
LINE
8
0
10
153.0
20
107.5
30
-433.0127
11
153.32
21
102.641266
31
-433.0127
0
LINE
8
0
10
153.32
20
102.641266
30
-433.0127
11
154.28003
21
97.880005
31
-433.0127
0
LINE
8
0
10
154.28003
20
97.880005
30
-433.0127
11
155.88
21
93.31375
31
-433.0127
0
LINE
8
0
10
155.88
20
93.31375
30
-433.0127
11
158.12
21
89.04001
31
-433.0127
0
LINE
8
0
10
158.12
20
89.04001
30
-433.0127
11
161.0
21
85.15625
31
-433.0127
0
LINE
8
0
10
161.0
20
85.15625
30
-433.0127
11
164.52002
21
81.76001
31
-433.0127
0
LINE
8
0
10
164.52002
20
81.76001
30
-433.0127
11
168.68005
21
78.94876
31
-433.0127
0
LINE
8
0
10
168.68005
20
78.94876
30
-433.0127
11
173.48004
21
76.82001
31
-433.0127
0
LINE
8
0
10
173.48004
20
76.82001
30
-433.0127
11
178.92004
21
75.47125
31
-433.0127
0
LINE
8
0
10
178.92004
20
75.47125
30
-433.0127
11
185.00006
21
75.0
31
-433.0127
0
LINE
8
0
10
185.0
20
130.0
30
-433.0127
11
180.82
21
129.67377
31
-433.0127
0
LINE
8
0
10
180.82
20
129.67377
30
-433.0127
11
177.08002
21
128.74002
31
-433.0127
0
LINE
8
0
10
177.08002
20
128.74002
30
-433.0127
11
173.78003
21
127.266266
31
-433.0127
0
LINE
8
0
10
173.78003
20
127.266266
30
-433.0127
11
170.92004
21
125.32001
31
-433.0127
0
LINE
8
0
10
170.92004
20
125.32001
30
-433.0127
11
168.50006
21
122.96875
31
-433.0127
0
LINE
8
0
10
168.50006
20
122.96875
30
-433.0127
11
166.52008
21
120.28
31
-433.0127
0
LINE
8
0
10
166.52008
20
120.28
30
-433.0127
11
164.9801
21
117.32126
31
-433.0127
0
LINE
8
0
10
164.9801
20
117.32126
30
-433.0127
11
163.88013
21
114.16
31
-433.0127
0
LINE
8
0
10
163.88013
20
114.16
30
-433.0127
11
163.22015
21
110.86377
31
-433.0127
0
LINE
8
0
10
163.22015
20
110.86377
30
-433.0127
11
163.00012
21
107.50003
31
-433.0127
0
LINE
8
0
10
163.00012
20
107.50003
30
-433.0127
11
163.2201
21
104.13629
31
-433.0127
0
LINE
8
0
10
163.2201
20
104.13629
30
-433.0127
11
163.88007
21
100.84006
31
-433.0127
0
LINE
8
0
10
163.88007
20
100.84006
30
-433.0127
11
164.98004
21
97.6788
31
-433.0127
0
LINE
8
0
10
164.98004
20
97.6788
30
-433.0127
11
166.52002
21
94.72006
31
-433.0127
0
LINE
8
0
10
166.52002
20
94.72006
30
-433.0127
11
168.5
21
92.03131
31
-433.0127
0
LINE
8
0
10
168.5
20
92.03131
30
-433.0127
11
170.91998
21
89.680084
31
-433.0127
0
LINE
8
0
10
170.91998
20
89.680084
30
-433.0127
11
173.77997
21
87.73386
31
-433.0127
0
LINE
8
0
10
173.77997
20
87.73386
30
-433.0127
11
177.07996
21
86.2601
31
-433.0127
0
LINE
8
0
10
177.07996
20
86.2601
30
-433.0127
11
180.81995
21
85.326355
31
-433.0127
0
LINE
8
0
10
180.81995
20
85.326355
30
-433.0127
11
184.99994
21
85.00012
31
-433.0127
0
LINE
8
0
10
185.0
20
150.0
30
-433.0127
11
177.02002
21
149.38376
31
-433.0127
0
LINE
8
0
10
177.02002
20
149.38376
30
-433.0127
11
169.88
21
147.62
31
-433.0127
0
LINE
8
0
10
169.88
20
147.62
30
-433.0127
11
163.58002
21
144.83624
31
-433.0127
0
LINE
8
0
10
163.58002
20
144.83624
30
-433.0127
11
158.12
21
141.16
31
-433.0127
0
LINE
8
0
10
158.12
20
141.16
30
-433.0127
11
153.5
21
136.71875
31
-433.0127
0
LINE
8
0
10
153.5
20
136.71875
30
-433.0127
11
149.71997
21
131.64001
31
-433.0127
0
LINE
8
0
10
149.71997
20
131.64001
30
-433.0127
11
146.77997
21
126.05127
31
-433.0127
0
LINE
8
0
10
146.77997
20
126.05127
30
-433.0127
11
144.68
21
120.08002
31
-433.0127
0
LINE
8
0
10
144.68
20
120.08002
30
-433.0127
11
143.41998
21
113.85376
31
-433.0127
0
LINE
8
0
10
143.41998
20
113.85376
30
-433.0127
11
143.0
21
107.5
31
-433.0127
0
LINE
8
0
10
143.0
20
107.5
30
-433.0127
11
143.41998
21
101.14624
31
-433.0127
0
LINE
8
0
10
143.41998
20
101.14624
30
-433.0127
11
144.68
21
94.91998
31
-433.0127
0
LINE
8
0
10
144.68
20
94.91998
30
-433.0127
11
146.77997
21
88.94873
31
-433.0127
0
LINE
8
0
10
146.77997
20
88.94873
30
-433.0127
11
149.71997
21
83.359985
31
-433.0127
0
LINE
8
0
10
149.71997
20
83.359985
30
-433.0127
11
153.5
21
78.28125
31
-433.0127
0
LINE
8
0
10
153.5
20
78.28125
30
-433.0127
11
158.12
21
73.84
31
-433.0127
0
LINE
8
0
10
158.12
20
73.84
30
-433.0127
11
163.58002
21
70.16376
31
-433.0127
0
LINE
8
0
10
163.58002
20
70.16376
30
-433.0127
11
169.88
21
67.380005
31
-433.0127
0
LINE
8
0
10
169.88
20
67.380005
30
-433.0127
11
177.02002
21
65.61624
31
-433.0127
0
LINE
8
0
10
177.02002
20
65.61624
30
-433.0127
11
185.0
21
65.0
31
-433.0127
0
LINE
8
0
10
250.0
20
140.0
30
-433.0127
11
185.0
21
140.0
31
-433.0127
0
LINE
8
0
10
250.0
20
130.0
30
-433.0127
11
185.0
21
130.0
31
-433.0127
0
LINE
8
0
10
250.0
20
150.0
30
-433.0127
11
185.0
21
150.0
31
-433.0127
0
LINE
8
0
10
250.0
20
205.0
30
-433.0127
11
256.08002
21
204.52875
31
-433.0127
0
LINE
8
0
10
256.08002
20
204.52875
30
-433.0127
11
261.52002
21
203.18
31
-433.0127
0
LINE
8
0
10
261.52002
20
203.18
30
-433.0127
11
266.32
21
201.05124
31
-433.0127
0
LINE
8
0
10
266.32
20
201.05124
30
-433.0127
11
270.48004
21
198.23999
31
-433.0127
0
LINE
8
0
10
270.48004
20
198.23999
30
-433.0127
11
274.00006
21
194.84375
31
-433.0127
0
LINE
8
0
10
274.00006
20
194.84375
30
-433.0127
11
276.88007
21
190.95999
31
-433.0127
0
LINE
8
0
10
276.88007
20
190.95999
30
-433.0127
11
279.12006
21
186.68625
31
-433.0127
0
LINE
8
0
10
279.12006
20
186.68625
30
-433.0127
11
280.7201
21
182.12
31
-433.0127
0
LINE
8
0
10
280.7201
20
182.12
30
-433.0127
11
281.6801
21
177.35873
31
-433.0127
0
LINE
8
0
10
281.6801
20
177.35873
30
-433.0127
11
282.00012
21
172.5
31
-433.0127
0
LINE
8
0
10
282.00012
20
172.5
30
-433.0127
11
281.6801
21
167.64127
31
-433.0127
0
LINE
8
0
10
281.6801
20
167.64127
30
-433.0127
11
280.72015
21
162.88
31
-433.0127
0
LINE
8
0
10
280.72015
20
162.88
30
-433.0127
11
279.12018
21
158.31375
31
-433.0127
0
LINE
8
0
10
279.12018
20
158.31375
30
-433.0127
11
276.8802
21
154.04001
31
-433.0127
0
LINE
8
0
10
276.8802
20
154.04001
30
-433.0127
11
274.00018
21
150.15625
31
-433.0127
0
LINE
8
0
10
274.00018
20
150.15625
30
-433.0127
11
270.48022
21
146.76001
31
-433.0127
0
LINE
8
0
10
270.48022
20
146.76001
30
-433.0127
11
266.32025
21
143.94876
31
-433.0127
0
LINE
8
0
10
266.32025
20
143.94876
30
-433.0127
11
261.52026
21
141.82
31
-433.0127
0
LINE
8
0
10
261.52026
20
141.82
30
-433.0127
11
256.08026
21
140.47125
31
-433.0127
0
LINE
8
0
10
256.08026
20
140.47125
30
-433.0127
11
250.0003
21
140.0
31
-433.0127
0
LINE
8
0
10
250.0
20
195.0
30
-433.0127
11
254.18
21
194.67374
31
-433.0127
0
LINE
8
0
10
254.18
20
194.67374
30
-433.0127
11
257.91998
21
193.73999
31
-433.0127
0
LINE
8
0
10
257.91998
20
193.73999
30
-433.0127
11
261.21997
21
192.26624
31
-433.0127
0
LINE
8
0
10
261.21997
20
192.26624
30
-433.0127
11
264.07996
21
190.31998
31
-433.0127
0
LINE
8
0
10
264.07996
20
190.31998
30
-433.0127
11
266.49994
21
187.96872
31
-433.0127
0
LINE
8
0
10
266.49994
20
187.96872
30
-433.0127
11
268.47992
21
185.27997
31
-433.0127
0
LINE
8
0
10
268.47992
20
185.27997
30
-433.0127
11
270.0199
21
182.32123
31
-433.0127
0
LINE
8
0
10
270.0199
20
182.32123
30
-433.0127
11
271.11993
21
179.15997
31
-433.0127
0
LINE
8
0
10
271.11993
20
179.15997
30
-433.0127
11
271.77997
21
175.86374
31
-433.0127
0
LINE
8
0
10
271.77997
20
175.86374
30
-433.0127
11
272.0
21
172.5
31
-433.0127
0
LINE
8
0
10
272.0
20
172.5
30
-433.0127
11
271.78003
21
169.13626
31
-433.0127
0
LINE
8
0
10
271.78003
20
169.13626
30
-433.0127
11
271.12006
21
165.84003
31
-433.0127
0
LINE
8
0
10
271.12006
20
165.84003
30
-433.0127
11
270.02008
21
162.67877
31
-433.0127
0
LINE
8
0
10
270.02008
20
162.67877
30
-433.0127
11
268.4801
21
159.72003
31
-433.0127
0
LINE
8
0
10
268.4801
20
159.72003
30
-433.0127
11
266.50012
21
157.03128
31
-433.0127
0
LINE
8
0
10
266.50012
20
157.03128
30
-433.0127
11
264.08014
21
154.68002
31
-433.0127
0
LINE
8
0
10
264.08014
20
154.68002
30
-433.0127
11
261.22015
21
152.73376
31
-433.0127
0
LINE
8
0
10
261.22015
20
152.73376
30
-433.0127
11
257.92017
21
151.26001
31
-433.0127
0
LINE
8
0
10
257.92017
20
151.26001
30
-433.0127
11
254.18018
21
150.32626
31
-433.0127
0
LINE
8
0
10
254.18018
20
150.32626
30
-433.0127
11
250.00018
21
150.00003
31
-433.0127
0
LINE
8
0
10
250.0
20
215.0
30
-433.0127
11
257.97998
21
214.38376
31
-433.0127
0
LINE
8
0
10
257.97998
20
214.38376
30
-433.0127
11
265.12
21
212.62003
31
-433.0127
0
LINE
8
0
10
265.12
20
212.62003
30
-433.0127
11
271.41998
21
209.83627
31
-433.0127
0
LINE
8
0
10
271.41998
20
209.83627
30
-433.0127
11
276.88
21
206.16003
31
-433.0127
0
LINE
8
0
10
276.88
20
206.16003
30
-433.0127
11
281.5
21
201.71878
31
-433.0127
0
LINE
8
0
10
281.5
20
201.71878
30
-433.0127
11
285.28003
21
196.64005
31
-433.0127
0
LINE
8
0
10
285.28003
20
196.64005
30
-433.0127
11
288.22003
21
191.0513
31
-433.0127
0
LINE
8
0
10
288.22003
20
191.0513
30
-433.0127
11
290.32007
21
185.08005
31
-433.0127
0
LINE
8
0
10
290.32007
20
185.08005
30
-433.0127
11
291.58008
21
178.85379
31
-433.0127
0
LINE
8
0
10
291.58008
20
178.85379
30
-433.0127
11
292.00006
21
172.50006
31
-433.0127
0
LINE
8
0
10
292.00006
20
172.50006
30
-433.0127
11
291.58008
21
166.14633
31
-433.0127
0
LINE
8
0
10
291.58008
20
166.14633
30
-433.0127
11
290.32007
21
159.92007
31
-433.0127
0
LINE
8
0
10
290.32007
20
159.92007
30
-433.0127
11
288.2201
21
153.94882
31
-433.0127
0
LINE
8
0
10
288.2201
20
153.94882
30
-433.0127
11
285.2801
21
148.36008
31
-433.0127
0
LINE
8
0
10
285.2801
20
148.36008
30
-433.0127
11
281.50012
21
143.28134
31
-433.0127
0
LINE
8
0
10
281.50012
20
143.28134
30
-433.0127
11
276.88013
21
138.84009
31
-433.0127
0
LINE
8
0
10
276.88013
20
138.84009
30
-433.0127
11
271.42017
21
135.16385
31
-433.0127
0
LINE
8
0
10
271.42017
20
135.16385
30
-433.0127
11
265.12018
21
132.3801
31
-433.0127
0
LINE
8
0
10
265.12018
20
132.3801
30
-433.0127
11
257.98022
21
130.61636
31
-433.0127
0
LINE
8
0
10
257.98022
20
130.61636
30
-433.0127
11
250.00024
21
130.00012
31
-433.0127
0
LINE
8
0
10
185.0
20
205.0
30
-433.0127
11
250.0
21
205.0
31
-433.0127
0
LINE
8
0
10
185.0
20
195.0
30
-433.0127
11
250.0
21
195.0
31
-433.0127
0
LINE
8
0
10
185.0
20
215.0
30
-433.0127
11
250.0
21
215.0
31
-433.0127
0
LINE
8
0
10
120.0
20
140.0
30
-433.0127
11
120.22174
21
145.21149
31
-433.0127
0
LINE
8
0
10
120.22174
20
145.21149
30
-433.0127
11
120.87457
21
150.3288
31
-433.0127
0
LINE
8
0
10
120.87457
20
150.3288
30
-433.0127
11
121.9397
21
155.33322
31
-433.0127
0
LINE
8
0
10
121.9397
20
155.33322
30
-433.0127
11
123.3985
21
160.20602
31
-433.0127
0
LINE
8
0
10
123.3985
20
160.20602
30
-433.0127
11
125.23218
21
164.9285
31
-433.0127
0
LINE
8
0
10
125.23218
20
164.9285
30
-433.0127
11
127.42206
21
169.48193
31
-433.0127
0
LINE
8
0
10
127.42206
20
169.48193
30
-433.0127
11
129.9494
21
173.8476
31
-433.0127
0
LINE
8
0
10
129.9494
20
173.8476
30
-433.0127
11
132.79553
21
178.0068
31
-433.0127
0
LINE
8
0
10
132.79553
20
178.0068
30
-433.0127
11
135.94171
21
181.94083
31
-433.0127
0
LINE
8
0
10
135.94171
20
181.94083
30
-433.0127
11
139.3692
21
185.63095
31
-433.0127
0
LINE
8
0
10
139.3692
20
185.63095
30
-433.0127
11
143.05933
21
189.05844
31
-433.0127
0
LINE
8
0
10
143.05933
20
189.05844
30
-433.0127
11
146.99335
21
192.20462
31
-433.0127
0
LINE
8
0
10
146.99335
20
192.20462
30
-433.0127
11
151.15253
21
195.05075
31
-433.0127
0
LINE
8
0
10
151.15253
20
195.05075
30
-433.0127
11
155.51819
21
197.57812
31
-433.0127
0
LINE
8
0
10
155.51819
20
197.57812
30
-433.0127
11
160.0716
21
199.768
31
-433.0127
0
LINE
8
0
10
160.0716
20
199.768
30
-433.0127
11
164.79407
21
201.60172
31
-433.0127
0
LINE
8
0
10
164.79407
20
201.60172
30
-433.0127
11
169.66687
21
203.06052
31
-433.0127
0
LINE
8
0
10
169.66687
20
203.06052
30
-433.0127
11
174.67126
21
204.1257
31
-433.0127
0
LINE
8
0
10
174.67126
20
204.1257
30
-433.0127
11
179.78857
21
204.77853
31
-433.0127
0
LINE
8
0
10
179.78857
20
204.77853
30
-433.0127
11
185.00006
21
205.00034
31
-433.0127
0
LINE
8
0
10
120.0
20
75.0
30
-433.0127
11
120.0
21
140.0
31
-433.0127
0
LINE
8
0
10
110.0
20
75.0
30
-433.0127
11
110.0
21
140.0
31
-433.0127
0
LINE
8
0
10
130.0
20
75.0
30
-433.0127
11
130.0
21
140.0
31
-433.0127
0
LINE
8
0
10
185.0
20
10.0
30
-433.0127
11
179.78851
21
10.221771
31
-433.0127
0
LINE
8
0
10
179.78851
20
10.221771
30
-433.0127
11
174.6712
21
10.874603
31
-433.0127
0
LINE
8
0
10
174.6712
20
10.874603
30
-433.0127
11
169.66681
21
11.939758
31
-433.0127
0
LINE
8
0
10
169.66681
20
11.939758
30
-433.0127
11
164.794
21
13.398529
31
-433.0127
0
LINE
8
0
10
164.794
20
13.398529
30
-433.0127
11
160.07153
21
15.232208
31
-433.0127
0
LINE
8
0
10
160.07153
20
15.232208
30
-433.0127
11
155.51813
21
17.422089
31
-433.0127
0
LINE
8
0
10
155.51813
20
17.422089
30
-433.0127
11
151.15247
21
19.949432
31
-433.0127
0
LINE
8
0
10
151.15247
20
19.949432
30
-433.0127
11
146.99329
21
22.795532
31
-433.0127
0
LINE
8
0
10
146.99329
20
22.795532
30
-433.0127
11
143.05927
21
25.94168
31
-433.0127
0
LINE
8
0
10
143.05927
20
25.94168
30
-433.0127
11
139.36914
21
29.369171
31
-433.0127
0
LINE
8
0
10
139.36914
20
29.369171
30
-433.0127
11
135.94165
21
33.059296
31
-433.0127
0
LINE
8
0
10
135.94165
20
33.059296
30
-433.0127
11
132.79547
21
36.993317
31
-433.0127
0
LINE
8
0
10
132.79547
20
36.993317
30
-433.0127
11
129.94934
21
41.152527
31
-433.0127
0
LINE
8
0
10
129.94934
20
41.152527
30
-433.0127
11
127.422
21
45.51819
31
-433.0127
0
LINE
8
0
10
127.422
20
45.51819
30
-433.0127
11
125.23212
21
50.071625
31
-433.0127
0
LINE
8
0
10
125.23212
20
50.071625
30
-433.0127
11
123.39844
21
54.794098
31
-433.0127
0
LINE
8
0
10
123.39844
20
54.794098
30
-433.0127
11
121.9397
21
59.6669
31
-433.0127
0
LINE
8
0
10
121.9397
20
59.6669
30
-433.0127
11
120.87457
21
64.671326
31
-433.0127
0
LINE
8
0
10
120.87457
20
64.671326
30
-433.0127
11
120.22174
21
69.788635
31
-433.0127
0
LINE
8
0
10
120.22174
20
69.788635
30
-433.0127
11
120.0
21
75.00012
31
-433.0127
0
LINE
8
0
10
315.0
20
10.0
30
-433.0127
11
185.0
21
10.0
31
-433.0127
0
LINE
8
0
10
315.0
20
0.0
30
-433.0127
11
185.0
21
0.0
31
-433.0127
0
LINE
8
0
10
315.0
20
20.0
30
-433.0127
11
185.0
21
20.0
31
-433.0127
0
LINE
8
0
10
315.0
20
-55.0
30
-433.0127
11
321.08002
21
-54.528748
31
-433.0127
0
LINE
8
0
10
321.08002
20
-54.528748
30
-433.0127
11
326.52002
21
-53.179993
31
-433.0127
0
LINE
8
0
10
326.52002
20
-53.179993
30
-433.0127
11
331.32
21
-51.05124
31
-433.0127
0
LINE
8
0
10
331.32
20
-51.05124
30
-433.0127
11
335.48004
21
-48.23999
31
-433.0127
0
LINE
8
0
10
335.48004
20
-48.23999
30
-433.0127
11
339.00006
21
-44.843735
31
-433.0127
0
LINE
8
0
10
339.00006
20
-44.843735
30
-433.0127
11
341.88007
21
-40.959976
31
-433.0127
0
LINE
8
0
10
341.88007
20
-40.959976
30
-433.0127
11
344.12006
21
-36.68622
31
-433.0127
0
LINE
8
0
10
344.12006
20
-36.68622
30
-433.0127
11
345.7201
21
-32.119965
31
-433.0127
0
LINE
8
0
10
345.7201
20
-32.119965
30
-433.0127
11
346.6801
21
-27.358719
31
-433.0127
0
LINE
8
0
10
346.6801
20
-27.358719
30
-433.0127
11
347.00012
21
-22.49997
31
-433.0127
0
LINE
8
0
10
347.00012
20
-22.49997
30
-433.0127
11
346.6801
21
-17.64122
31
-433.0127
0
LINE
8
0
10
346.6801
20
-17.64122
30
-433.0127
11
345.7201
21
-12.879974
31
-433.0127
0
LINE
8
0
10
345.7201
20
-12.879974
30
-433.0127
11
344.12012
21
-8.313721
31
-433.0127
0
LINE
8
0
10
344.12012
20
-8.313721
30
-433.0127
11
341.88013
21
-4.039963
31
-433.0127
0
LINE
8
0
10
341.88013
20
-4.039963
30
-433.0127
11
339.00012
21
-0.15620422
31
-433.0127
0
LINE
8
0
10
339.00012
20
-0.15620422
30
-433.0127
11
335.4801
21
3.2400513
31
-433.0127
0
LINE
8
0
10
335.4801
20
3.2400513
30
-433.0127
11
331.32013
21
6.0513
31
-433.0127
0
LINE
8
0
10
331.32013
20
6.0513
30
-433.0127
11
326.52014
21
8.180054
31
-433.0127
0
LINE
8
0
10
326.52014
20
8.180054
30
-433.0127
11
321.08014
21
9.528809
31
-433.0127
0
LINE
8
0
10
321.08014
20
9.528809
30
-433.0127
11
315.00012
21
10.000061
31
-433.0127
0
LINE
8
0
10
315.0
20
-65.0
30
-433.0127
11
322.97998
21
-64.38374
31
-433.0127
0
LINE
8
0
10
322.97998
20
-64.38374
30
-433.0127
11
330.12
21
-62.619995
31
-433.0127
0
LINE
8
0
10
330.12
20
-62.619995
30
-433.0127
11
336.41998
21
-59.836243
31
-433.0127
0
LINE
8
0
10
336.41998
20
-59.836243
30
-433.0127
11
341.88
21
-56.15999
31
-433.0127
0
LINE
8
0
10
341.88
20
-56.15999
30
-433.0127
11
346.5
21
-51.718735
31
-433.0127
0
LINE
8
0
10
346.5
20
-51.718735
30
-433.0127
11
350.28003
21
-46.639984
31
-433.0127
0
LINE
8
0
10
350.28003
20
-46.639984
30
-433.0127
11
353.22003
21
-41.05124
31
-433.0127
0
LINE
8
0
10
353.22003
20
-41.05124
30
-433.0127
11
355.32007
21
-35.079987
31
-433.0127
0
LINE
8
0
10
355.32007
20
-35.079987
30
-433.0127
11
356.58008
21
-28.85373
31
-433.0127
0
LINE
8
0
10
356.58008
20
-28.85373
30
-433.0127
11
357.00006
21
-22.49997
31
-433.0127
0
LINE
8
0
10
357.00006
20
-22.49997
30
-433.0127
11
356.58008
21
-16.14621
31
-433.0127
0
LINE
8
0
10
356.58008
20
-16.14621
30
-433.0127
11
355.32007
21
-9.919952
31
-433.0127
0
LINE
8
0
10
355.32007
20
-9.919952
30
-433.0127
11
353.2201
21
-3.9487
31
-433.0127
0
LINE
8
0
10
353.2201
20
-3.9487
30
-433.0127
11
350.2801
21
1.6400604
31
-433.0127
0
LINE
8
0
10
350.2801
20
1.6400604
30
-433.0127
11
346.50012
21
6.718811
31
-433.0127
0
LINE
8
0
10
346.50012
20
6.718811
30
-433.0127
11
341.88013
21
11.160065
31
-433.0127
0
LINE
8
0
10
341.88013
20
11.160065
30
-433.0127
11
336.42017
21
14.836334
31
-433.0127
0
LINE
8
0
10
336.42017
20
14.836334
30
-433.0127
11
330.12018
21
17.620087
31
-433.0127
0
LINE
8
0
10
330.12018
20
17.620087
30
-433.0127
11
322.98022
21
19.38385
31
-433.0127
0
LINE
8
0
10
322.98022
20
19.38385
30
-433.0127
11
315.00024
21
20.000122
31
-433.0127
0
LINE
8
0
10
315.0
20
-45.0
30
-433.0127
11
319.18
21
-44.67375
31
-433.0127
0
LINE
8
0
10
319.18
20
-44.67375
30
-433.0127
11
322.91998
21
-43.740005
31
-433.0127
0
LINE
8
0
10
322.91998
20
-43.740005
30
-433.0127
11
326.21997
21
-42.26625
31
-433.0127
0
LINE
8
0
10
326.21997
20
-42.26625
30
-433.0127
11
329.07996
21
-40.320007
31
-433.0127
0
LINE
8
0
10
329.07996
20
-40.320007
30
-433.0127
11
331.49994
21
-37.96875
31
-433.0127
0
LINE
8
0
10
331.49994
20
-37.96875
30
-433.0127
11
333.47992
21
-35.28
31
-433.0127
0
LINE
8
0
10
333.47992
20
-35.28
30
-433.0127
11
335.0199
21
-32.321243
31
-433.0127
0
LINE
8
0
10
335.0199
20
-32.321243
30
-433.0127
11
336.11993
21
-29.159988
31
-433.0127
0
LINE
8
0
10
336.11993
20
-29.159988
30
-433.0127
11
336.77997
21
-25.863739
31
-433.0127
0
LINE
8
0
10
336.77997
20
-25.863739
30
-433.0127
11
337.0
21
-22.499985
31
-433.0127
0
LINE
8
0
10
337.0
20
-22.499985
30
-433.0127
11
336.78003
21
-19.13623
31
-433.0127
0
LINE
8
0
10
336.78003
20
-19.13623
30
-433.0127
11
336.12006
21
-15.839981
31
-433.0127
0
LINE
8
0
10
336.12006
20
-15.839981
30
-433.0127
11
335.02008
21
-12.678726
31
-433.0127
0
LINE
8
0
10
335.02008
20
-12.678726
30
-433.0127
11
333.4801
21
-9.719971
31
-433.0127
0
LINE
8
0
10
333.4801
20
-9.719971
30
-433.0127
11
331.50012
21
-7.0312195
31
-433.0127
0
LINE
8
0
10
331.50012
20
-7.0312195
30
-433.0127
11
329.08014
21
-4.6799774
31
-433.0127
0
LINE
8
0
10
329.08014
20
-4.6799774
30
-433.0127
11
326.22015
21
-2.7337341
31
-433.0127
0
LINE
8
0
10
326.22015
20
-2.7337341
30
-433.0127
11
322.92017
21
-1.2599792
31
-433.0127
0
LINE
8
0
10
322.92017
20
-1.2599792
30
-433.0127
11
319.18018
21
-0.3262329
31
-433.0127
0
LINE
8
0
10
319.18018
20
-0.3262329
30
-433.0127
11
315.00018
21
1.5258789E-5
31
-433.0127
0
LINE
8
0
10
185.0
20
-55.0
30
-433.0127
11
315.0
21
-55.0
31
-433.0127
0
LINE
8
0
10
185.0
20
-65.0
30
-433.0127
11
315.0
21
-65.0
31
-433.0127
0
LINE
8
0
10
185.0
20
-45.0
30
-433.0127
11
315.0
21
-45.0
31
-433.0127
0
LINE
8
0
10
-205.0
20
-55.0
30
-433.0127
11
185.0
21
-55.0
31
-433.0127
0
LINE
8
0
10
-205.0
20
-65.0
30
-433.0127
11
185.0
21
-65.0
31
-433.0127
0
LINE
8
0
10
-205.0
20
-45.0
30
-433.0127
11
185.0
21
-45.0
31
-433.0127
0
LINE
8
0
10
-270.0
20
10.0
30
-433.0127
11
-269.77823
21
4.788513
31
-433.0127
0
LINE
8
0
10
-269.77823
20
4.788513
30
-433.0127
11
-269.12543
21
-0.3287964
31
-433.0127
0
LINE
8
0
10
-269.12543
20
-0.3287964
30
-433.0127
11
-268.06024
21
-5.333206
31
-433.0127
0
LINE
8
0
10
-268.06024
20
-5.333206
30
-433.0127
11
-266.6015
21
-10.205994
31
-433.0127
0
LINE
8
0
10
-266.6015
20
-10.205994
30
-433.0127
11
-264.76782
21
-14.928452
31
-433.0127
0
LINE
8
0
10
-264.76782
20
-14.928452
30
-433.0127
11
-262.57794
21
-19.481873
31
-433.0127
0
LINE
8
0
10
-262.57794
20
-19.481873
30
-433.0127
11
-260.0506
21
-23.847534
31
-433.0127
0
LINE
8
0
10
-260.0506
20
-23.847534
30
-433.0127
11
-257.20447
21
-28.00673
31
-433.0127
0
LINE
8
0
10
-257.20447
20
-28.00673
30
-433.0127
11
-254.05832
21
-31.940735
31
-433.0127
0
LINE
8
0
10
-254.05832
20
-31.940735
30
-433.0127
11
-250.63083
21
-35.630844
31
-433.0127
0
LINE
8
0
10
-250.63083
20
-35.630844
30
-433.0127
11
-246.94072
21
-39.058334
31
-433.0127
0
LINE
8
0
10
-246.94072
20
-39.058334
30
-433.0127
11
-243.00671
21
-42.204483
31
-433.0127
0
LINE
8
0
10
-243.00671
20
-42.204483
30
-433.0127
11
-238.84752
21
-45.050583
31
-433.0127
0
LINE
8
0
10
-238.84752
20
-45.050583
30
-433.0127
11
-234.48186
21
-47.577927
31
-433.0127
0
LINE
8
0
10
-234.48186
20
-47.577927
30
-433.0127
11
-229.92844
21
-49.76779
31
-433.0127
0
LINE
8
0
10
-229.92844
20
-49.76779
30
-433.0127
11
-225.20596
21
-51.60147
31
-433.0127
0
LINE
8
0
10
-225.20596
20
-51.60147
30
-433.0127
11
-220.33316
21
-53.06024
31
-433.0127
0
LINE
8
0
10
-220.33316
20
-53.06024
30
-433.0127
11
-215.32875
21
-54.125397
31
-433.0127
0
LINE
8
0
10
-215.32875
20
-54.125397
30
-433.0127
11
-210.21144
21
-54.778214
31
-433.0127
0
LINE
8
0
10
-210.21144
20
-54.778214
30
-433.0127
11
-204.99995
21
-54.99997
31
-433.0127
0
LINE
8
0
10
-205.0
20
75.0
30
-433.0127
11
-210.21149
21
74.77823
31
-433.0127
0
LINE
8
0
10
-210.21149
20
74.77823
30
-433.0127
11
-215.3288
21
74.12543
31
-433.0127
0
LINE
8
0
10
-215.3288
20
74.12543
30
-433.0127
11
-220.3332
21
73.06027
31
-433.0127
0
LINE
8
0
10
-220.3332
20
73.06027
30
-433.0127
11
-225.206
21
71.6015
31
-433.0127
0
LINE
8
0
10
-225.206
20
71.6015
30
-433.0127
11
-229.92845
21
69.76782
31
-433.0127
0
LINE
8
0
10
-229.92845
20
69.76782
30
-433.0127
11
-234.48187
21
67.57794
31
-433.0127
0
LINE
8
0
10
-234.48187
20
67.57794
30
-433.0127
11
-238.84753
21
65.0506
31
-433.0127
0
LINE
8
0
10
-238.84753
20
65.0506
30
-433.0127
11
-243.00673
21
62.2045
31
-433.0127
0
LINE
8
0
10
-243.00673
20
62.2045
30
-433.0127
11
-246.94073
21
59.05835
31
-433.0127
0
LINE
8
0
10
-246.94073
20
59.05835
30
-433.0127
11
-250.63083
21
55.63086
31
-433.0127
0
LINE
8
0
10
-250.63083
20
55.63086
30
-433.0127
11
-254.05832
21
51.940765
31
-433.0127
0
LINE
8
0
10
-254.05832
20
51.940765
30
-433.0127
11
-257.20447
21
48.006775
31
-433.0127
0
LINE
8
0
10
-257.20447
20
48.006775
30
-433.0127
11
-260.05057
21
43.847595
31
-433.0127
0
LINE
8
0
10
-260.05057
20
43.847595
30
-433.0127
11
-262.5779
21
39.481934
31
-433.0127
0
LINE
8
0
10
-262.5779
20
39.481934
30
-433.0127
11
-264.76776
21
34.928528
31
-433.0127
0
LINE
8
0
10
-264.76776
20
34.928528
30
-433.0127
11
-266.60144
21
30.206085
31
-433.0127
0
LINE
8
0
10
-266.60144
20
30.206085
30
-433.0127
11
-268.06024
21
25.333313
31
-433.0127
0
LINE
8
0
10
-268.06024
20
25.333313
30
-433.0127
11
-269.12537
21
20.328918
31
-433.0127
0
LINE
8
0
10
-269.12537
20
20.328918
30
-433.0127
11
-269.77817
21
15.211639
31
-433.0127
0
LINE
8
0
10
-269.77817
20
15.211639
30
-433.0127
11
-269.99994
21
10.000183
31
-433.0127
0
LINE
8
0
10
-140.0
20
140.0
30
-433.0127
11
-140.22177
21
134.78851
31
-433.0127
0
LINE
8
0
10
-140.22177
20
134.78851
30
-433.0127
11
-140.87457
21
129.6712
31
-433.0127
0
LINE
8
0
10
-140.87457
20
129.6712
30
-433.0127
11
-141.93973
21
124.66681
31
-433.0127
0
LINE
8
0
10
-141.93973
20
124.66681
30
-433.0127
11
-143.3985
21
119.79401
31
-433.0127
0
LINE
8
0
10
-143.3985
20
119.79401
30
-433.0127
11
-145.23218
21
115.07153
31
-433.0127
0
LINE
8
0
10
-145.23218
20
115.07153
30
-433.0127
11
-147.42204
21
110.5181
31
-433.0127
0
LINE
8
0
10
-147.42204
20
110.5181
30
-433.0127
11
-149.94939
21
106.152435
31
-433.0127
0
LINE
8
0
10
-149.94939
20
106.152435
30
-433.0127
11
-152.79549
21
101.993256
31
-433.0127
0
LINE
8
0
10
-152.79549
20
101.993256
30
-433.0127
11
-155.94164
21
98.059235
31
-433.0127
0
LINE
8
0
10
-155.94164
20
98.059235
30
-433.0127
11
-159.36911
21
94.36914
31
-433.0127
0
LINE
8
0
10
-159.36911
20
94.36914
30
-433.0127
11
-163.0592
21
90.94165
31
-433.0127
0
LINE
8
0
10
-163.0592
20
90.94165
30
-433.0127
11
-166.99321
21
87.7955
31
-433.0127
0
LINE
8
0
10
-166.99321
20
87.7955
30
-433.0127
11
-171.1524
21
84.9494
31
-433.0127
0
LINE
8
0
10
-171.1524
20
84.9494
30
-433.0127
11
-175.51807
21
82.42206
31
-433.0127
0
LINE
8
0
10
-175.51807
20
82.42206
30
-433.0127
11
-180.07149
21
80.23218
31
-433.0127
0
LINE
8
0
10
-180.07149
20
80.23218
30
-433.0127
11
-184.79395
21
78.3985
31
-433.0127
0
LINE
8
0
10
-184.79395
20
78.3985
30
-433.0127
11
-189.66673
21
76.93973
31
-433.0127
0
LINE
8
0
10
-189.66673
20
76.93973
30
-433.0127
11
-194.67113
21
75.87457
31
-433.0127
0
LINE
8
0
10
-194.67113
20
75.87457
30
-433.0127
11
-199.78842
21
75.22174
31
-433.0127
0
LINE
8
0
10
-199.78842
20
75.22174
30
-433.0127
11
-204.9999
21
74.99997
31
-433.0127
0
LINE
8
0
10
-205.0
20
205.0
30
-433.0127
11
-199.78851
21
204.77823
31
-433.0127
0
LINE
8
0
10
-199.78851
20
204.77823
30
-433.0127
11
-194.6712
21
204.12543
31
-433.0127
0
LINE
8
0
10
-194.6712
20
204.12543
30
-433.0127
11
-189.6668
21
203.06027
31
-433.0127
0
LINE
8
0
10
-189.6668
20
203.06027
30
-433.0127
11
-184.79399
21
201.6015
31
-433.0127
0
LINE
8
0
10
-184.79399
20
201.6015
30
-433.0127
11
-180.07152
21
199.76782
31
-433.0127
0
LINE
8
0
10
-180.07152
20
199.76782
30
-433.0127
11
-175.5181
21
197.57794
31
-433.0127
0
LINE
8
0
10
-175.5181
20
197.57794
30
-433.0127
11
-171.15242
21
195.0506
31
-433.0127
0
LINE
8
0
10
-171.15242
20
195.0506
30
-433.0127
11
-166.99323
21
192.2045
31
-433.0127
0
LINE
8
0
10
-166.99323
20
192.2045
30
-433.0127
11
-163.05922
21
189.05835
31
-433.0127
0
LINE
8
0
10
-163.05922
20
189.05835
30
-433.0127
11
-159.36911
21
185.63086
31
-433.0127
0
LINE
8
0
10
-159.36911
20
185.63086
30
-433.0127
11
-155.94162
21
181.94077
31
-433.0127
0
LINE
8
0
10
-155.94162
20
181.94077
30
-433.0127
11
-152.79546
21
178.00674
31
-433.0127
0
LINE
8
0
10
-152.79546
20
178.00674
30
-433.0127
11
-149.94934
21
173.84756
31
-433.0127
0
LINE
8
0
10
-149.94934
20
173.84756
30
-433.0127
11
-147.42198
21
169.4819
31
-433.0127
0
LINE
8
0
10
-147.42198
20
169.4819
30
-433.0127
11
-145.2321
21
164.92847
31
-433.0127
0
LINE
8
0
10
-145.2321
20
164.92847
30
-433.0127
11
-143.3984
21
160.206
31
-433.0127
0
LINE
8
0
10
-143.3984
20
160.206
30
-433.0127
11
-141.93964
21
155.33319
31
-433.0127
0
LINE
8
0
10
-141.93964
20
155.33319
30
-433.0127
11
-140.87448
21
150.3288
31
-433.0127
0
LINE
8
0
10
-140.87448
20
150.3288
30
-433.0127
11
-140.22165
21
145.21149
31
-433.0127
0
LINE
8
0
10
-140.22165
20
145.21149
30
-433.0127
11
-139.99988
21
140.0
31
-433.0127
0
LINE
8
0
10
-335.0
20
205.0
30
-433.0127
11
-205.0
21
205.0
31
-433.0127
0
LINE
8
0
10
-335.0
20
195.0
30
-433.0127
11
-205.0
21
195.0
31
-433.0127
0
LINE
8
0
10
-335.0
20
215.0
30
-433.0127
11
-205.0
21
215.0
31
-433.0127
0
LINE
8
0
10
-335.0
20
140.0
30
-433.0127
11
-341.08002
21
140.47125
31
-433.0127
0
LINE
8
0
10
-341.08002
20
140.47125
30
-433.0127
11
-346.52002
21
141.82
31
-433.0127
0
LINE
8
0
10
-346.52002
20
141.82
30
-433.0127
11
-351.32
21
143.94876
31
-433.0127
0
LINE
8
0
10
-351.32
20
143.94876
30
-433.0127
11
-355.48
21
146.76001
31
-433.0127
0
LINE
8
0
10
-355.48
20
146.76001
30
-433.0127
11
-359.0
21
150.15625
31
-433.0127
0
LINE
8
0
10
-359.0
20
150.15625
30
-433.0127
11
-361.88
21
154.04001
31
-433.0127
0
LINE
8
0
10
-361.88
20
154.04001
30
-433.0127
11
-364.12
21
158.31375
31
-433.0127
0
LINE
8
0
10
-364.12
20
158.31375
30
-433.0127
11
-365.72
21
162.88
31
-433.0127
0
LINE
8
0
10
-365.72
20
162.88
30
-433.0127
11
-366.68
21
167.64127
31
-433.0127
0
LINE
8
0
10
-366.68
20
167.64127
30
-433.0127
11
-367.0
21
172.50003
31
-433.0127
0
LINE
8
0
10
-367.0
20
172.50003
30
-433.0127
11
-366.68
21
177.3588
31
-433.0127
0
LINE
8
0
10
-366.68
20
177.3588
30
-433.0127
11
-365.72
21
182.12006
31
-433.0127
0
LINE
8
0
10
-365.72
20
182.12006
30
-433.0127
11
-364.12
21
186.68631
31
-433.0127
0
LINE
8
0
10
-364.12
20
186.68631
30
-433.0127
11
-361.88
21
190.96005
31
-433.0127
0
LINE
8
0
10
-361.88
20
190.96005
30
-433.0127
11
-359.0
21
194.84381
31
-433.0127
0
LINE
8
0
10
-359.0
20
194.84381
30
-433.0127
11
-355.48
21
198.24008
31
-433.0127
0
LINE
8
0
10
-355.48
20
198.24008
30
-433.0127
11
-351.32
21
201.05133
31
-433.0127
0
LINE
8
0
10
-351.32
20
201.05133
30
-433.0127
11
-346.52002
21
203.18008
31
-433.0127
0
LINE
8
0
10
-346.52002
20
203.18008
30
-433.0127
11
-341.08002
21
204.52884
31
-433.0127
0
LINE
8
0
10
-341.08002
20
204.52884
30
-433.0127
11
-335.0
21
205.00009
31
-433.0127
0
LINE
8
0
10
-335.0
20
130.0
30
-433.0127
11
-342.98
21
130.61624
31
-433.0127
0
LINE
8
0
10
-342.98
20
130.61624
30
-433.0127
11
-350.12
21
132.38
31
-433.0127
0
LINE
8
0
10
-350.12
20
132.38
30
-433.0127
11
-356.41998
21
135.16376
31
-433.0127
0
LINE
8
0
10
-356.41998
20
135.16376
30
-433.0127
11
-361.88
21
138.84003
31
-433.0127
0
LINE
8
0
10
-361.88
20
138.84003
30
-433.0127
11
-366.5
21
143.28128
31
-433.0127
0
LINE
8
0
10
-366.5
20
143.28128
30
-433.0127
11
-370.28
21
148.36005
31
-433.0127
0
LINE
8
0
10
-370.28
20
148.36005
30
-433.0127
11
-373.22
21
153.94879
31
-433.0127
0
LINE
8
0
10
-373.22
20
153.94879
30
-433.0127
11
-375.32
21
159.92004
31
-433.0127
0
LINE
8
0
10
-375.32
20
159.92004
30
-433.0127
11
-376.58
21
166.1463
31
-433.0127
0
LINE
8
0
10
-376.58
20
166.1463
30
-433.0127
11
-377.0
21
172.50006
31
-433.0127
0
LINE
8
0
10
-377.0
20
172.50006
30
-433.0127
11
-376.58
21
178.85382
31
-433.0127
0
LINE
8
0
10
-376.58
20
178.85382
30
-433.0127
11
-375.31998
21
185.08008
31
-433.0127
0
LINE
8
0
10
-375.31998
20
185.08008
30
-433.0127
11
-373.21997
21
191.05133
31
-433.0127
0
LINE
8
0
10
-373.21997
20
191.05133
30
-433.0127
11
-370.27997
21
196.6401
31
-433.0127
0
LINE
8
0
10
-370.27997
20
196.6401
30
-433.0127
11
-366.49997
21
201.71887
31
-433.0127
0
LINE
8
0
10
-366.49997
20
201.71887
30
-433.0127
11
-361.87997
21
206.16013
31
-433.0127
0
LINE
8
0
10
-361.87997
20
206.16013
30
-433.0127
11
-356.41998
21
209.8364
31
-433.0127
0
LINE
8
0
10
-356.41998
20
209.8364
30
-433.0127
11
-350.11996
21
212.62015
31
-433.0127
0
LINE
8
0
10
-350.11996
20
212.62015
30
-433.0127
11
-342.97998
21
214.38391
31
-433.0127
0
LINE
8
0
10
-342.97998
20
214.38391
30
-433.0127
11
-334.99997
21
215.00018
31
-433.0127
0
LINE
8
0
10
-335.0
20
150.0
30
-433.0127
11
-339.18
21
150.32626
31
-433.0127
0
LINE
8
0
10
-339.18
20
150.32626
30
-433.0127
11
-342.92
21
151.26001
31
-433.0127
0
LINE
8
0
10
-342.92
20
151.26001
30
-433.0127
11
-346.22
21
152.73376
31
-433.0127
0
LINE
8
0
10
-346.22
20
152.73376
30
-433.0127
11
-349.08002
21
154.68002
31
-433.0127
0
LINE
8
0
10
-349.08002
20
154.68002
30
-433.0127
11
-351.5
21
157.03128
31
-433.0127
0
LINE
8
0
10
-351.5
20
157.03128
30
-433.0127
11
-353.48
21
159.72003
31
-433.0127
0
LINE
8
0
10
-353.48
20
159.72003
30
-433.0127
11
-355.02
21
162.67877
31
-433.0127
0
LINE
8
0
10
-355.02
20
162.67877
30
-433.0127
11
-356.12
21
165.84003
31
-433.0127
0
LINE
8
0
10
-356.12
20
165.84003
30
-433.0127
11
-356.78
21
169.13629
31
-433.0127
0
LINE
8
0
10
-356.78
20
169.13629
30
-433.0127
11
-357.0
21
172.50003
31
-433.0127
0
LINE
8
0
10
-357.0
20
172.50003
30
-433.0127
11
-356.78
21
175.8638
31
-433.0127
0
LINE
8
0
10
-356.78
20
175.8638
30
-433.0127
11
-356.12
21
179.16006
31
-433.0127
0
LINE
8
0
10
-356.12
20
179.16006
30
-433.0127
11
-355.02
21
182.32132
31
-433.0127
0
LINE
8
0
10
-355.02
20
182.32132
30
-433.0127
11
-353.47998
21
185.28009
31
-433.0127
0
LINE
8
0
10
-353.47998
20
185.28009
30
-433.0127
11
-351.5
21
187.96884
31
-433.0127
0
LINE
8
0
10
-351.5
20
187.96884
30
-433.0127
11
-349.08
21
190.3201
31
-433.0127
0
LINE
8
0
10
-349.08
20
190.3201
30
-433.0127
11
-346.22
21
192.26636
31
-433.0127
0
LINE
8
0
10
-346.22
20
192.26636
30
-433.0127
11
-342.91998
21
193.74011
31
-433.0127
0
LINE
8
0
10
-342.91998
20
193.74011
30
-433.0127
11
-339.18
21
194.67389
31
-433.0127
0
LINE
8
0
10
-339.18
20
194.67389
30
-433.0127
11
-335.0
21
195.00015
31
-433.0127
0
ENDSEC
0
EOF
