0
SECTION
2
ENTITIES
0
3DFACE
8
0
10
-400.0
20
-250.0
30
-433.0127
11
-400.0
21
417.0
31
-433.0127
12
600.0
22
417.0
32
-433.0127
13
600.0001
23
417.0001
33
-433.0126
0
3DFACE
8
0
10
600.0
20
417.0
30
-433.0127
11
600.0
21
-250.0
31
-433.0127
12
-400.0
22
-250.0
32
-433.0127
13
-399.9999
23
-249.9999
33
-433.0126
0
LINE
8
0
10
313.0
20
184.0
30
-433.0127
11
251.0
21
184.0
31
-433.0127
0
LINE
8
0
10
313.0
20
153.0
30
-433.0127
11
315.774
21
153.22476
31
-433.0127
0
LINE
8
0
10
315.774
20
153.22476
30
-433.0127
11
318.25598
21
153.86801
31
-433.0127
0
LINE
8
0
10
318.25598
20
153.86801
30
-433.0127
11
320.44598
21
154.88327
31
-433.0127
0
LINE
8
0
10
320.44598
20
154.88327
30
-433.0127
11
322.344
21
156.22403
31
-433.0127
0
LINE
8
0
10
322.344
20
156.22403
30
-433.0127
11
323.95
21
157.84378
31
-433.0127
0
LINE
8
0
10
323.95
20
157.84378
30
-433.0127
11
325.26404
21
159.69604
31
-433.0127
0
LINE
8
0
10
325.26404
20
159.69604
30
-433.0127
11
326.28607
21
161.73431
31
-433.0127
0
LINE
8
0
10
326.28607
20
161.73431
30
-433.0127
11
327.01605
21
163.91208
31
-433.0127
0
LINE
8
0
10
327.01605
20
163.91208
30
-433.0127
11
327.45404
21
166.18283
31
-433.0127
0
LINE
8
0
10
327.45404
20
166.18283
30
-433.0127
11
327.60004
21
168.50009
31
-433.0127
0
LINE
8
0
10
327.60004
20
168.50009
30
-433.0127
11
327.45404
21
170.81735
31
-433.0127
0
LINE
8
0
10
327.45404
20
170.81735
30
-433.0127
11
327.01605
21
173.0881
31
-433.0127
0
LINE
8
0
10
327.01605
20
173.0881
30
-433.0127
11
326.28607
21
175.26587
31
-433.0127
0
LINE
8
0
10
326.28607
20
175.26587
30
-433.0127
11
325.2641
21
177.30411
31
-433.0127
0
LINE
8
0
10
325.2641
20
177.30411
30
-433.0127
11
323.95013
21
179.15637
31
-433.0127
0
LINE
8
0
10
323.95013
20
179.15637
30
-433.0127
11
322.34412
21
180.77612
31
-433.0127
0
LINE
8
0
10
322.34412
20
180.77612
30
-433.0127
11
320.4461
21
182.11688
31
-433.0127
0
LINE
8
0
10
320.4461
20
182.11688
30
-433.0127
11
318.2561
21
183.13214
31
-433.0127
0
LINE
8
0
10
318.2561
20
183.13214
30
-433.0127
11
315.7741
21
183.77539
31
-433.0127
0
LINE
8
0
10
315.7741
20
183.77539
30
-433.0127
11
313.00012
21
184.00015
31
-433.0127
0
LINE
8
0
10
220.0
20
153.0
30
-433.0127
11
313.0
21
153.0
31
-433.0127
0
LINE
8
0
10
220.0
20
122.0
30
-433.0127
11
217.22601
21
122.22476
31
-433.0127
0
LINE
8
0
10
217.22601
20
122.22476
30
-433.0127
11
214.74402
21
122.86801
31
-433.0127
0
LINE
8
0
10
214.74402
20
122.86801
30
-433.0127
11
212.55402
21
123.88327
31
-433.0127
0
LINE
8
0
10
212.55402
20
123.88327
30
-433.0127
11
210.656
21
125.22403
31
-433.0127
0
LINE
8
0
10
210.656
20
125.22403
30
-433.0127
11
209.04999
21
126.84378
31
-433.0127
0
LINE
8
0
10
209.04999
20
126.84378
30
-433.0127
11
207.73596
21
128.69604
31
-433.0127
0
LINE
8
0
10
207.73596
20
128.69604
30
-433.0127
11
206.71399
21
130.73431
31
-433.0127
0
LINE
8
0
10
206.71399
20
130.73431
30
-433.0127
11
205.98401
21
132.91208
31
-433.0127
0
LINE
8
0
10
205.98401
20
132.91208
30
-433.0127
11
205.54602
21
135.18283
31
-433.0127
0
LINE
8
0
10
205.54602
20
135.18283
30
-433.0127
11
205.40002
21
137.50009
31
-433.0127
0
LINE
8
0
10
205.40002
20
137.50009
30
-433.0127
11
205.54602
21
139.81735
31
-433.0127
0
LINE
8
0
10
205.54602
20
139.81735
30
-433.0127
11
205.98401
21
142.0881
31
-433.0127
0
LINE
8
0
10
205.98401
20
142.0881
30
-433.0127
11
206.71399
21
144.26587
31
-433.0127
0
LINE
8
0
10
206.71399
20
144.26587
30
-433.0127
11
207.73602
21
146.30414
31
-433.0127
0
LINE
8
0
10
207.73602
20
146.30414
30
-433.0127
11
209.05005
21
148.1564
31
-433.0127
0
LINE
8
0
10
209.05005
20
148.1564
30
-433.0127
11
210.65607
21
149.77615
31
-433.0127
0
LINE
8
0
10
210.65607
20
149.77615
30
-433.0127
11
212.55408
21
151.11691
31
-433.0127
0
LINE
8
0
10
212.55408
20
151.11691
30
-433.0127
11
214.74408
21
152.13217
31
-433.0127
0
LINE
8
0
10
214.74408
20
152.13217
30
-433.0127
11
217.22607
21
152.77542
31
-433.0127
0
LINE
8
0
10
217.22607
20
152.77542
30
-433.0127
11
220.00006
21
153.00018
31
-433.0127
0
LINE
8
0
10
344.0
20
122.0
30
-433.0127
11
220.0
21
122.0
31
-433.0127
0
LINE
8
0
10
344.0
20
91.0
30
-433.0127
11
346.774
21
91.22476
31
-433.0127
0
LINE
8
0
10
346.774
20
91.22476
30
-433.0127
11
349.25598
21
91.86801
31
-433.0127
0
LINE
8
0
10
349.25598
20
91.86801
30
-433.0127
11
351.44598
21
92.88327
31
-433.0127
0
LINE
8
0
10
351.44598
20
92.88327
30
-433.0127
11
353.344
21
94.22403
31
-433.0127
0
LINE
8
0
10
353.344
20
94.22403
30
-433.0127
11
354.95
21
95.84378
31
-433.0127
0
LINE
8
0
10
354.95
20
95.84378
30
-433.0127
11
356.26404
21
97.696014
31
-433.0127
0
LINE
8
0
10
356.26404
20
97.696014
30
-433.0127
11
357.286
21
99.73425
31
-433.0127
0
LINE
8
0
10
357.286
20
99.73425
30
-433.0127
11
358.016
21
101.91199
31
-433.0127
0
LINE
8
0
10
358.016
20
101.91199
30
-433.0127
11
358.45398
21
104.18274
31
-433.0127
0
LINE
8
0
10
358.45398
20
104.18274
30
-433.0127
11
358.59998
21
106.5
31
-433.0127
0
LINE
8
0
10
358.59998
20
106.5
30
-433.0127
11
358.45398
21
108.81726
31
-433.0127
0
LINE
8
0
10
358.45398
20
108.81726
30
-433.0127
11
358.016
21
111.08801
31
-433.0127
0
LINE
8
0
10
358.016
20
111.08801
30
-433.0127
11
357.286
21
113.26578
31
-433.0127
0
LINE
8
0
10
357.286
20
113.26578
30
-433.0127
11
356.26398
21
115.304016
31
-433.0127
0
LINE
8
0
10
356.26398
20
115.304016
30
-433.0127
11
354.94995
21
117.15628
31
-433.0127
0
LINE
8
0
10
354.94995
20
117.15628
30
-433.0127
11
353.34393
21
118.77603
31
-433.0127
0
LINE
8
0
10
353.34393
20
118.77603
30
-433.0127
11
351.44592
21
120.11679
31
-433.0127
0
LINE
8
0
10
351.44592
20
120.11679
30
-433.0127
11
349.25592
21
121.13205
31
-433.0127
0
LINE
8
0
10
349.25592
20
121.13205
30
-433.0127
11
346.77393
21
121.7753
31
-433.0127
0
LINE
8
0
10
346.77393
20
121.7753
30
-433.0127
11
343.99994
21
122.00006
31
-433.0127
0
LINE
8
0
10
220.0
20
91.0
30
-433.0127
11
344.0
21
91.0
31
-433.0127
0
LINE
8
0
10
189.0
20
60.0
30
-433.0127
11
189.10333
21
62.531677
31
-433.0127
0
LINE
8
0
10
189.10333
20
62.531677
30
-433.0127
11
189.4079
21
65.00894
31
-433.0127
0
LINE
8
0
10
189.4079
20
65.00894
30
-433.0127
11
189.90552
21
67.423676
31
-433.0127
0
LINE
8
0
10
189.90552
20
67.423676
30
-433.0127
11
190.58807
21
69.7677
31
-433.0127
0
LINE
8
0
10
190.58807
20
69.7677
30
-433.0127
11
191.44739
21
72.03287
31
-433.0127
0
LINE
8
0
10
191.44739
20
72.03287
30
-433.0127
11
192.47528
21
74.21103
31
-433.0127
0
LINE
8
0
10
192.47528
20
74.21103
30
-433.0127
11
193.66364
21
76.29401
31
-433.0127
0
LINE
8
0
10
193.66364
20
76.29401
30
-433.0127
11
195.00427
21
78.27365
31
-433.0127
0
LINE
8
0
10
195.00427
20
78.27365
30
-433.0127
11
196.48901
21
80.141815
31
-433.0127
0
LINE
8
0
10
196.48901
20
80.141815
30
-433.0127
11
198.10974
21
81.89032
31
-433.0127
0
LINE
8
0
10
198.10974
20
81.89032
30
-433.0127
11
199.85828
21
83.51102
31
-433.0127
0
LINE
8
0
10
199.85828
20
83.51102
30
-433.0127
11
201.72644
21
84.99576
31
-433.0127
0
LINE
8
0
10
201.72644
20
84.99576
30
-433.0127
11
203.70612
21
86.336365
31
-433.0127
0
LINE
8
0
10
203.70612
20
86.336365
30
-433.0127
11
205.78912
21
87.52469
31
-433.0127
0
LINE
8
0
10
205.78912
20
87.52469
30
-433.0127
11
207.96729
21
88.55258
31
-433.0127
0
LINE
8
0
10
207.96729
20
88.55258
30
-433.0127
11
210.23248
21
89.411896
31
-433.0127
0
LINE
8
0
10
210.23248
20
89.411896
30
-433.0127
11
212.57654
21
90.09445
31
-433.0127
0
LINE
8
0
10
212.57654
20
90.09445
30
-433.0127
11
214.99133
21
90.5921
31
-433.0127
0
LINE
8
0
10
214.99133
20
90.5921
30
-433.0127
11
217.46863
21
90.89667
31
-433.0127
0
LINE
8
0
10
217.46863
20
90.89667
30
-433.0127
11
220.0003
21
91.0
31
-433.0127
0
LINE
8
0
10
220.0
20
29.0
30
-433.0127
11
217.46832
21
29.103333
31
-433.0127
0
LINE
8
0
10
217.46832
20
29.103333
30
-433.0127
11
214.99103
21
29.407898
31
-433.0127
0
LINE
8
0
10
214.99103
20
29.407898
30
-433.0127
11
212.5763
21
29.905518
31
-433.0127
0
LINE
8
0
10
212.5763
20
29.905518
30
-433.0127
11
210.23224
21
30.588074
31
-433.0127
0
LINE
8
0
10
210.23224
20
30.588074
30
-433.0127
11
207.96704
21
31.447388
31
-433.0127
0
LINE
8
0
10
207.96704
20
31.447388
30
-433.0127
11
205.78888
21
32.47528
31
-433.0127
0
LINE
8
0
10
205.78888
20
32.47528
30
-433.0127
11
203.70593
21
33.663605
31
-433.0127
0
LINE
8
0
10
203.70593
20
33.663605
30
-433.0127
11
201.72632
21
35.00421
31
-433.0127
0
LINE
8
0
10
201.72632
20
35.00421
30
-433.0127
11
199.85815
21
36.488953
31
-433.0127
0
LINE
8
0
10
199.85815
20
36.488953
30
-433.0127
11
198.10968
21
38.10965
31
-433.0127
0
LINE
8
0
10
198.10968
20
38.10965
30
-433.0127
11
196.48901
21
39.858154
31
-433.0127
0
LINE
8
0
10
196.48901
20
39.858154
30
-433.0127
11
195.00427
21
41.72632
31
-433.0127
0
LINE
8
0
10
195.00427
20
41.72632
30
-433.0127
11
193.6637
21
43.705963
31
-433.0127
0
LINE
8
0
10
193.6637
20
43.705963
30
-433.0127
11
192.4754
21
45.78894
31
-433.0127
0
LINE
8
0
10
192.4754
20
45.78894
30
-433.0127
11
191.44751
21
47.967102
31
-433.0127
0
LINE
8
0
10
191.44751
20
47.967102
30
-433.0127
11
190.58826
21
50.2323
31
-433.0127
0
LINE
8
0
10
190.58826
20
50.2323
30
-433.0127
11
189.90576
21
52.576355
31
-433.0127
0
LINE
8
0
10
189.90576
20
52.576355
30
-433.0127
11
189.40814
21
54.99109
31
-433.0127
0
LINE
8
0
10
189.40814
20
54.99109
30
-433.0127
11
189.10364
21
57.468384
31
-433.0127
0
LINE
8
0
10
189.10364
20
57.468384
30
-433.0127
11
189.0003
21
60.00006
31
-433.0127
0
LINE
8
0
10
282.0
20
29.0
30
-433.0127
11
220.0
21
29.0
31
-433.0127
0
LINE
8
0
10
282.0
20
60.0
30
-433.0127
11
284.774
21
59.775238
31
-433.0127
0
LINE
8
0
10
284.774
20
59.775238
30
-433.0127
11
287.25598
21
59.13199
31
-433.0127
0
LINE
8
0
10
287.25598
20
59.13199
30
-433.0127
11
289.44598
21
58.11673
31
-433.0127
0
LINE
8
0
10
289.44598
20
58.11673
30
-433.0127
11
291.344
21
56.77597
31
-433.0127
0
LINE
8
0
10
291.344
20
56.77597
30
-433.0127
11
292.95
21
55.15622
31
-433.0127
0
LINE
8
0
10
292.95
20
55.15622
30
-433.0127
11
294.26404
21
53.303986
31
-433.0127
0
LINE
8
0
10
294.26404
20
53.303986
30
-433.0127
11
295.28607
21
51.265747
31
-433.0127
0
LINE
8
0
10
295.28607
20
51.265747
30
-433.0127
11
296.0161
21
49.088013
31
-433.0127
0
LINE
8
0
10
296.0161
20
49.088013
30
-433.0127
11
296.4541
21
46.81726
31
-433.0127
0
LINE
8
0
10
296.4541
20
46.81726
30
-433.0127
11
296.6001
21
44.50003
31
-433.0127
0
LINE
8
0
10
296.6001
20
44.50003
30
-433.0127
11
296.4541
21
42.1828
31
-433.0127
0
LINE
8
0
10
296.4541
20
42.1828
30
-433.0127
11
296.0161
21
39.91205
31
-433.0127
0
LINE
8
0
10
296.0161
20
39.91205
30
-433.0127
11
295.28613
21
37.734314
31
-433.0127
0
LINE
8
0
10
295.28613
20
37.734314
30
-433.0127
11
294.26416
21
35.696075
31
-433.0127
0
LINE
8
0
10
294.26416
20
35.696075
30
-433.0127
11
292.9502
21
33.84384
31
-433.0127
0
LINE
8
0
10
292.9502
20
33.84384
30
-433.0127
11
291.34424
21
32.22409
31
-433.0127
0
LINE
8
0
10
291.34424
20
32.22409
30
-433.0127
11
289.4463
21
30.883362
31
-433.0127
0
LINE
8
0
10
289.4463
20
30.883362
30
-433.0127
11
287.25635
21
29.868134
31
-433.0127
0
LINE
8
0
10
287.25635
20
29.868134
30
-433.0127
11
284.77435
21
29.224884
31
-433.0127
0
LINE
8
0
10
284.77435
20
29.224884
30
-433.0127
11
282.00037
21
29.000153
31
-433.0127
0
LINE
8
0
10
220.0
20
60.0
30
-433.0127
11
282.0
21
60.0
31
-433.0127
0
LINE
8
0
10
251.0
20
-2.0
30
-433.0127
11
253.9812
21
-1.4471741
31
-433.0127
0
LINE
8
0
10
253.9812
20
-1.4471741
30
-433.0127
11
257.745
21
0.14389038
31
-433.0127
0
LINE
8
0
10
257.745
20
0.14389038
30
-433.0127
11
262.19025
21
2.6720276
31
-433.0127
0
LINE
8
0
10
262.19025
20
2.6720276
30
-433.0127
11
267.21576
21
6.036072
31
-433.0127
0
LINE
8
0
10
267.21576
20
6.036072
30
-433.0127
11
272.72046
21
10.134857
31
-433.0127
0
LINE
8
0
10
272.72046
20
10.134857
30
-433.0127
11
278.60315
21
14.867249
31
-433.0127
0
LINE
8
0
10
278.60315
20
14.867249
30
-433.0127
11
284.76263
21
20.13208
31
-433.0127
0
LINE
8
0
10
284.76263
20
20.13208
30
-433.0127
11
291.09778
21
25.828186
31
-433.0127
0
LINE
8
0
10
291.09778
20
25.828186
30
-433.0127
11
297.50745
21
31.854431
31
-433.0127
0
LINE
8
0
10
297.50745
20
31.854431
30
-433.0127
11
303.89044
21
38.10965
31
-433.0127
0
LINE
8
0
10
303.89044
20
38.10965
30
-433.0127
11
310.14563
21
44.492676
31
-433.0127
0
LINE
8
0
10
310.14563
20
44.492676
30
-433.0127
11
316.17188
21
50.902344
31
-433.0127
0
LINE
8
0
10
316.17188
20
50.902344
30
-433.0127
11
321.86798
21
57.237488
31
-433.0127
0
LINE
8
0
10
321.86798
20
57.237488
30
-433.0127
11
327.1328
21
63.396973
31
-433.0127
0
LINE
8
0
10
327.1328
20
63.396973
30
-433.0127
11
331.86523
21
69.27963
31
-433.0127
0
LINE
8
0
10
331.86523
20
69.27963
30
-433.0127
11
335.96405
21
74.7843
31
-433.0127
0
LINE
8
0
10
335.96405
20
74.7843
30
-433.0127
11
339.32806
21
79.809845
31
-433.0127
0
LINE
8
0
10
339.32806
20
79.809845
30
-433.0127
11
341.8562
21
84.2551
31
-433.0127
0
LINE
8
0
10
341.8562
20
84.2551
30
-433.0127
11
343.44727
21
88.01889
31
-433.0127
0
LINE
8
0
10
343.44727
20
88.01889
30
-433.0127
11
344.00012
21
91.00006
31
-433.0127
0
LINE
8
0
10
189.0
20
122.0
30
-433.0127
11
189.32806
21
118.7941
31
-433.0127
0
LINE
8
0
10
189.32806
20
118.7941
30
-433.0127
11
190.27588
21
114.387085
31
-433.0127
0
LINE
8
0
10
190.27588
20
114.387085
30
-433.0127
11
191.78876
21
108.926605
31
-433.0127
0
LINE
8
0
10
191.78876
20
108.926605
30
-433.0127
11
193.81207
21
102.56033
31
-433.0127
0
LINE
8
0
10
193.81207
20
102.56033
30
-433.0127
11
196.29114
21
95.43591
31
-433.0127
0
LINE
8
0
10
196.29114
20
95.43591
30
-433.0127
11
199.17126
21
87.70102
31
-433.0127
0
LINE
8
0
10
199.17126
20
87.70102
30
-433.0127
11
202.39783
21
79.503296
31
-433.0127
0
LINE
8
0
10
202.39783
20
79.503296
30
-433.0127
11
205.9162
21
70.99039
31
-433.0127
0
LINE
8
0
10
205.9162
20
70.99039
30
-433.0127
11
209.67169
21
62.309967
31
-433.0127
0
LINE
8
0
10
209.67169
20
62.309967
30
-433.0127
11
213.60968
21
53.60971
31
-433.0127
0
LINE
8
0
10
213.60968
20
53.60971
30
-433.0127
11
217.67548
21
45.037262
31
-433.0127
0
LINE
8
0
10
217.67548
20
45.037262
30
-433.0127
11
221.81439
21
36.740265
31
-433.0127
0
LINE
8
0
10
221.81439
20
36.740265
30
-433.0127
11
225.9718
21
28.866394
31
-433.0127
0
LINE
8
0
10
225.9718
20
28.866394
30
-433.0127
11
230.09308
21
21.563293
31
-433.0127
0
LINE
8
0
10
230.09308
20
21.563293
30
-433.0127
11
234.12354
21
14.978638
31
-433.0127
0
LINE
8
0
10
234.12354
20
14.978638
30
-433.0127
11
238.00848
21
9.260071
31
-433.0127
0
LINE
8
0
10
238.00848
20
9.260071
30
-433.0127
11
241.6933
21
4.5552673
31
-433.0127
0
LINE
8
0
10
241.6933
20
4.5552673
30
-433.0127
11
245.12329
21
1.0118713
31
-433.0127
0
LINE
8
0
10
245.12329
20
1.0118713
30
-433.0127
11
248.24384
21
-1.2224426
31
-433.0127
0
LINE
8
0
10
248.24384
20
-1.2224426
30
-433.0127
11
251.0003
21
-2.0000305
31
-433.0127
0
LINE
8
0
10
220.0
20
184.0
30
-433.0127
11
217.46832
21
183.67194
31
-433.0127
0
LINE
8
0
10
217.46832
20
183.67194
30
-433.0127
11
214.99103
21
182.72412
31
-433.0127
0
LINE
8
0
10
214.99103
20
182.72412
30
-433.0127
11
212.5763
21
181.21124
31
-433.0127
0
LINE
8
0
10
212.5763
20
181.21124
30
-433.0127
11
210.23224
21
179.18796
31
-433.0127
0
LINE
8
0
10
210.23224
20
179.18796
30
-433.0127
11
207.96704
21
176.70892
31
-433.0127
0
LINE
8
0
10
207.96704
20
176.70892
30
-433.0127
11
205.78888
21
173.8288
31
-433.0127
0
LINE
8
0
10
205.78888
20
173.8288
30
-433.0127
11
203.70593
21
170.60223
31
-433.0127
0
LINE
8
0
10
203.70593
20
170.60223
30
-433.0127
11
201.72632
21
167.08386
31
-433.0127
0
LINE
8
0
10
201.72632
20
167.08386
30
-433.0127
11
199.85815
21
163.32837
31
-433.0127
0
LINE
8
0
10
199.85815
20
163.32837
30
-433.0127
11
198.10968
21
159.39041
31
-433.0127
0
LINE
8
0
10
198.10968
20
159.39041
30
-433.0127
11
196.48901
21
155.32465
31
-433.0127
0
LINE
8
0
10
196.48901
20
155.32465
30
-433.0127
11
195.00427
21
151.18576
31
-433.0127
0
LINE
8
0
10
195.00427
20
151.18576
30
-433.0127
11
193.6637
21
147.02838
31
-433.0127
0
LINE
8
0
10
193.6637
20
147.02838
30
-433.0127
11
192.4754
21
142.90717
31
-433.0127
0
LINE
8
0
10
192.4754
20
142.90717
30
-433.0127
11
191.44751
21
138.87677
31
-433.0127
0
LINE
8
0
10
191.44751
20
138.87677
30
-433.0127
11
190.58826
21
134.99185
31
-433.0127
0
LINE
8
0
10
190.58826
20
134.99185
30
-433.0127
11
189.90576
21
131.30707
31
-433.0127
0
LINE
8
0
10
189.90576
20
131.30707
30
-433.0127
11
189.40814
21
127.877106
31
-433.0127
0
LINE
8
0
10
189.40814
20
127.877106
30
-433.0127
11
189.10364
21
124.75659
31
-433.0127
0
LINE
8
0
10
189.10364
20
124.75659
30
-433.0127
11
189.0003
21
122.00018
31
-433.0127
0
ENDSEC
0
EOF
