0
SECTION
2
ENTITIES
0
3DFACE
8
0
10
456.0
20
390.0
30
0.0
11
456.0
21
391.0
31
0.0
12
260.0
22
391.0
32
0.0
13
260.0001
23
391.0001
33
1.0E-4
0
3DFACE
8
0
10
260.0
20
391.0
30
0.0
11
456.0
21
390.0
31
0.0
12
260.0
22
390.0
32
0.0
13
260.0001
23
390.0001
33
1.0E-4
0
3DFACE
8
0
10
454.47525
20
325.47397
30
0.0
11
454.52603
21
324.47525
31
0.0
12
464.78726
22
324.99728
32
0.0
13
464.78735
23
324.99738
33
1.0E-4
0
3DFACE
8
0
10
464.78726
20
324.99728
30
0.0
11
454.47525
21
325.47397
31
0.0
12
464.73648
22
325.996
32
0.0
13
464.73657
23
325.9961
33
1.0E-4
0
3DFACE
8
0
10
463.6887
20
325.88443
30
0.0
11
463.84933
21
324.89743
31
0.0
12
473.12384
22
326.40683
32
0.0
13
473.12393
23
326.40692
33
1.0E-4
0
3DFACE
8
0
10
473.12384
20
326.40683
30
0.0
11
463.6887
21
325.88443
31
0.0
12
472.9632
22
327.39383
32
0.0
13
472.9633
23
327.39392
33
1.0E-4
0
3DFACE
8
0
10
471.9302
20
327.16034
30
0.0
11
472.2097
21
326.2002
31
0.0
12
480.48233
22
328.60843
32
0.0
13
480.48242
23
328.60852
33
1.0E-4
0
3DFACE
8
0
10
480.48233
20
328.60843
30
0.0
11
471.9302
21
327.16034
31
0.0
12
480.20285
22
329.56857
32
0.0
13
480.20294
23
329.56866
33
1.0E-4
0
3DFACE
8
0
10
479.20273
20
329.2031
30
0.0
11
479.6082
21
328.28897
31
0.0
12
486.8598
22
331.50568
32
0.0
13
486.8599
23
331.50577
33
1.0E-4
0
3DFACE
8
0
10
486.8598
20
331.50568
30
0.0
11
479.20273
21
329.2031
31
0.0
12
486.45435
22
332.4198
32
0.0
13
486.45444
23
332.4199
33
1.0E-4
0
3DFACE
8
0
10
485.51007
20
331.91492
30
0.0
11
486.0451
21
331.07007
31
0.0
12
492.25244
22
335.00134
32
0.0
13
492.25253
23
335.00143
33
1.0E-4
0
3DFACE
8
0
10
492.25244
20
335.00134
30
0.0
11
485.51007
21
331.91492
31
0.0
12
491.7174
22
335.8462
32
0.0
13
491.7175
23
335.84628
33
1.0E-4
0
3DFACE
8
0
10
490.8567
20
335.19922
30
0.0
11
491.51953
21
334.45044
31
0.0
12
496.65582
22
338.99704
32
0.0
13
496.6559
23
338.99713
33
1.0E-4
0
3DFACE
8
0
10
496.65582
20
338.99704
30
0.0
11
490.8567
21
335.19922
31
0.0
12
495.99298
22
339.74582
32
0.0
13
495.99307
23
339.7459
33
1.0E-4
0
3DFACE
8
0
10
495.2473
20
338.96127
30
0.0
11
496.02875
21
338.3373
31
0.0
12
500.06522
22
343.3925
32
0.0
13
500.0653
23
343.39258
33
1.0E-4
0
3DFACE
8
0
10
500.06522
20
343.3925
30
0.0
11
495.2473
21
338.96127
31
0.0
12
499.28378
22
344.01645
32
0.0
13
499.28387
23
344.01654
33
1.0E-4
0
3DFACE
8
0
10
498.68597
20
343.1081
30
0.0
11
499.56818
21
342.6372
31
0.0
12
502.47656
22
348.08566
32
0.0
13
502.47665
23
348.08575
33
1.0E-4
0
3DFACE
8
0
10
502.47656
20
348.08566
30
0.0
11
498.68597
21
343.1081
31
0.0
12
501.59436
22
348.55655
32
0.0
13
501.59445
23
348.55664
33
1.0E-4
0
3DFACE
8
0
10
501.17523
20
347.54886
30
0.0
11
502.13116
21
347.25522
31
0.0
12
503.8873
22
352.9724
32
0.0
13
503.8874
23
352.9725
33
1.0E-4
0
3DFACE
8
0
10
503.8873
20
352.9724
30
0.0
11
501.17523
21
347.54886
31
0.0
12
502.93137
22
353.26605
32
0.0
13
502.93146
23
353.26614
33
1.0E-4
0
3DFACE
8
0
10
502.7151
20
352.1937
30
0.0
11
503.71008
21
352.09384
31
0.0
12
504.29745
22
357.9476
32
0.0
13
504.29755
23
357.9477
33
1.0E-4
0
3DFACE
8
0
10
504.29745
20
357.9476
30
0.0
11
502.7151
21
352.1937
31
0.0
12
503.30246
22
358.04745
32
0.0
13
503.30255
23
358.04755
33
1.0E-4
0
3DFACE
8
0
10
503.30246
20
356.9526
30
0.0
11
504.29745
21
357.05246
31
0.0
12
503.7101
22
362.90622
32
0.0
13
503.7102
23
362.9063
33
1.0E-4
0
3DFACE
8
0
10
503.7101
20
362.90622
30
0.0
11
503.30246
21
356.9526
31
0.0
12
502.71512
22
362.80637
32
0.0
13
502.7152
23
362.80646
33
1.0E-4
0
3DFACE
8
0
10
502.9314
20
361.734
30
0.0
11
503.88733
21
362.02765
31
0.0
12
502.1312
22
367.74484
32
0.0
13
502.1313
23
367.74493
33
1.0E-4
0
3DFACE
8
0
10
502.1312
20
367.74484
30
0.0
11
502.9314
21
361.734
31
0.0
12
501.17526
22
367.4512
32
0.0
13
501.17535
23
367.4513
33
1.0E-4
0
3DFACE
8
0
10
501.5944
20
366.4435
30
0.0
11
502.4766
21
366.9144
31
0.0
12
499.5682
22
372.36285
32
0.0
13
499.5683
23
372.36295
33
1.0E-4
0
3DFACE
8
0
10
499.5682
20
372.36285
30
0.0
11
501.5944
21
366.4435
31
0.0
12
498.686
22
371.89197
32
0.0
13
498.6861
23
371.89206
33
1.0E-4
0
3DFACE
8
0
10
499.2838
20
370.9836
30
0.0
11
500.06525
21
371.60757
31
0.0
12
496.02878
22
376.66278
32
0.0
13
496.02887
23
376.66287
33
1.0E-4
0
3DFACE
8
0
10
496.02878
20
376.66278
30
0.0
11
499.2838
21
370.9836
31
0.0
12
495.24734
22
376.03882
32
0.0
13
495.24744
23
376.0389
33
1.0E-4
0
3DFACE
8
0
10
495.993
20
375.25427
30
0.0
11
496.65585
21
376.00305
31
0.0
12
491.5196
22
380.54965
32
0.0
13
491.51968
23
380.54974
33
1.0E-4
0
3DFACE
8
0
10
491.5196
20
380.54965
30
0.0
11
495.993
21
375.25427
31
0.0
12
490.85675
22
379.80087
32
0.0
13
490.85684
23
379.80096
33
1.0E-4
0
3DFACE
8
0
10
491.71744
20
379.15393
30
0.0
11
492.25247
21
379.99872
31
0.0
12
486.0452
22
383.93002
32
0.0
13
486.0453
23
383.9301
33
1.0E-4
0
3DFACE
8
0
10
486.0452
20
383.93002
30
0.0
11
491.71744
21
379.15393
31
0.0
12
485.51016
22
383.08524
32
0.0
13
485.51025
23
383.08533
33
1.0E-4
0
3DFACE
8
0
10
486.4544
20
382.58032
30
0.0
11
486.85986
21
383.49445
31
0.0
12
479.60825
22
386.71115
32
0.0
13
479.60834
23
386.71124
33
1.0E-4
0
3DFACE
8
0
10
479.60825
20
386.71115
30
0.0
11
486.4544
21
382.58032
31
0.0
12
479.2028
22
385.79703
32
0.0
13
479.20288
23
385.79712
33
1.0E-4
0
3DFACE
8
0
10
480.2029
20
385.43155
30
0.0
11
480.4824
21
386.3917
31
0.0
12
472.20975
22
388.79993
32
0.0
13
472.20984
23
388.80002
33
1.0E-4
0
3DFACE
8
0
10
472.20975
20
388.79993
30
0.0
11
480.2029
21
385.43155
31
0.0
12
471.93027
22
387.83978
32
0.0
13
471.93036
23
387.83987
33
1.0E-4
0
3DFACE
8
0
10
472.96326
20
387.6063
30
0.0
11
473.1239
21
388.5933
31
0.0
12
463.84943
22
390.1027
32
0.0
13
463.84952
23
390.10278
33
1.0E-4
0
3DFACE
8
0
10
463.84943
20
390.1027
30
0.0
11
472.96326
21
387.6063
31
0.0
12
463.68878
22
389.1157
32
0.0
13
463.68887
23
389.11578
33
1.0E-4
0
3DFACE
8
0
10
464.73654
20
389.0041
30
0.0
11
464.78738
21
390.0028
31
0.0
12
454.52618
22
390.5249
32
0.0
13
454.52628
23
390.525
33
1.0E-4
0
3DFACE
8
0
10
454.52618
20
390.5249
30
0.0
11
464.73654
21
389.0041
31
0.0
12
454.47534
22
389.52618
32
0.0
13
454.47543
23
389.52628
33
1.0E-4
0
3DFACE
8
0
10
260.0
20
326.0
30
0.0
11
260.0
21
325.0
31
0.0
12
456.0
22
325.0
32
0.0
13
456.0001
23
325.0001
33
1.0E-4
0
3DFACE
8
0
10
456.0
20
325.0
30
0.0
11
260.0
21
326.0
31
0.0
12
456.0
22
326.0
32
0.0
13
456.0001
23
326.0001
33
1.0E-4
0
3DFACE
8
0
10
260.47397
20
259.47525
30
0.0
11
260.52475
21
260.47397
31
0.0
12
250.26355
22
260.996
32
0.0
13
250.26366
23
260.9961
33
1.0E-4
0
3DFACE
8
0
10
250.26355
20
260.996
30
0.0
11
260.47397
21
259.47525
31
0.0
12
250.21274
22
259.99728
32
0.0
13
250.21284
23
259.99738
33
1.0E-4
0
3DFACE
8
0
10
251.15068
20
259.89743
30
0.0
11
251.31133
21
260.88443
31
0.0
12
242.03683
22
262.39383
32
0.0
13
242.03694
23
262.39392
33
1.0E-4
0
3DFACE
8
0
10
242.03683
20
262.39383
30
0.0
11
251.15068
21
259.89743
31
0.0
12
241.87619
22
261.40683
32
0.0
13
241.8763
23
261.40692
33
1.0E-4
0
3DFACE
8
0
10
242.79033
20
261.2002
30
0.0
11
243.06984
21
262.16034
31
0.0
12
234.7972
22
264.56857
32
0.0
13
234.7973
23
264.56866
33
1.0E-4
0
3DFACE
8
0
10
234.7972
20
264.56857
30
0.0
11
242.79033
21
261.2002
31
0.0
12
234.51768
22
263.60843
32
0.0
13
234.51779
23
263.60852
33
1.0E-4
0
3DFACE
8
0
10
235.39182
20
263.28897
30
0.0
11
235.7973
21
264.2031
31
0.0
12
228.54572
22
267.4198
32
0.0
13
228.54582
23
267.4199
33
1.0E-4
0
3DFACE
8
0
10
228.54572
20
267.4198
30
0.0
11
235.39182
21
263.28897
31
0.0
12
228.14023
22
266.50568
32
0.0
13
228.14034
23
266.50577
33
1.0E-4
0
3DFACE
8
0
10
228.9549
20
266.07007
30
0.0
11
229.48996
21
266.91492
31
0.0
12
223.28264
22
270.8462
32
0.0
13
223.28275
23
270.84628
33
1.0E-4
0
3DFACE
8
0
10
223.28264
20
270.8462
30
0.0
11
228.9549
21
266.07007
31
0.0
12
222.74757
22
270.00134
32
0.0
13
222.74768
23
270.00143
33
1.0E-4
0
3DFACE
8
0
10
223.4805
20
269.45044
30
0.0
11
224.14331
21
270.19922
31
0.0
12
219.00703
22
274.74582
32
0.0
13
219.00714
23
274.7459
33
1.0E-4
0
3DFACE
8
0
10
219.00703
20
274.74582
30
0.0
11
223.4805
21
269.45044
31
0.0
12
218.34422
22
273.99704
32
0.0
13
218.34433
23
273.99713
33
1.0E-4
0
3DFACE
8
0
10
218.97127
20
273.3373
30
0.0
11
219.75273
21
273.96127
31
0.0
12
215.71628
22
279.01645
32
0.0
13
215.71638
23
279.01654
33
1.0E-4
0
3DFACE
8
0
10
215.71628
20
279.01645
30
0.0
11
218.97127
21
273.3373
31
0.0
12
214.93481
22
278.3925
32
0.0
13
214.93492
23
278.39258
33
1.0E-4
0
3DFACE
8
0
10
215.4319
20
277.6372
30
0.0
11
216.31407
21
278.1081
31
0.0
12
213.40565
22
283.55655
32
0.0
13
213.40576
23
283.55664
33
1.0E-4
0
3DFACE
8
0
10
213.40565
20
283.55655
30
0.0
11
215.4319
21
277.6372
31
0.0
12
212.52348
22
283.08566
32
0.0
13
212.52359
23
283.08575
33
1.0E-4
0
3DFACE
8
0
10
212.86888
20
282.25522
30
0.0
11
213.82481
21
282.54886
31
0.0
12
212.06868
22
288.26605
32
0.0
13
212.06879
23
288.26614
33
1.0E-4
0
3DFACE
8
0
10
212.06868
20
288.26605
30
0.0
11
212.86888
21
282.25522
31
0.0
12
211.11275
22
287.9724
32
0.0
13
211.11285
23
287.9725
33
1.0E-4
0
3DFACE
8
0
10
211.28995
20
287.09384
30
0.0
11
212.28494
21
287.1937
31
0.0
12
211.69762
22
293.04745
32
0.0
13
211.69772
23
293.04755
33
1.0E-4
0
3DFACE
8
0
10
211.69762
20
293.04745
30
0.0
11
211.28995
21
287.09384
31
0.0
12
210.70262
22
292.9476
32
0.0
13
210.70273
23
292.9477
33
1.0E-4
0
3DFACE
8
0
10
210.70262
20
292.05246
30
0.0
11
211.69762
21
291.9526
31
0.0
12
212.28494
22
297.80637
32
0.0
13
212.28505
23
297.80646
33
1.0E-4
0
3DFACE
8
0
10
212.28494
20
297.80637
30
0.0
11
210.70262
21
292.05246
31
0.0
12
211.28995
22
297.90622
32
0.0
13
211.29005
23
297.9063
33
1.0E-4
0
3DFACE
8
0
10
211.11275
20
297.02765
30
0.0
11
212.06868
21
296.734
31
0.0
12
213.82483
22
302.4512
32
0.0
13
213.82494
23
302.4513
33
1.0E-4
0
3DFACE
8
0
10
213.82483
20
302.4512
30
0.0
11
211.11275
21
297.02765
31
0.0
12
212.8689
22
302.74484
32
0.0
13
212.869
23
302.74493
33
1.0E-4
0
3DFACE
8
0
10
212.5235
20
301.9144
30
0.0
11
213.40567
21
301.4435
31
0.0
12
216.31409
22
306.89197
32
0.0
13
216.3142
23
306.89206
33
1.0E-4
0
3DFACE
8
0
10
216.31409
20
306.89197
30
0.0
11
212.5235
21
301.9144
31
0.0
12
215.43192
22
307.36285
32
0.0
13
215.43202
23
307.36295
33
1.0E-4
0
3DFACE
8
0
10
214.93484
20
306.60757
30
0.0
11
215.71628
21
305.9836
31
0.0
12
219.75275
22
311.0388
32
0.0
13
219.75285
23
311.03888
33
1.0E-4
0
3DFACE
8
0
10
219.75275
20
311.0388
30
0.0
11
214.93484
21
306.60757
31
0.0
12
218.97131
22
311.66275
32
0.0
13
218.97142
23
311.66284
33
1.0E-4
0
3DFACE
8
0
10
218.34425
20
311.00302
30
0.0
11
219.00706
21
310.25424
31
0.0
12
224.14336
22
314.80084
32
0.0
13
224.14346
23
314.80093
33
1.0E-4
0
3DFACE
8
0
10
224.14336
20
314.80084
30
0.0
11
218.34425
21
311.00302
31
0.0
12
223.48055
22
315.54962
32
0.0
13
223.48065
23
315.5497
33
1.0E-4
0
3DFACE
8
0
10
222.74762
20
314.9987
30
0.0
11
223.28268
21
314.1539
31
0.0
12
229.49
22
318.0852
32
0.0
13
229.49011
23
318.0853
33
1.0E-4
0
3DFACE
8
0
10
229.49
20
318.0852
30
0.0
11
222.74762
21
314.9987
31
0.0
12
228.95494
22
318.93
32
0.0
13
228.95505
23
318.93008
33
1.0E-4
0
3DFACE
8
0
10
228.14027
20
318.49442
30
0.0
11
228.54576
21
317.5803
31
0.0
12
235.79736
22
320.797
32
0.0
13
235.79747
23
320.7971
33
1.0E-4
0
3DFACE
8
0
10
235.79736
20
320.797
30
0.0
11
228.14027
21
318.49442
31
0.0
12
235.39188
22
321.71112
32
0.0
13
235.39198
23
321.7112
33
1.0E-4
0
3DFACE
8
0
10
234.51775
20
321.39166
30
0.0
11
234.79726
21
320.43152
31
0.0
12
243.0699
22
322.83975
32
0.0
13
243.07
23
322.83984
33
1.0E-4
0
3DFACE
8
0
10
243.0699
20
322.83975
30
0.0
11
234.51775
21
321.39166
31
0.0
12
242.79039
22
323.7999
32
0.0
13
242.7905
23
323.8
33
1.0E-4
0
3DFACE
8
0
10
241.87625
20
323.59326
30
0.0
11
242.0369
21
322.60626
31
0.0
12
251.3114
22
324.11566
32
0.0
13
251.31151
23
324.11575
33
1.0E-4
0
3DFACE
8
0
10
251.3114
20
324.11566
30
0.0
11
241.87625
21
323.59326
31
0.0
12
251.15076
22
325.10266
32
0.0
13
251.15086
23
325.10275
33
1.0E-4
0
3DFACE
8
0
10
250.21281
20
325.0028
30
0.0
11
250.26363
21
324.0041
31
0.0
12
260.52484
22
324.52612
32
0.0
13
260.52493
23
324.5262
33
1.0E-4
0
3DFACE
8
0
10
260.52484
20
324.52612
30
0.0
11
250.21281
21
325.0028
31
0.0
12
260.47406
22
325.52484
32
0.0
13
260.47415
23
325.52493
33
1.0E-4
0
3DFACE
8
0
10
586.0
20
260.0
30
0.0
11
586.0
21
261.0
31
0.0
12
260.0
22
261.0
32
0.0
13
260.0001
23
261.0001
33
1.0E-4
0
3DFACE
8
0
10
260.0
20
261.0
30
0.0
11
586.0
21
260.0
31
0.0
12
260.0
22
260.0
32
0.0
13
260.0001
23
260.0001
33
1.0E-4
0
3DFACE
8
0
10
584.4303
20
65.41884
30
0.0
11
584.5812
21
64.43028
31
0.0
12
594.8322
22
65.99491
32
0.0
13
594.83234
23
65.99501
33
1.0E-4
0
3DFACE
8
0
10
594.8322
20
65.99491
30
0.0
11
584.4303
21
65.41884
31
0.0
12
594.68134
22
66.98347
32
0.0
13
594.68146
23
66.98357
33
1.0E-4
0
3DFACE
8
0
10
593.5939
20
66.64369
30
0.0
11
594.0326
21
65.74507
31
0.0
12
603.2186
22
70.23006
32
0.0
13
603.21875
23
70.230156
33
1.0E-4
0
3DFACE
8
0
10
603.2186
20
70.23006
30
0.0
11
593.5939
21
66.64369
31
0.0
12
602.7799
22
71.12868
32
0.0
13
602.78
23
71.12878
33
1.0E-4
0
3DFACE
8
0
10
601.8445
20
70.507706
30
0.0
11
602.5023
21
69.7545
31
0.0
12
610.568
22
76.798546
32
0.0
13
610.5681
23
76.798645
33
1.0E-4
0
3DFACE
8
0
10
610.568
20
76.798546
30
0.0
11
601.8445
21
70.507706
31
0.0
12
609.91016
22
77.55175
32
0.0
13
609.9103
23
77.55185
33
1.0E-4
0
3DFACE
8
0
10
609.1624
20
76.7469
30
0.0
11
609.96185
21
76.146164
31
0.0
12
616.9001
22
85.37936
32
0.0
13
616.9002
23
85.379456
33
1.0E-4
0
3DFACE
8
0
10
616.9001
20
85.37936
30
0.0
11
609.1624
21
76.7469
31
0.0
12
616.10065
22
85.980095
32
0.0
13
616.10077
23
85.980194
33
1.0E-4
0
3DFACE
8
0
10
615.5247
20
85.07042
30
0.0
11
616.4096
21
84.604675
31
0.0
12
622.2378
22
95.678345
32
0.0
13
622.2379
23
95.678444
33
1.0E-4
0
3DFACE
8
0
10
622.2378
20
95.678345
30
0.0
11
615.5247
21
85.07042
31
0.0
12
621.3529
22
96.14409
32
0.0
13
621.353
23
96.14419
33
1.0E-4
0
3DFACE
8
0
10
620.9184
20
95.17704
30
0.0
11
621.8542
21
94.82462
31
0.0
12
626.5941
22
107.41173
32
0.0
13
626.59424
23
107.41183
33
1.0E-4
0
3DFACE
8
0
10
626.5941
20
107.41173
30
0.0
11
620.9184
21
95.17704
31
0.0
12
625.6583
22
107.764145
32
0.0
13
625.65845
23
107.764244
33
1.0E-4
0
3DFACE
8
0
10
625.33826
20
106.765434
30
0.0
11
626.30457
21
106.50823
31
0.0
12
629.97424
22
120.29584
32
0.0
13
629.97437
23
120.29594
33
1.0E-4
0
3DFACE
8
0
10
629.97424
20
120.29584
30
0.0
11
625.33826
21
106.765434
31
0.0
12
629.00793
22
120.55304
32
0.0
13
629.00806
23
120.55314
33
1.0E-4
0
3DFACE
8
0
10
628.78265
20
119.53658
30
0.0
11
629.76715
21
119.3614
31
0.0
12
632.3798
22
134.0447
32
0.0
13
632.37994
23
134.0448
33
1.0E-4
0
3DFACE
8
0
10
632.3798
20
134.0447
30
0.0
11
628.78265
21
119.53658
31
0.0
12
631.3953
22
134.21986
32
0.0
13
631.39545
23
134.21997
33
1.0E-4
0
3DFACE
8
0
10
631.2517
20
133.19354
30
0.0
11
632.24646
21
133.09167
31
0.0
12
633.8108
22
148.37024
32
0.0
13
633.8109
23
148.37035
33
1.0E-4
0
3DFACE
8
0
10
633.8108
20
148.37024
30
0.0
11
631.2517
21
133.19354
31
0.0
12
632.81604
22
148.4721
32
0.0
13
632.81616
23
148.47221
33
1.0E-4
0
3DFACE
8
0
10
632.7461
20
147.44075
30
0.0
11
633.7455
21
147.40733
31
0.0
12
634.2664
22
162.98303
32
0.0
13
634.26654
23
162.98314
33
1.0E-4
0
3DFACE
8
0
10
634.2664
20
162.98303
30
0.0
11
632.7461
21
147.44075
31
0.0
12
633.267
22
163.01645
32
0.0
13
633.26715
23
163.01656
33
1.0E-4
0
3DFACE
8
0
10
633.267
20
161.98358
30
0.0
11
634.2664
21
162.017
31
0.0
12
633.7455
22
177.5927
32
0.0
13
633.7456
23
177.5928
33
1.0E-4
0
3DFACE
8
0
10
633.7455
20
177.5927
30
0.0
11
633.267
21
161.98358
31
0.0
12
632.7461
22
177.55928
32
0.0
13
632.7462
23
177.55939
33
1.0E-4
0
3DFACE
8
0
10
632.81604
20
176.52792
30
0.0
11
633.8108
21
176.62979
31
0.0
12
632.24646
22
191.90836
32
0.0
13
632.2466
23
191.90846
33
1.0E-4
0
3DFACE
8
0
10
632.24646
20
191.90836
30
0.0
11
632.81604
21
176.52792
31
0.0
12
631.2517
22
191.80649
32
0.0
13
631.25183
23
191.8066
33
1.0E-4
0
3DFACE
8
0
10
631.3953
20
190.78017
30
0.0
11
632.3798
21
190.95534
31
0.0
12
629.76715
22
205.63861
32
0.0
13
629.7673
23
205.63872
33
1.0E-4
0
3DFACE
8
0
10
629.76715
20
205.63861
30
0.0
11
631.3953
21
190.78017
31
0.0
12
628.78265
22
205.46344
32
0.0
13
628.7828
23
205.46355
33
1.0E-4
0
3DFACE
8
0
10
629.00793
20
204.44698
30
0.0
11
629.97424
21
204.70418
31
0.0
12
626.30457
22
218.4918
32
0.0
13
626.3047
23
218.49191
33
1.0E-4
0
3DFACE
8
0
10
626.30457
20
218.4918
30
0.0
11
629.00793
21
204.44698
31
0.0
12
625.33826
22
218.2346
32
0.0
13
625.3384
23
218.23471
33
1.0E-4
0
3DFACE
8
0
10
625.6583
20
217.23589
30
0.0
11
626.5941
21
217.5883
31
0.0
12
621.8542
22
230.17542
32
0.0
13
621.8543
23
230.17552
33
1.0E-4
0
3DFACE
8
0
10
621.8542
20
230.17542
30
0.0
11
625.6583
21
217.23589
31
0.0
12
620.9184
22
229.823
32
0.0
13
620.9185
23
229.8231
33
1.0E-4
0
3DFACE
8
0
10
621.3529
20
228.85594
30
0.0
11
622.2378
21
229.3217
31
0.0
12
616.4096
22
240.39537
32
0.0
13
616.4097
23
240.39548
33
1.0E-4
0
3DFACE
8
0
10
616.4096
20
240.39537
30
0.0
11
621.3529
21
228.85594
31
0.0
12
615.5247
22
239.92961
32
0.0
13
615.52484
23
239.92972
33
1.0E-4
0
3DFACE
8
0
10
616.10065
20
239.01994
30
0.0
11
616.9001
21
239.62068
31
0.0
12
609.96185
22
248.85387
32
0.0
13
609.962
23
248.85397
33
1.0E-4
0
3DFACE
8
0
10
609.96185
20
248.85387
30
0.0
11
616.10065
21
239.01994
31
0.0
12
609.1624
22
248.25313
32
0.0
13
609.16254
23
248.25323
33
1.0E-4
0
3DFACE
8
0
10
609.91016
20
247.44827
30
0.0
11
610.568
21
248.20148
31
0.0
12
602.5023
22
255.24554
32
0.0
13
602.50244
23
255.24565
33
1.0E-4
0
3DFACE
8
0
10
602.5023
20
255.24554
30
0.0
11
609.91016
21
247.44827
31
0.0
12
601.8445
22
254.49234
32
0.0
13
601.8446
23
254.49245
33
1.0E-4
0
3DFACE
8
0
10
602.7799
20
253.87135
30
0.0
11
603.2186
21
254.76997
31
0.0
12
594.0326
22
259.25497
32
0.0
13
594.0327
23
259.25507
33
1.0E-4
0
3DFACE
8
0
10
594.0326
20
259.25497
30
0.0
11
602.7799
21
253.87135
31
0.0
12
593.5939
22
258.35635
32
0.0
13
593.594
23
258.35645
33
1.0E-4
0
3DFACE
8
0
10
594.68134
20
258.0166
30
0.0
11
594.8322
21
259.00513
31
0.0
12
584.5812
22
260.56976
32
0.0
13
584.5813
23
260.56985
33
1.0E-4
0
3DFACE
8
0
10
584.5812
20
260.56976
30
0.0
11
594.68134
21
258.0166
31
0.0
12
584.4303
22
259.58124
32
0.0
13
584.4304
23
259.58133
33
1.0E-4
0
3DFACE
8
0
10
195.0
20
66.0
30
0.0
11
195.0
21
65.0
31
0.0
12
586.0
22
65.0
32
0.0
13
586.0001
23
65.0001
33
1.0E-4
0
3DFACE
8
0
10
586.0
20
65.0
30
0.0
11
195.0
21
66.0
31
0.0
12
586.0
22
66.0
32
0.0
13
586.0001
23
66.0001
33
1.0E-4
0
3DFACE
8
0
10
195.52477
20
129.52605
30
0.0
11
195.47395
21
130.52477
31
0.0
12
185.21274
22
130.0027
32
0.0
13
185.21284
23
130.0028
33
1.0E-4
0
3DFACE
8
0
10
185.21274
20
130.0027
30
0.0
11
195.52477
21
129.52605
31
0.0
12
185.26355
22
129.00398
32
0.0
13
185.26366
23
129.00409
33
1.0E-4
0
3DFACE
8
0
10
186.31133
20
129.11557
30
0.0
11
186.15068
21
130.10257
31
0.0
12
176.87617
22
128.59317
32
0.0
13
176.87628
23
128.59328
33
1.0E-4
0
3DFACE
8
0
10
176.87617
20
128.59317
30
0.0
11
186.31133
21
129.11557
31
0.0
12
177.03682
22
127.60617
32
0.0
13
177.03693
23
127.60627
33
1.0E-4
0
3DFACE
8
0
10
178.06982
20
127.839676
30
0.0
11
177.79031
21
128.79982
31
0.0
12
169.51767
22
126.39156
32
0.0
13
169.51778
23
126.39166
33
1.0E-4
0
3DFACE
8
0
10
169.51767
20
126.39156
30
0.0
11
178.06982
21
127.839676
31
0.0
12
169.79718
22
125.43142
32
0.0
13
169.79729
23
125.43152
33
1.0E-4
0
3DFACE
8
0
10
170.79729
20
125.796936
30
0.0
11
170.3918
21
126.711044
31
0.0
12
163.14021
22
123.49431
32
0.0
13
163.14032
23
123.49441
33
1.0E-4
0
3DFACE
8
0
10
163.14021
20
123.49431
30
0.0
11
170.79729
21
125.796936
31
0.0
12
163.5457
22
122.5802
32
0.0
13
163.5458
23
122.5803
33
1.0E-4
0
3DFACE
8
0
10
164.48994
20
123.08511
30
0.0
11
163.95488
21
123.92993
31
0.0
12
157.74756
22
119.998634
32
0.0
13
157.74767
23
119.99873
33
1.0E-4
0
3DFACE
8
0
10
157.74756
20
119.998634
30
0.0
11
164.48994
21
123.08511
31
0.0
12
158.28262
22
119.15382
32
0.0
13
158.28273
23
119.153915
33
1.0E-4
0
3DFACE
8
0
10
159.1433
20
119.800766
30
0.0
11
158.48048
21
120.549545
31
0.0
12
153.34421
22
116.00298
32
0.0
13
153.34431
23
116.00308
33
1.0E-4
0
3DFACE
8
0
10
153.34421
20
116.00298
30
0.0
11
159.1433
21
119.800766
31
0.0
12
154.00702
22
115.2542
32
0.0
13
154.00713
23
115.2543
33
1.0E-4
0
3DFACE
8
0
10
154.75272
20
116.03874
30
0.0
11
153.97125
21
116.662704
31
0.0
12
149.9348
22
111.607506
32
0.0
13
149.9349
23
111.607605
33
1.0E-4
0
3DFACE
8
0
10
149.9348
20
111.607506
30
0.0
11
154.75272
21
116.03874
31
0.0
12
150.71626
22
110.98354
32
0.0
13
150.71637
23
110.98364
33
1.0E-4
0
3DFACE
8
0
10
151.31406
20
111.89188
30
0.0
11
150.43188
21
112.36279
31
0.0
12
147.52347
22
106.914375
32
0.0
13
147.52357
23
106.914474
33
1.0E-4
0
3DFACE
8
0
10
147.52347
20
106.914375
30
0.0
11
151.31406
21
111.89188
31
0.0
12
148.40564
22
106.44346
32
0.0
13
148.40575
23
106.44356
33
1.0E-4
0
3DFACE
8
0
10
148.8248
20
107.45115
30
0.0
11
147.86887
21
107.744774
31
0.0
12
146.11273
22
102.02761
32
0.0
13
146.11284
23
102.02771
33
1.0E-4
0
3DFACE
8
0
10
146.11273
20
102.02761
30
0.0
11
148.8248
21
107.45115
31
0.0
12
147.06866
22
101.733986
32
0.0
13
147.06877
23
101.734085
33
1.0E-4
0
3DFACE
8
0
10
147.28493
20
102.80634
30
0.0
11
146.28993
21
102.90618
31
0.0
12
145.7026
22
97.05242
32
0.0
13
145.70271
23
97.05252
33
1.0E-4
0
3DFACE
8
0
10
145.7026
20
97.05242
30
0.0
11
147.28493
21
102.80634
31
0.0
12
146.6976
22
96.95258
32
0.0
13
146.69771
23
96.95268
33
1.0E-4
0
3DFACE
8
0
10
146.6976
20
98.04743
30
0.0
11
145.7026
21
97.94759
31
0.0
12
146.28993
22
92.093834
32
0.0
13
146.29004
23
92.09393
33
1.0E-4
0
3DFACE
8
0
10
146.28993
20
92.093834
30
0.0
11
146.6976
21
98.04743
31
0.0
12
147.28493
22
92.19367
32
0.0
13
147.28503
23
92.19377
33
1.0E-4
0
3DFACE
8
0
10
147.06866
20
93.26603
30
0.0
11
146.11273
21
92.972404
31
0.0
12
147.86888
22
87.25524
32
0.0
13
147.86899
23
87.25534
33
1.0E-4
0
3DFACE
8
0
10
147.86888
20
87.25524
30
0.0
11
147.06866
21
93.26603
31
0.0
12
148.82481
22
87.54887
32
0.0
13
148.82492
23
87.548965
33
1.0E-4
0
3DFACE
8
0
10
148.40565
20
88.55656
30
0.0
11
147.52348
21
88.08564
31
0.0
12
150.4319
22
82.63722
32
0.0
13
150.432
23
82.63732
33
1.0E-4
0
3DFACE
8
0
10
150.4319
20
82.63722
30
0.0
11
148.40565
21
88.55656
31
0.0
12
151.31407
22
83.10814
32
0.0
13
151.31418
23
83.10824
33
1.0E-4
0
3DFACE
8
0
10
150.71626
20
84.01648
30
0.0
11
149.93483
21
83.3925
31
0.0
12
153.9713
22
78.3373
32
0.0
13
153.9714
23
78.3374
33
1.0E-4
0
3DFACE
8
0
10
153.9713
20
78.3373
30
0.0
11
150.71626
21
84.01648
31
0.0
12
154.75273
22
78.96128
32
0.0
13
154.75284
23
78.96138
33
1.0E-4
0
3DFACE
8
0
10
154.00705
20
79.74581
30
0.0
11
153.34424
21
78.99703
31
0.0
12
158.48053
22
74.45047
32
0.0
13
158.48064
23
74.45057
33
1.0E-4
0
3DFACE
8
0
10
158.48053
20
74.45047
30
0.0
11
154.00705
21
79.74581
31
0.0
12
159.14334
22
75.19925
32
0.0
13
159.14345
23
75.19935
33
1.0E-4
0
3DFACE
8
0
10
158.28267
20
75.8462
30
0.0
11
157.7476
21
75.00138
31
0.0
12
163.95493
22
71.07008
32
0.0
13
163.95503
23
71.07018
33
1.0E-4
0
3DFACE
8
0
10
163.95493
20
71.07008
30
0.0
11
158.28267
21
75.8462
31
0.0
12
164.48999
22
71.9149
32
0.0
13
164.4901
23
71.915
33
1.0E-4
0
3DFACE
8
0
10
163.54575
20
72.419815
30
0.0
11
163.14026
21
71.50571
31
0.0
12
170.39186
22
68.28897
32
0.0
13
170.39197
23
68.28907
33
1.0E-4
0
3DFACE
8
0
10
170.39186
20
68.28897
30
0.0
11
163.54575
21
72.419815
31
0.0
12
170.79735
22
69.20308
32
0.0
13
170.79745
23
69.20318
33
1.0E-4
0
3DFACE
8
0
10
169.79724
20
69.568596
30
0.0
11
169.51773
21
68.60845
31
0.0
12
177.79037
22
66.200195
32
0.0
13
177.79048
23
66.200294
33
1.0E-4
0
3DFACE
8
0
10
177.79037
20
66.200195
30
0.0
11
169.79724
21
69.568596
31
0.0
12
178.06989
22
67.16034
32
0.0
13
178.06999
23
67.16044
33
1.0E-4
0
3DFACE
8
0
10
177.03688
20
67.393845
30
0.0
11
176.87624
21
66.40683
31
0.0
12
186.15074
22
64.89745
32
0.0
13
186.15085
23
64.89755
33
1.0E-4
0
3DFACE
8
0
10
186.15074
20
64.89745
30
0.0
11
177.03688
21
67.393845
31
0.0
12
186.31139
22
65.88447
32
0.0
13
186.3115
23
65.88457
33
1.0E-4
0
3DFACE
8
0
10
185.26361
20
65.99603
30
0.0
11
185.2128
21
64.99733
31
0.0
12
195.47403
22
64.475266
32
0.0
13
195.47414
23
64.475365
33
1.0E-4
0
3DFACE
8
0
10
195.47403
20
64.475266
30
0.0
11
185.26361
21
65.99603
31
0.0
12
195.52484
22
65.47397
32
0.0
13
195.52495
23
65.47407
33
1.0E-4
0
3DFACE
8
0
10
195.58968
20
389.60974
30
0.0
11
195.39024
21
390.58966
31
0.0
12
185.14783
22
388.50525
32
0.0
13
185.14793
23
388.50534
33
1.0E-4
0
3DFACE
8
0
10
185.14783
20
388.50525
30
0.0
11
195.58968
21
389.60974
31
0.0
12
185.34726
22
387.52533
32
0.0
13
185.34737
23
387.52542
33
1.0E-4
0
3DFACE
8
0
10
186.42932
20
387.96875
30
0.0
11
185.88376
21
388.80682
31
0.0
12
176.75818
22
382.86624
32
0.0
13
176.75829
23
382.86633
33
1.0E-4
0
3DFACE
8
0
10
176.75818
20
382.86624
30
0.0
11
186.42932
21
387.96875
31
0.0
12
177.30374
22
382.02817
32
0.0
13
177.30385
23
382.02826
33
1.0E-4
0
3DFACE
8
0
10
178.15508
20
382.7736
30
0.0
11
177.39644
21
383.42508
31
0.0
12
169.43242
22
374.15143
32
0.0
13
169.43253
23
374.15152
33
1.0E-4
0
3DFACE
8
0
10
169.43242
20
374.15143
30
0.0
11
178.15508
21
382.7736
31
0.0
12
170.19106
22
373.49994
32
0.0
13
170.19116
23
373.50003
33
1.0E-4
0
3DFACE
8
0
10
170.81857
20
374.3951
30
0.0
11
169.94739
21
374.88608
31
0.0
12
163.11893
22
362.76993
32
0.0
13
163.11903
23
362.77002
33
1.0E-4
0
3DFACE
8
0
10
163.11893
20
362.76993
30
0.0
11
170.81857
21
374.3951
31
0.0
12
163.99011
22
362.27896
32
0.0
13
163.99022
23
362.27905
33
1.0E-4
0
3DFACE
8
0
10
164.44865
20
363.24152
30
0.0
11
163.51851
21
363.6087
31
0.0
12
157.78885
22
349.09354
32
0.0
13
157.78896
23
349.09363
33
1.0E-4
0
3DFACE
8
0
10
157.78885
20
349.09354
30
0.0
11
164.44865
21
363.24152
31
0.0
12
158.719
22
348.72635
32
0.0
13
158.7191
23
348.72644
33
1.0E-4
0
3DFACE
8
0
10
159.05457
20
349.7203
30
0.0
11
158.09222
21
349.9921
31
0.0
12
153.43294
22
333.49475
32
0.0
13
153.43304
23
333.49484
33
1.0E-4
0
3DFACE
8
0
10
153.43294
20
333.49475
30
0.0
11
159.05457
21
349.7203
31
0.0
12
154.39528
22
333.22296
32
0.0
13
154.39539
23
333.22305
33
1.0E-4
0
3DFACE
8
0
10
154.63821
20
334.23248
30
0.0
11
153.65756
21
334.42822
31
0.0
12
150.0493
22
316.35257
32
0.0
13
150.04941
23
316.35266
33
1.0E-4
0
3DFACE
8
0
10
150.0493
20
316.35257
30
0.0
11
154.63821
21
334.23248
31
0.0
12
151.02995
22
316.15683
32
0.0
13
151.03006
23
316.15692
33
1.0E-4
0
3DFACE
8
0
10
151.19926
20
317.1745
30
0.0
11
150.20805
21
317.30676
31
0.0
12
147.63826
22
298.05057
32
0.0
13
147.63837
23
298.05066
33
1.0E-4
0
3DFACE
8
0
10
147.63826
20
298.05057
30
0.0
11
151.19926
21
317.1745
31
0.0
12
148.62947
22
297.9183
32
0.0
13
148.62958
23
297.9184
33
1.0E-4
0
3DFACE
8
0
10
148.73683
20
298.9403
30
0.0
11
147.73976
21
299.01685
31
0.0
12
146.2007
22
278.9748
32
0.0
13
146.2008
23
278.97488
33
1.0E-4
0
3DFACE
8
0
10
146.2007
20
278.9748
30
0.0
11
148.73683
21
298.9403
31
0.0
12
147.19777
22
278.89825
32
0.0
13
147.19788
23
278.89835
33
1.0E-4
0
3DFACE
8
0
10
147.24991
20
279.92236
30
0.0
11
146.25021
21
279.94745
31
0.0
12
145.73763
22
259.51276
32
0.0
13
145.73773
23
259.51285
33
1.0E-4
0
3DFACE
8
0
10
145.73763
20
259.51276
30
0.0
11
147.24991
21
279.92236
31
0.0
12
146.73732
22
259.48767
32
0.0
13
146.73743
23
259.48776
33
1.0E-4
0
3DFACE
8
0
10
146.73732
20
260.51245
30
0.0
11
145.73763
21
260.48737
31
0.0
12
146.25021
22
240.05267
32
0.0
13
146.25032
23
240.05278
33
1.0E-4
0
3DFACE
8
0
10
146.25021
20
240.05267
30
0.0
11
146.73732
21
260.51245
31
0.0
12
147.24991
22
240.07776
32
0.0
13
147.25002
23
240.07787
33
1.0E-4
0
3DFACE
8
0
10
147.19777
20
241.10188
30
0.0
11
146.2007
21
241.02531
31
0.0
12
147.73978
22
220.98325
32
0.0
13
147.73988
23
220.98335
33
1.0E-4
0
3DFACE
8
0
10
147.73978
20
220.98325
30
0.0
11
147.19777
21
241.10188
31
0.0
12
148.73685
22
221.05981
32
0.0
13
148.73695
23
221.05992
33
1.0E-4
0
3DFACE
8
0
10
148.62949
20
222.08182
30
0.0
11
147.63828
21
221.94952
31
0.0
12
150.20807
22
202.69331
32
0.0
13
150.20818
23
202.69342
33
1.0E-4
0
3DFACE
8
0
10
150.20807
20
202.69331
30
0.0
11
148.62949
21
222.08182
31
0.0
12
151.19928
22
202.8256
32
0.0
13
151.19939
23
202.82571
33
1.0E-4
0
3DFACE
8
0
10
151.02997
20
203.84328
30
0.0
11
150.04932
21
203.6475
31
0.0
12
153.6576
22
185.57185
32
0.0
13
153.6577
23
185.57196
33
1.0E-4
0
3DFACE
8
0
10
153.6576
20
185.57185
30
0.0
11
151.02997
21
203.84328
31
0.0
12
154.63824
22
185.76762
32
0.0
13
154.63835
23
185.76773
33
1.0E-4
0
3DFACE
8
0
10
154.39531
20
186.77713
30
0.0
11
153.43297
21
186.50534
31
0.0
12
158.09227
22
170.008
32
0.0
13
158.09238
23
170.0081
33
1.0E-4
0
3DFACE
8
0
10
158.09227
20
170.008
30
0.0
11
154.39531
21
186.77713
31
0.0
12
159.05461
22
170.27979
32
0.0
13
159.05472
23
170.27989
33
1.0E-4
0
3DFACE
8
0
10
158.71904
20
171.27371
30
0.0
11
157.7889
21
170.90656
31
0.0
12
163.51855
22
156.3914
32
0.0
13
163.51866
23
156.39151
33
1.0E-4
0
3DFACE
8
0
10
163.51855
20
156.3914
30
0.0
11
158.71904
21
171.27371
31
0.0
12
164.4487
22
156.75856
32
0.0
13
164.4488
23
156.75867
33
1.0E-4
0
3DFACE
8
0
10
163.99016
20
157.72113
30
0.0
11
163.11897
21
157.23016
31
0.0
12
169.94745
22
145.11397
32
0.0
13
169.94756
23
145.11407
33
1.0E-4
0
3DFACE
8
0
10
169.94745
20
145.11397
30
0.0
11
163.99016
21
157.72113
31
0.0
12
170.81863
22
145.60493
32
0.0
13
170.81874
23
145.60504
33
1.0E-4
0
3DFACE
8
0
10
170.19112
20
146.50012
30
0.0
11
169.43248
21
145.8486
31
0.0
12
177.3965
22
136.57497
32
0.0
13
177.3966
23
136.57507
33
1.0E-4
0
3DFACE
8
0
10
177.3965
20
136.57497
30
0.0
11
170.19112
21
146.50012
31
0.0
12
178.15514
22
137.22649
32
0.0
13
178.15524
23
137.2266
33
1.0E-4
0
3DFACE
8
0
10
177.3038
20
137.97186
30
0.0
11
176.75824
21
137.13379
31
0.0
12
185.88382
22
131.19322
32
0.0
13
185.88393
23
131.19333
33
1.0E-4
0
3DFACE
8
0
10
185.88382
20
131.19322
30
0.0
11
177.3038
21
137.97186
31
0.0
12
186.42938
22
132.0313
32
0.0
13
186.42949
23
132.0314
33
1.0E-4
0
3DFACE
8
0
10
185.34732
20
132.47472
30
0.0
11
185.14789
21
131.4948
31
0.0
12
195.39032
22
129.41035
32
0.0
13
195.39043
23
129.41046
33
1.0E-4
0
3DFACE
8
0
10
195.39032
20
129.41035
30
0.0
11
185.34732
21
132.47472
31
0.0
12
195.58975
22
130.39027
32
0.0
13
195.58986
23
130.39038
33
1.0E-4
0
3DFACE
8
0
10
259.52747
20
455.52606
30
0.0
11
259.47394
21
454.52747
31
0.0
12
269.2638
22
454.0027
32
0.0
13
269.2639
23
454.00278
33
1.0E-4
0
3DFACE
8
0
10
269.2638
20
454.0027
30
0.0
11
259.52747
21
455.52606
31
0.0
12
269.31732
22
455.00128
32
0.0
13
269.3174
23
455.00137
33
1.0E-4
0
3DFACE
8
0
10
268.39584
20
455.11496
30
0.0
11
268.20505
21
454.13333
31
0.0
12
276.12543
22
452.59378
32
0.0
13
276.12552
23
452.59387
33
1.0E-4
0
3DFACE
8
0
10
276.12543
20
452.59378
30
0.0
11
268.39584
21
455.11496
31
0.0
12
276.31622
22
453.5754
32
0.0
13
276.3163
23
453.5755
33
1.0E-4
0
3DFACE
8
0
10
275.45743
20
453.83246
30
0.0
11
275.07755
21
452.9074
31
0.0
12
281.18634
22
450.39877
32
0.0
13
281.18643
23
450.39886
33
1.0E-4
0
3DFACE
8
0
10
281.18634
20
450.39877
30
0.0
11
275.45743
21
453.83246
31
0.0
12
281.56622
22
451.32382
32
0.0
13
281.5663
23
451.3239
33
1.0E-4
0
3DFACE
8
0
10
280.83447
20
451.75388
30
0.0
11
280.21112
21
450.97195
31
0.0
12
284.5193
22
447.53735
32
0.0
13
284.51938
23
447.53745
33
1.0E-4
0
3DFACE
8
0
10
284.5193
20
447.53735
30
0.0
11
280.83447
21
451.75388
31
0.0
12
285.14264
22
448.31927
32
0.0
13
285.14273
23
448.31937
33
1.0E-4
0
3DFACE
8
0
10
284.6222
20
448.92322
30
0.0
11
283.75677
21
448.42218
31
0.0
12
286.22406
22
444.16052
32
0.0
13
286.22415
23
444.1606
33
1.0E-4
0
3DFACE
8
0
10
286.22406
20
444.16052
30
0.0
11
284.6222
21
448.92322
31
0.0
12
287.08948
22
444.66156
32
0.0
13
287.08957
23
444.66165
33
1.0E-4
0
3DFACE
8
0
10
286.8378
20
445.4039
30
0.0
11
285.8461
21
445.2753
31
0.0
12
286.47845
22
440.39984
32
0.0
13
286.47855
23
440.39993
33
1.0E-4
0
3DFACE
8
0
10
286.47845
20
440.39984
30
0.0
11
286.8378
21
445.4039
31
0.0
12
287.47015
22
440.52844
32
0.0
13
287.47025
23
440.52853
33
1.0E-4
0
3DFACE
8
0
10
287.49893
20
441.35135
30
0.0
11
286.51865
21
441.54892
31
0.0
12
285.45984
22
436.2949
32
0.0
13
285.45993
23
436.29498
33
1.0E-4
0
3DFACE
8
0
10
285.45984
20
436.2949
30
0.0
11
287.49893
21
441.35135
31
0.0
12
286.44012
22
436.09732
32
0.0
13
286.44022
23
436.0974
33
1.0E-4
0
3DFACE
8
0
10
286.71323
20
436.92816
30
0.0
11
285.80685
21
437.3507
31
0.0
12
283.25555
22
431.87808
32
0.0
13
283.25565
23
431.87817
33
1.0E-4
0
3DFACE
8
0
10
283.25555
20
431.87808
30
0.0
11
286.71323
21
436.92816
31
0.0
12
284.16193
22
431.45554
32
0.0
13
284.16202
23
431.45563
33
1.0E-4
0
3DFACE
8
0
10
284.61578
20
432.24625
30
0.0
11
283.79376
21
432.81577
31
0.0
12
279.9255
22
427.23248
32
0.0
13
279.9256
23
427.23257
33
1.0E-4
0
3DFACE
8
0
10
279.9255
20
427.23248
30
0.0
11
284.61578
21
432.24625
31
0.0
12
280.74753
22
426.66296
32
0.0
13
280.74762
23
426.66306
33
1.0E-4
0
3DFACE
8
0
10
281.3274
20
427.39603
30
0.0
11
280.58398
21
428.06485
31
0.0
12
275.5439
22
422.4627
32
0.0
13
275.544
23
422.4628
33
1.0E-4
0
3DFACE
8
0
10
275.5439
20
422.4627
30
0.0
11
281.3274
21
427.39603
31
0.0
12
276.28732
22
421.79388
32
0.0
13
276.2874
23
421.79398
33
1.0E-4
0
3DFACE
8
0
10
276.95633
20
422.46625
30
0.0
11
276.28378
21
423.2063
31
0.0
12
270.19748
22
417.67502
32
0.0
13
270.19757
23
417.6751
33
1.0E-4
0
3DFACE
8
0
10
270.19748
20
417.67502
30
0.0
11
276.95633
21
422.46625
31
0.0
12
270.87003
22
416.93497
32
0.0
13
270.87012
23
416.93506
33
1.0E-4
0
3DFACE
8
0
10
271.6047
20
417.54794
30
0.0
11
270.9971
21
418.3422
31
0.0
12
263.9791
22
412.97333
32
0.0
13
263.9792
23
412.97342
33
1.0E-4
0
3DFACE
8
0
10
263.9791
20
412.97333
30
0.0
11
271.6047
21
417.54794
31
0.0
12
264.5867
22
412.17908
32
0.0
13
264.5868
23
412.17917
33
1.0E-4
0
3DFACE
8
0
10
265.37195
20
412.73422
30
0.0
11
264.8258
21
413.57193
31
0.0
12
256.98434
22
408.45953
32
0.0
13
256.98444
23
408.45963
33
1.0E-4
0
3DFACE
8
0
10
256.98434
20
408.45953
30
0.0
11
265.37195
21
412.73422
31
0.0
12
257.5305
22
407.62183
32
0.0
13
257.53058
23
407.62192
33
1.0E-4
0
3DFACE
8
0
10
258.35623
20
408.11975
30
0.0
11
257.87027
21
408.9937
31
0.0
12
249.31004
22
404.234
32
0.0
13
249.31015
23
404.2341
33
1.0E-4
0
3DFACE
8
0
10
249.31004
20
404.234
30
0.0
11
258.35623
21
408.11975
31
0.0
12
249.796
22
403.36005
32
0.0
13
249.79611
23
403.36014
33
1.0E-4
0
3DFACE
8
0
10
250.65512
20
403.79996
30
0.0
11
250.2301
21
404.7051
31
0.0
12
241.05367
22
400.3963
32
0.0
13
241.05377
23
400.3964
33
1.0E-4
0
3DFACE
8
0
10
241.05367
20
400.3963
30
0.0
11
250.65512
21
403.79996
31
0.0
12
241.47868
22
399.49115
32
0.0
13
241.47879
23
399.49124
33
1.0E-4
0
3DFACE
8
0
10
242.36572
20
399.87082
30
0.0
11
242.00418
21
400.8032
31
0.0
12
232.31305
22
397.04544
32
0.0
13
232.31316
23
397.04553
33
1.0E-4
0
3DFACE
8
0
10
232.31305
20
397.04544
30
0.0
11
242.36572
21
399.87082
31
0.0
12
232.67459
22
396.11307
32
0.0
13
232.6747
23
396.11316
33
1.0E-4
0
3DFACE
8
0
10
233.58482
20
396.42892
30
0.0
11
233.29109
21
397.3848
31
0.0
12
223.18643
22
394.27985
32
0.0
13
223.18654
23
394.27994
33
1.0E-4
0
3DFACE
8
0
10
223.18643
20
394.27985
30
0.0
11
233.58482
21
396.42892
31
0.0
12
223.48016
22
393.32397
32
0.0
13
223.48027
23
393.32407
33
1.0E-4
0
3DFACE
8
0
10
224.40898
20
393.57098
30
0.0
11
224.18904
21
394.5465
31
0.0
12
213.77226
22
392.19778
32
0.0
13
213.77237
23
392.19788
33
1.0E-4
0
3DFACE
8
0
10
213.77226
20
392.19778
30
0.0
11
224.40898
21
393.57098
31
0.0
12
213.9922
22
391.22226
32
0.0
13
213.99231
23
391.22235
33
1.0E-4
0
3DFACE
8
0
10
214.93448
20
391.39413
30
0.0
11
214.79587
21
392.3845
31
0.0
12
204.16927
22
390.89713
32
0.0
13
204.16937
23
390.89722
33
1.0E-4
0
3DFACE
8
0
10
204.16927
20
390.89713
30
0.0
11
214.93448
21
391.39413
31
0.0
12
204.30788
22
389.90677
32
0.0
13
204.30798
23
389.90686
33
1.0E-4
0
3DFACE
8
0
10
205.25735
20
389.996
30
0.0
11
205.20898
21
390.99484
31
0.0
12
194.4764
22
390.47525
32
0.0
13
194.4765
23
390.47534
33
1.0E-4
0
3DFACE
8
0
10
194.4764
20
390.47525
30
0.0
11
205.25735
21
389.996
31
0.0
12
194.52477
22
389.4764
32
0.0
13
194.52487
23
389.4765
33
1.0E-4
0
3DFACE
8
0
10
586.0
20
455.0
30
0.0
11
586.0
21
456.0
31
0.0
12
260.0
22
456.0
32
0.0
13
260.0001
23
456.0001
33
1.0E-4
0
3DFACE
8
0
10
260.0
20
456.0
30
0.0
11
586.0
21
455.0
31
0.0
12
260.0
22
455.0
32
0.0
13
260.0001
23
455.0001
33
1.0E-4
0
3DFACE
8
0
10
716.0
20
455.0
30
0.0
11
716.0
21
456.0
31
0.0
12
585.0
22
456.0
32
0.0
13
585.0001
23
456.0001
33
1.0E-4
0
3DFACE
8
0
10
585.0
20
456.0
30
0.0
11
716.0
21
455.0
31
0.0
12
585.0
22
455.0
32
0.0
13
585.0001
23
455.0001
33
1.0E-4
0
3DFACE
8
0
10
714.4753
20
390.47397
30
0.0
11
714.52606
21
389.47525
31
0.0
12
724.78723
22
389.99728
32
0.0
13
724.78735
23
389.99738
33
1.0E-4
0
3DFACE
8
0
10
724.78723
20
389.99728
30
0.0
11
714.4753
21
390.47397
31
0.0
12
724.73645
22
390.996
32
0.0
13
724.7366
23
390.9961
33
1.0E-4
0
3DFACE
8
0
10
723.68866
20
390.88443
30
0.0
11
723.8493
21
389.89743
31
0.0
12
733.1239
22
391.40683
32
0.0
13
733.124
23
391.40692
33
1.0E-4
0
3DFACE
8
0
10
733.1239
20
391.40683
30
0.0
11
723.68866
21
390.88443
31
0.0
12
732.96326
22
392.39383
32
0.0
13
732.9634
23
392.39392
33
1.0E-4
0
3DFACE
8
0
10
731.93024
20
392.16034
30
0.0
11
732.2098
21
391.2002
31
0.0
12
740.48236
22
393.60843
32
0.0
13
740.4825
23
393.60852
33
1.0E-4
0
3DFACE
8
0
10
740.48236
20
393.60843
30
0.0
11
731.93024
21
392.16034
31
0.0
12
740.2028
22
394.56857
32
0.0
13
740.20294
23
394.56866
33
1.0E-4
0
3DFACE
8
0
10
739.20276
20
394.2031
30
0.0
11
739.6083
21
393.28897
31
0.0
12
746.85986
22
396.50568
32
0.0
13
746.86
23
396.50577
33
1.0E-4
0
3DFACE
8
0
10
746.85986
20
396.50568
30
0.0
11
739.20276
21
394.2031
31
0.0
12
746.45435
22
397.4198
32
0.0
13
746.45447
23
397.4199
33
1.0E-4
0
3DFACE
8
0
10
745.51013
20
396.91492
30
0.0
11
746.04517
21
396.07007
31
0.0
12
752.2525
22
400.00134
32
0.0
13
752.2526
23
400.00143
33
1.0E-4
0
3DFACE
8
0
10
752.2525
20
400.00134
30
0.0
11
745.51013
21
396.91492
31
0.0
12
751.71747
22
400.8462
32
0.0
13
751.7176
23
400.84628
33
1.0E-4
0
3DFACE
8
0
10
750.85675
20
400.19922
30
0.0
11
751.5196
21
399.45044
31
0.0
12
756.6559
22
403.99704
32
0.0
13
756.656
23
403.99713
33
1.0E-4
0
3DFACE
8
0
10
756.6559
20
403.99704
30
0.0
11
750.85675
21
400.19922
31
0.0
12
755.99304
22
404.74582
32
0.0
13
755.99316
23
404.7459
33
1.0E-4
0
3DFACE
8
0
10
755.2473
20
403.96127
30
0.0
11
756.0288
21
403.3373
31
0.0
12
760.06537
22
408.3925
32
0.0
13
760.0655
23
408.39258
33
1.0E-4
0
3DFACE
8
0
10
760.06537
20
408.3925
30
0.0
11
755.2473
21
403.96127
31
0.0
12
759.2839
22
409.01645
32
0.0
13
759.284
23
409.01654
33
1.0E-4
0
3DFACE
8
0
10
758.68604
20
408.1081
30
0.0
11
759.56824
21
407.6372
31
0.0
12
762.4767
22
413.08566
32
0.0
13
762.4768
23
413.08575
33
1.0E-4
0
3DFACE
8
0
10
762.4767
20
413.08566
30
0.0
11
758.68604
21
408.1081
31
0.0
12
761.5945
22
413.55655
32
0.0
13
761.5946
23
413.55664
33
1.0E-4
0
3DFACE
8
0
10
761.17535
20
412.54886
30
0.0
11
762.1313
21
412.25522
31
0.0
12
763.8874
22
417.9724
32
0.0
13
763.8875
23
417.9725
33
1.0E-4
0
3DFACE
8
0
10
763.8874
20
417.9724
30
0.0
11
761.17535
21
412.54886
31
0.0
12
762.93146
22
418.26605
32
0.0
13
762.9316
23
418.26614
33
1.0E-4
0
3DFACE
8
0
10
762.7152
20
417.1937
30
0.0
11
763.7102
21
417.09384
31
0.0
12
764.29755
22
422.9476
32
0.0
13
764.29767
23
422.9477
33
1.0E-4
0
3DFACE
8
0
10
764.29755
20
422.9476
30
0.0
11
762.7152
21
417.1937
31
0.0
12
763.30255
22
423.04745
32
0.0
13
763.3027
23
423.04755
33
1.0E-4
0
3DFACE
8
0
10
763.30255
20
421.9526
30
0.0
11
764.29755
21
422.05246
31
0.0
12
763.7102
22
427.90622
32
0.0
13
763.7103
23
427.9063
33
1.0E-4
0
3DFACE
8
0
10
763.7102
20
427.90622
30
0.0
11
763.30255
21
421.9526
31
0.0
12
762.7152
22
427.80637
32
0.0
13
762.71533
23
427.80646
33
1.0E-4
0
3DFACE
8
0
10
762.93146
20
426.734
30
0.0
11
763.8874
21
427.02765
31
0.0
12
762.13135
22
432.74484
32
0.0
13
762.1315
23
432.74493
33
1.0E-4
0
3DFACE
8
0
10
762.13135
20
432.74484
30
0.0
11
762.93146
21
426.734
31
0.0
12
761.1754
22
432.4512
32
0.0
13
761.17554
23
432.4513
33
1.0E-4
0
3DFACE
8
0
10
761.59454
20
431.4435
30
0.0
11
762.47675
21
431.9144
31
0.0
12
759.5683
22
437.36285
32
0.0
13
759.5684
23
437.36295
33
1.0E-4
0
3DFACE
8
0
10
759.5683
20
437.36285
30
0.0
11
761.59454
21
431.4435
31
0.0
12
758.6861
22
436.89197
32
0.0
13
758.6862
23
436.89206
33
1.0E-4
0
3DFACE
8
0
10
759.28394
20
435.9836
30
0.0
11
760.0654
21
436.60757
31
0.0
12
756.02893
22
441.66275
32
0.0
13
756.02905
23
441.66284
33
1.0E-4
0
3DFACE
8
0
10
756.02893
20
441.66275
30
0.0
11
759.28394
21
435.9836
31
0.0
12
755.24744
22
441.0388
32
0.0
13
755.24756
23
441.03888
33
1.0E-4
0
3DFACE
8
0
10
755.99316
20
440.25424
30
0.0
11
756.656
21
441.00302
31
0.0
12
751.5197
22
445.54962
32
0.0
13
751.51984
23
445.5497
33
1.0E-4
0
3DFACE
8
0
10
751.5197
20
445.54962
30
0.0
11
755.99316
21
440.25424
31
0.0
12
750.8569
22
444.80084
32
0.0
13
750.857
23
444.80093
33
1.0E-4
0
3DFACE
8
0
10
751.7176
20
444.1539
30
0.0
11
752.2526
21
444.9987
31
0.0
12
746.0453
22
448.93
32
0.0
13
746.0454
23
448.93008
33
1.0E-4
0
3DFACE
8
0
10
746.0453
20
448.93
30
0.0
11
751.7176
21
444.1539
31
0.0
12
745.51025
22
448.0852
32
0.0
13
745.5104
23
448.0853
33
1.0E-4
0
3DFACE
8
0
10
746.45447
20
447.58026
30
0.0
11
746.86
21
448.4944
31
0.0
12
739.60846
22
451.71115
32
0.0
13
739.6086
23
451.71124
33
1.0E-4
0
3DFACE
8
0
10
739.60846
20
451.71115
30
0.0
11
746.45447
21
447.58026
31
0.0
12
739.20294
22
450.79703
32
0.0
13
739.20306
23
450.79712
33
1.0E-4
0
3DFACE
8
0
10
740.203
20
450.43152
30
0.0
11
740.48254
21
451.39166
31
0.0
12
732.20996
22
453.7999
32
0.0
13
732.2101
23
453.8
33
1.0E-4
0
3DFACE
8
0
10
732.20996
20
453.7999
30
0.0
11
740.203
21
450.43152
31
0.0
12
731.9304
22
452.83975
32
0.0
13
731.93054
23
452.83984
33
1.0E-4
0
3DFACE
8
0
10
732.96344
20
452.60626
30
0.0
11
733.1241
21
453.59326
31
0.0
12
723.84955
22
455.10266
32
0.0
13
723.8497
23
455.10275
33
1.0E-4
0
3DFACE
8
0
10
723.84955
20
455.10266
30
0.0
11
732.96344
21
452.60626
31
0.0
12
723.6889
22
454.11566
32
0.0
13
723.689
23
454.11575
33
1.0E-4
0
3DFACE
8
0
10
724.7367
20
454.0041
30
0.0
11
724.7875
21
455.0028
31
0.0
12
714.5263
22
455.52484
32
0.0
13
714.5264
23
455.52493
33
1.0E-4
0
3DFACE
8
0
10
714.5263
20
455.52484
30
0.0
11
724.7367
21
454.0041
31
0.0
12
714.4755
22
454.52612
32
0.0
13
714.47565
23
454.5262
33
1.0E-4
0
3DFACE
8
0
10
715.47394
20
324.47525
30
0.0
11
715.5247
21
325.47397
31
0.0
12
705.26355
22
325.996
32
0.0
13
705.2637
23
325.9961
33
1.0E-4
0
3DFACE
8
0
10
705.26355
20
325.996
30
0.0
11
715.47394
21
324.47525
31
0.0
12
705.21277
22
324.99728
32
0.0
13
705.2129
23
324.99738
33
1.0E-4
0
3DFACE
8
0
10
706.1507
20
324.89743
30
0.0
11
706.31134
21
325.88443
31
0.0
12
697.0368
22
327.39383
32
0.0
13
697.0369
23
327.39392
33
1.0E-4
0
3DFACE
8
0
10
697.0368
20
327.39383
30
0.0
11
706.1507
21
324.89743
31
0.0
12
696.87616
22
326.40683
32
0.0
13
696.8763
23
326.40692
33
1.0E-4
0
3DFACE
8
0
10
697.7903
20
326.2002
30
0.0
11
698.0698
21
327.16034
31
0.0
12
689.79724
22
329.56857
32
0.0
13
689.79736
23
329.56866
33
1.0E-4
0
3DFACE
8
0
10
689.79724
20
329.56857
30
0.0
11
697.7903
21
326.2002
31
0.0
12
689.5177
22
328.60843
32
0.0
13
689.5178
23
328.60852
33
1.0E-4
0
3DFACE
8
0
10
690.3918
20
328.28897
30
0.0
11
690.7973
21
329.2031
31
0.0
12
683.5457
22
332.4198
32
0.0
13
683.54584
23
332.4199
33
1.0E-4
0
3DFACE
8
0
10
683.5457
20
332.4198
30
0.0
11
690.3918
21
328.28897
31
0.0
12
683.1402
22
331.50568
32
0.0
13
683.1403
23
331.50577
33
1.0E-4
0
3DFACE
8
0
10
683.9549
20
331.07007
30
0.0
11
684.4899
21
331.91492
31
0.0
12
678.2826
22
335.8462
32
0.0
13
678.2827
23
335.84628
33
1.0E-4
0
3DFACE
8
0
10
678.2826
20
335.8462
30
0.0
11
683.9549
21
331.07007
31
0.0
12
677.74756
22
335.00134
32
0.0
13
677.7477
23
335.00143
33
1.0E-4
0
3DFACE
8
0
10
678.48047
20
334.45044
30
0.0
11
679.1433
21
335.19922
31
0.0
12
674.007
22
339.74582
32
0.0
13
674.00714
23
339.7459
33
1.0E-4
0
3DFACE
8
0
10
674.007
20
339.74582
30
0.0
11
678.48047
21
334.45044
31
0.0
12
673.3442
22
338.99704
32
0.0
13
673.3443
23
338.99713
33
1.0E-4
0
3DFACE
8
0
10
673.97125
20
338.3373
30
0.0
11
674.75275
21
338.96127
31
0.0
12
670.71625
22
344.01645
32
0.0
13
670.7164
23
344.01654
33
1.0E-4
0
3DFACE
8
0
10
670.71625
20
344.01645
30
0.0
11
673.97125
21
338.3373
31
0.0
12
669.93475
22
343.3925
32
0.0
13
669.9349
23
343.39258
33
1.0E-4
0
3DFACE
8
0
10
670.4319
20
342.6372
30
0.0
11
671.3141
21
343.1081
31
0.0
12
668.40564
22
348.55655
32
0.0
13
668.40576
23
348.55664
33
1.0E-4
0
3DFACE
8
0
10
668.40564
20
348.55655
30
0.0
11
670.4319
21
342.6372
31
0.0
12
667.52344
22
348.08566
32
0.0
13
667.52356
23
348.08575
33
1.0E-4
0
3DFACE
8
0
10
667.86884
20
347.25522
30
0.0
11
668.82477
21
347.54886
31
0.0
12
667.06866
22
353.26605
32
0.0
13
667.0688
23
353.26614
33
1.0E-4
0
3DFACE
8
0
10
667.06866
20
353.26605
30
0.0
11
667.86884
21
347.25522
31
0.0
12
666.11273
22
352.9724
32
0.0
13
666.11285
23
352.9725
33
1.0E-4
0
3DFACE
8
0
10
666.2899
20
352.09384
30
0.0
11
667.2849
21
352.1937
31
0.0
12
666.6976
22
358.04745
32
0.0
13
666.6977
23
358.04755
33
1.0E-4
0
3DFACE
8
0
10
666.6976
20
358.04745
30
0.0
11
666.2899
21
352.09384
31
0.0
12
665.7026
22
357.9476
32
0.0
13
665.7027
23
357.9477
33
1.0E-4
0
3DFACE
8
0
10
665.7026
20
357.05246
30
0.0
11
666.6976
21
356.9526
31
0.0
12
667.2849
22
362.80637
32
0.0
13
667.28503
23
362.80646
33
1.0E-4
0
3DFACE
8
0
10
667.2849
20
362.80637
30
0.0
11
665.7026
21
357.05246
31
0.0
12
666.2899
22
362.90622
32
0.0
13
666.29004
23
362.9063
33
1.0E-4
0
3DFACE
8
0
10
666.11273
20
362.02765
30
0.0
11
667.06866
21
361.734
31
0.0
12
668.82477
22
367.4512
32
0.0
13
668.8249
23
367.4513
33
1.0E-4
0
3DFACE
8
0
10
668.82477
20
367.4512
30
0.0
11
666.11273
21
362.02765
31
0.0
12
667.86884
22
367.74484
32
0.0
13
667.86896
23
367.74493
33
1.0E-4
0
3DFACE
8
0
10
667.52344
20
366.9144
30
0.0
11
668.40564
21
366.4435
31
0.0
12
671.3141
22
371.89197
32
0.0
13
671.3142
23
371.89206
33
1.0E-4
0
3DFACE
8
0
10
671.3141
20
371.89197
30
0.0
11
667.52344
21
366.9144
31
0.0
12
670.4319
22
372.36285
32
0.0
13
670.432
23
372.36295
33
1.0E-4
0
3DFACE
8
0
10
669.93475
20
371.60757
30
0.0
11
670.71625
21
370.9836
31
0.0
12
674.75275
22
376.03882
32
0.0
13
674.75287
23
376.0389
33
1.0E-4
0
3DFACE
8
0
10
674.75275
20
376.03882
30
0.0
11
669.93475
21
371.60757
31
0.0
12
673.97125
22
376.66278
32
0.0
13
673.9714
23
376.66287
33
1.0E-4
0
3DFACE
8
0
10
673.3442
20
376.00305
30
0.0
11
674.007
21
375.25427
31
0.0
12
679.1433
22
379.80087
32
0.0
13
679.14343
23
379.80096
33
1.0E-4
0
3DFACE
8
0
10
679.1433
20
379.80087
30
0.0
11
673.3442
21
376.00305
31
0.0
12
678.48047
22
380.54965
32
0.0
13
678.4806
23
380.54974
33
1.0E-4
0
3DFACE
8
0
10
677.74756
20
379.99872
30
0.0
11
678.2826
21
379.15393
31
0.0
12
684.4899
22
383.08524
32
0.0
13
684.49005
23
383.08533
33
1.0E-4
0
3DFACE
8
0
10
684.4899
20
383.08524
30
0.0
11
677.74756
21
379.99872
31
0.0
12
683.9549
22
383.93002
32
0.0
13
683.955
23
383.9301
33
1.0E-4
0
3DFACE
8
0
10
683.1402
20
383.49445
30
0.0
11
683.5457
21
382.58032
31
0.0
12
690.7973
22
385.79703
32
0.0
13
690.7974
23
385.79712
33
1.0E-4
0
3DFACE
8
0
10
690.7973
20
385.79703
30
0.0
11
683.1402
21
383.49445
31
0.0
12
690.3918
22
386.71115
32
0.0
13
690.3919
23
386.71124
33
1.0E-4
0
3DFACE
8
0
10
689.5177
20
386.3917
30
0.0
11
689.79724
21
385.43155
31
0.0
12
698.0698
22
387.83978
32
0.0
13
698.06995
23
387.83987
33
1.0E-4
0
3DFACE
8
0
10
698.0698
20
387.83978
30
0.0
11
689.5177
21
386.3917
31
0.0
12
697.7903
22
388.79993
32
0.0
13
697.7904
23
388.80002
33
1.0E-4
0
3DFACE
8
0
10
696.87616
20
388.5933
30
0.0
11
697.0368
21
387.6063
31
0.0
12
706.3114
22
389.1157
32
0.0
13
706.3115
23
389.11578
33
1.0E-4
0
3DFACE
8
0
10
706.3114
20
389.1157
30
0.0
11
696.87616
21
388.5933
31
0.0
12
706.15076
22
390.1027
32
0.0
13
706.1509
23
390.10278
33
1.0E-4
0
3DFACE
8
0
10
705.2128
20
390.00284
30
0.0
11
705.2636
21
389.00412
31
0.0
12
715.5248
22
389.52615
32
0.0
13
715.5249
23
389.52625
33
1.0E-4
0
3DFACE
8
0
10
715.5248
20
389.52615
30
0.0
11
705.2128
21
390.00284
31
0.0
12
715.474
22
390.52487
32
0.0
13
715.4741
23
390.52496
33
1.0E-4
0
3DFACE
8
0
10
715.44684
20
194.45195
30
0.0
11
715.54803
21
195.44682
31
0.0
12
705.29065
22
196.49055
32
0.0
13
705.2908
23
196.49066
33
1.0E-4
0
3DFACE
8
0
10
705.29065
20
196.49055
30
0.0
11
715.44684
21
194.45195
31
0.0
12
705.18945
22
195.49568
32
0.0
13
705.1896
23
195.49579
33
1.0E-4
0
3DFACE
8
0
10
706.0582
20
195.3123
30
0.0
11
706.3677
21
196.2632
31
0.0
12
697.1293
22
199.2702
32
0.0
13
697.1294
23
199.27031
33
1.0E-4
0
3DFACE
8
0
10
697.1293
20
199.2702
30
0.0
11
706.0582
21
195.3123
31
0.0
12
696.8198
22
198.3193
32
0.0
13
696.81995
23
198.31941
33
1.0E-4
0
3DFACE
8
0
10
697.6305
20
197.95633
30
0.0
11
698.13367
21
198.82053
31
0.0
12
689.95703
22
203.58118
32
0.0
13
689.95715
23
203.58128
33
1.0E-4
0
3DFACE
8
0
10
689.95703
20
203.58118
30
0.0
11
697.6305
21
197.95633
31
0.0
12
689.45386
22
202.71698
32
0.0
13
689.454
23
202.71709
33
1.0E-4
0
3DFACE
8
0
10
690.1797
20
202.19167
30
0.0
11
690.8434
21
202.93971
31
0.0
12
683.7578
22
209.22585
32
0.0
13
683.75793
23
209.22595
33
1.0E-4
0
3DFACE
8
0
10
683.7578
20
209.22585
30
0.0
11
690.1797
21
202.19167
31
0.0
12
683.0941
22
208.4778
32
0.0
13
683.09424
23
208.4779
33
1.0E-4
0
3DFACE
8
0
10
683.71735
20
207.81775
30
0.0
11
684.50226
21
208.43738
31
0.0
12
678.52014
22
216.01476
32
0.0
13
678.52026
23
216.01486
33
1.0E-4
0
3DFACE
8
0
10
678.52014
20
216.01476
30
0.0
11
683.71735
21
207.81775
31
0.0
12
677.7352
22
215.39513
32
0.0
13
677.73535
23
215.39523
33
1.0E-4
0
3DFACE
8
0
10
678.24805
20
214.63124
30
0.0
11
679.1188
21
215.12306
31
0.0
12
674.23944
22
223.76126
32
0.0
13
674.23956
23
223.76137
33
1.0E-4
0
3DFACE
8
0
10
674.23944
20
223.76126
30
0.0
11
678.24805
21
214.63124
31
0.0
12
673.3687
22
223.26944
32
0.0
13
673.36884
23
223.26955
33
1.0E-4
0
3DFACE
8
0
10
673.771
20
222.43025
30
0.0
11
674.6997
21
222.80104
31
0.0
12
670.9165
22
232.27725
32
0.0
13
670.9166
23
232.27736
33
1.0E-4
0
3DFACE
8
0
10
670.9165
20
232.27725
30
0.0
11
673.771
21
222.43025
31
0.0
12
669.9878
22
231.90646
32
0.0
13
669.9879
23
231.90657
33
1.0E-4
0
3DFACE
8
0
10
670.2834
20
231.01547
30
0.0
11
671.2496
21
231.27335
31
0.0
12
668.55414
22
241.37204
32
0.0
13
668.55426
23
241.37215
33
1.0E-4
0
3DFACE
8
0
10
668.55414
20
241.37204
30
0.0
11
670.2834
21
231.01547
31
0.0
12
667.58795
22
241.11417
32
0.0
13
667.5881
23
241.11427
33
1.0E-4
0
3DFACE
8
0
10
667.78174
20
240.18991
30
0.0
11
668.77014
21
240.3417
31
0.0
12
667.15576
22
250.85262
32
0.0
13
667.1559
23
250.85272
33
1.0E-4
0
3DFACE
8
0
10
667.15576
20
250.85262
30
0.0
11
667.78174
21
240.18991
31
0.0
12
666.16736
22
250.70082
32
0.0
13
666.1675
23
250.70093
33
1.0E-4
0
3DFACE
8
0
10
666.2631
20
249.75809
30
0.0
11
667.2619
21
249.8082
31
0.0
12
666.72437
22
260.52444
32
0.0
13
666.7245
23
260.52454
33
1.0E-4
0
3DFACE
8
0
10
666.72437
20
260.52444
30
0.0
11
666.2631
21
249.75809
31
0.0
12
665.7256
22
260.47433
32
0.0
13
665.7257
23
260.47443
33
1.0E-4
0
3DFACE
8
0
10
665.7256
20
259.52573
30
0.0
11
666.72437
21
259.47562
31
0.0
12
667.2619
22
270.19183
32
0.0
13
667.262
23
270.19193
33
1.0E-4
0
3DFACE
8
0
10
667.2619
20
270.19183
30
0.0
11
665.7256
21
259.52573
31
0.0
12
666.2631
22
270.24194
32
0.0
13
666.26324
23
270.24203
33
1.0E-4
0
3DFACE
8
0
10
666.16736
20
269.29922
30
0.0
11
667.15576
21
269.14743
31
0.0
12
668.77014
22
279.65833
32
0.0
13
668.77026
23
279.65842
33
1.0E-4
0
3DFACE
8
0
10
668.77014
20
279.65833
30
0.0
11
666.16736
21
269.29922
31
0.0
12
667.78174
22
279.81012
32
0.0
13
667.78186
23
279.8102
33
1.0E-4
0
3DFACE
8
0
10
667.58795
20
278.88586
30
0.0
11
668.55414
21
278.628
31
0.0
12
671.2496
22
288.72668
32
0.0
13
671.2497
23
288.72678
33
1.0E-4
0
3DFACE
8
0
10
671.2496
20
288.72668
30
0.0
11
667.58795
21
278.88586
31
0.0
12
670.2834
22
288.98456
32
0.0
13
670.2835
23
288.98465
33
1.0E-4
0
3DFACE
8
0
10
669.9878
20
288.09357
30
0.0
11
670.9165
21
287.72278
31
0.0
12
674.6997
22
297.199
32
0.0
13
674.6998
23
297.1991
33
1.0E-4
0
3DFACE
8
0
10
674.6997
20
297.199
30
0.0
11
669.9878
21
288.09357
31
0.0
12
673.771
22
297.5698
32
0.0
13
673.7711
23
297.5699
33
1.0E-4
0
3DFACE
8
0
10
673.3687
20
296.7306
30
0.0
11
674.23944
21
296.23877
31
0.0
12
679.1188
22
304.87698
32
0.0
13
679.1189
23
304.87708
33
1.0E-4
0
3DFACE
8
0
10
679.1188
20
304.87698
30
0.0
11
673.3687
21
296.7306
31
0.0
12
678.24805
22
305.3688
32
0.0
13
678.24817
23
305.3689
33
1.0E-4
0
3DFACE
8
0
10
677.7352
20
304.6049
30
0.0
11
678.52014
21
303.98526
31
0.0
12
684.50226
22
311.56268
32
0.0
13
684.5024
23
311.56277
33
1.0E-4
0
3DFACE
8
0
10
684.50226
20
311.56268
30
0.0
11
677.7352
21
304.6049
31
0.0
12
683.71735
22
312.1823
32
0.0
13
683.71747
23
312.1824
33
1.0E-4
0
3DFACE
8
0
10
683.0941
20
311.52225
30
0.0
11
683.7578
21
310.7742
31
0.0
12
690.8434
22
317.06033
32
0.0
13
690.8435
23
317.06042
33
1.0E-4
0
3DFACE
8
0
10
690.8434
20
317.06033
30
0.0
11
683.0941
21
311.52225
31
0.0
12
690.1797
22
317.80838
32
0.0
13
690.1798
23
317.80847
33
1.0E-4
0
3DFACE
8
0
10
689.45386
20
317.28305
30
0.0
11
689.95703
21
316.41885
31
0.0
12
698.13367
22
321.17953
32
0.0
13
698.1338
23
321.17963
33
1.0E-4
0
3DFACE
8
0
10
698.13367
20
321.17953
30
0.0
11
689.45386
21
317.28305
31
0.0
12
697.6305
22
322.04373
32
0.0
13
697.6306
23
322.04382
33
1.0E-4
0
3DFACE
8
0
10
696.8198
20
321.68073
30
0.0
11
697.1293
21
320.72986
31
0.0
12
706.36774
22
323.73688
32
0.0
13
706.36786
23
323.73697
33
1.0E-4
0
3DFACE
8
0
10
706.36774
20
323.73688
30
0.0
11
696.8198
21
321.68073
31
0.0
12
706.0583
22
324.68774
32
0.0
13
706.0584
23
324.68784
33
1.0E-4
0
3DFACE
8
0
10
705.1895
20
324.50436
30
0.0
11
705.2907
21
323.5095
31
0.0
12
715.5481
22
324.55325
32
0.0
13
715.5482
23
324.55334
33
1.0E-4
0
3DFACE
8
0
10
715.5481
20
324.55325
30
0.0
11
705.1895
21
324.50436
31
0.0
12
715.4469
22
325.54813
32
0.0
13
715.447
23
325.54822
33
1.0E-4
0
3DFACE
8
0
10
715.47394
20
129.47523
30
0.0
11
715.5247
21
130.47395
31
0.0
12
705.26355
22
130.99602
32
0.0
13
705.2637
23
130.99612
33
1.0E-4
0
3DFACE
8
0
10
705.26355
20
130.99602
30
0.0
11
715.47394
21
129.47523
31
0.0
12
705.21277
22
129.9973
32
0.0
13
705.2129
23
129.9974
33
1.0E-4
0
3DFACE
8
0
10
706.1507
20
129.89743
30
0.0
11
706.31134
21
130.88443
31
0.0
12
697.0368
22
132.39383
32
0.0
13
697.0369
23
132.39394
33
1.0E-4
0
3DFACE
8
0
10
697.0368
20
132.39383
30
0.0
11
706.1507
21
129.89743
31
0.0
12
696.87616
22
131.40683
32
0.0
13
696.8763
23
131.40694
33
1.0E-4
0
3DFACE
8
0
10
697.7903
20
131.20018
30
0.0
11
698.0698
21
132.16032
31
0.0
12
689.79724
22
134.56859
32
0.0
13
689.79736
23
134.5687
33
1.0E-4
0
3DFACE
8
0
10
689.79724
20
134.56859
30
0.0
11
697.7903
21
131.20018
31
0.0
12
689.5177
22
133.60844
32
0.0
13
689.5178
23
133.60855
33
1.0E-4
0
3DFACE
8
0
10
690.3918
20
133.28897
30
0.0
11
690.7973
21
134.20306
31
0.0
12
683.5457
22
137.4198
32
0.0
13
683.54584
23
137.4199
33
1.0E-4
0
3DFACE
8
0
10
683.5457
20
137.4198
30
0.0
11
690.3918
21
133.28897
31
0.0
12
683.1402
22
136.5057
32
0.0
13
683.1403
23
136.50581
33
1.0E-4
0
3DFACE
8
0
10
683.9549
20
136.07007
30
0.0
11
684.4899
21
136.91489
31
0.0
12
678.2826
22
140.8462
32
0.0
13
678.2827
23
140.84631
33
1.0E-4
0
3DFACE
8
0
10
678.2826
20
140.8462
30
0.0
11
683.9549
21
136.07007
31
0.0
12
677.74756
22
140.00139
32
0.0
13
677.7477
23
140.0015
33
1.0E-4
0
3DFACE
8
0
10
678.48047
20
139.45047
30
0.0
11
679.1433
21
140.19925
31
0.0
12
674.007
22
144.74582
32
0.0
13
674.00714
23
144.74593
33
1.0E-4
0
3DFACE
8
0
10
674.007
20
144.74582
30
0.0
11
678.48047
21
139.45047
31
0.0
12
673.3442
22
143.99704
32
0.0
13
673.3443
23
143.99715
33
1.0E-4
0
3DFACE
8
0
10
673.97125
20
143.33731
30
0.0
11
674.75275
21
143.96127
31
0.0
12
670.71625
22
149.0165
32
0.0
13
670.7164
23
149.0166
33
1.0E-4
0
3DFACE
8
0
10
670.71625
20
149.0165
30
0.0
11
673.97125
21
143.33731
31
0.0
12
669.93475
22
148.39253
32
0.0
13
669.9349
23
148.39264
33
1.0E-4
0
3DFACE
8
0
10
670.4319
20
147.63724
30
0.0
11
671.3141
21
148.10815
31
0.0
12
668.40564
22
153.55658
32
0.0
13
668.40576
23
153.55669
33
1.0E-4
0
3DFACE
8
0
10
668.40564
20
153.55658
30
0.0
11
670.4319
21
147.63724
31
0.0
12
667.52344
22
153.08566
32
0.0
13
667.52356
23
153.08577
33
1.0E-4
0
3DFACE
8
0
10
667.86884
20
152.25525
30
0.0
11
668.82477
21
152.54889
31
0.0
12
667.06866
22
158.26608
32
0.0
13
667.0688
23
158.26619
33
1.0E-4
0
3DFACE
8
0
10
667.06866
20
158.26608
30
0.0
11
667.86884
21
152.25525
31
0.0
12
666.11273
22
157.97244
32
0.0
13
666.11285
23
157.97255
33
1.0E-4
0
3DFACE
8
0
10
666.2899
20
157.09389
30
0.0
11
667.2849
21
157.19371
31
0.0
12
666.6976
22
163.04745
32
0.0
13
666.6977
23
163.04756
33
1.0E-4
0
3DFACE
8
0
10
666.6976
20
163.04745
30
0.0
11
666.2899
21
157.09389
31
0.0
12
665.7026
22
162.94763
32
0.0
13
665.7027
23
162.94774
33
1.0E-4
0
3DFACE
8
0
10
665.7026
20
162.05246
30
0.0
11
666.6976
21
161.95264
31
0.0
12
667.2849
22
167.80638
32
0.0
13
667.28503
23
167.80649
33
1.0E-4
0
3DFACE
8
0
10
667.2849
20
167.80638
30
0.0
11
665.7026
21
162.05246
31
0.0
12
666.2899
22
167.9062
32
0.0
13
666.29004
23
167.90631
33
1.0E-4
0
3DFACE
8
0
10
666.11273
20
167.02765
30
0.0
11
667.06866
21
166.73401
31
0.0
12
668.82477
22
172.4512
32
0.0
13
668.8249
23
172.45131
33
1.0E-4
0
3DFACE
8
0
10
668.82477
20
172.4512
30
0.0
11
666.11273
21
167.02765
31
0.0
12
667.86884
22
172.74484
32
0.0
13
667.86896
23
172.74495
33
1.0E-4
0
3DFACE
8
0
10
667.52344
20
171.91443
30
0.0
11
668.40564
21
171.44351
31
0.0
12
671.3141
22
176.89194
32
0.0
13
671.3142
23
176.89204
33
1.0E-4
0
3DFACE
8
0
10
671.3141
20
176.89194
30
0.0
11
667.52344
21
171.91443
31
0.0
12
670.4319
22
177.36285
32
0.0
13
670.432
23
177.36296
33
1.0E-4
0
3DFACE
8
0
10
669.93475
20
176.60756
30
0.0
11
670.71625
21
175.9836
31
0.0
12
674.75275
22
181.03882
32
0.0
13
674.75287
23
181.03893
33
1.0E-4
0
3DFACE
8
0
10
674.75275
20
181.03882
30
0.0
11
669.93475
21
176.60756
31
0.0
12
673.97125
22
181.66278
32
0.0
13
673.9714
23
181.66289
33
1.0E-4
0
3DFACE
8
0
10
673.3442
20
181.00305
30
0.0
11
674.007
21
180.25427
31
0.0
12
679.1433
22
184.80084
32
0.0
13
679.14343
23
184.80095
33
1.0E-4
0
3DFACE
8
0
10
679.1433
20
184.80084
30
0.0
11
673.3442
21
181.00305
31
0.0
12
678.48047
22
185.54962
32
0.0
13
678.4806
23
185.54973
33
1.0E-4
0
3DFACE
8
0
10
677.74756
20
184.9987
30
0.0
11
678.2826
21
184.15388
31
0.0
12
684.4899
22
188.0852
32
0.0
13
684.49005
23
188.08531
33
1.0E-4
0
3DFACE
8
0
10
684.4899
20
188.0852
30
0.0
11
677.74756
21
184.9987
31
0.0
12
683.9549
22
188.93002
32
0.0
13
683.955
23
188.93013
33
1.0E-4
0
3DFACE
8
0
10
683.1402
20
188.49438
30
0.0
11
683.5457
21
187.58029
31
0.0
12
690.7973
22
190.79704
32
0.0
13
690.7974
23
190.79715
33
1.0E-4
0
3DFACE
8
0
10
690.7973
20
190.79704
30
0.0
11
683.1402
21
188.49438
31
0.0
12
690.3918
22
191.71114
32
0.0
13
690.3919
23
191.71124
33
1.0E-4
0
3DFACE
8
0
10
689.5177
20
191.39166
30
0.0
11
689.79724
21
190.43152
31
0.0
12
698.0698
22
192.83978
32
0.0
13
698.06995
23
192.83989
33
1.0E-4
0
3DFACE
8
0
10
698.0698
20
192.83978
30
0.0
11
689.5177
21
191.39166
31
0.0
12
697.7903
22
193.79993
32
0.0
13
697.7904
23
193.80003
33
1.0E-4
0
3DFACE
8
0
10
696.87616
20
193.59328
30
0.0
11
697.0368
21
192.60628
31
0.0
12
706.3114
22
194.11568
32
0.0
13
706.3115
23
194.11578
33
1.0E-4
0
3DFACE
8
0
10
706.3114
20
194.11568
30
0.0
11
696.87616
21
193.59328
31
0.0
12
706.15076
22
195.10268
32
0.0
13
706.1509
23
195.10278
33
1.0E-4
0
3DFACE
8
0
10
705.2128
20
195.0028
30
0.0
11
705.2636
21
194.00409
31
0.0
12
715.5248
22
194.52615
32
0.0
13
715.5249
23
194.52626
33
1.0E-4
0
3DFACE
8
0
10
715.5248
20
194.52615
30
0.0
11
705.2128
21
195.0028
31
0.0
12
715.474
22
195.52487
32
0.0
13
715.4741
23
195.52498
33
1.0E-4
0
ENDSEC
0
EOF
